SplineFontDB: 1.0
FontName: Emmentaler-20
FullName: Emmentaler 20
FamilyName: Emmentaler
Weight: 20
Copyright: This font is distributed under the GNU General Public License. As a special exception, if you create a document which uses this font, and embed this font or unaltered portions of this font into the document, this font does not by itself cause the resulting document to be covered by the GNU General Public License.
Version: @TOPLEVEL_VERSION@
ItalicAngle: 0
UnderlinePosition: -50
UnderlineWidth: 25
Ascent: 300
Descent: 200
XUID: [1021 437 116440368 13137591]
UniqueID: 4034444
FSType: 0
OS2Version: 2
OS2_WeightWidthSlopeOnly: 0
OS2_UseTypoMetrics: 1
CreationTime: 1122244955
ModificationTime: 1169126437
PfmFamily: 17
TTFWeight: 400
TTFWidth: 5
LineGap: 45
VLineGap: 0
Panose: 2 0 5 3 0 0 0 0 0 0
OS2TypoAscent: 0
OS2TypoAOffset: 1
OS2TypoDescent: 0
OS2TypoDOffset: 1
OS2TypoLinegap: 45
OS2WinAscent: 0
OS2WinAOffset: 1
OS2WinDescent: 0
OS2WinDOffset: 1
HheadAscent: 0
HheadAOffset: 1
HheadDescent: 0
HheadDOffset: 1
OS2SubXSize: 325
OS2SubYSize: 350
OS2SubXOff: 0
OS2SubYOff: 70
OS2SupXSize: 325
OS2SupYSize: 350
OS2SupXOff: 0
OS2SupYOff: 240
OS2StrikeYSize: 24
OS2StrikeYPos: 129
OS2Vendor: 'PfEd'
LangName: 1033 "" "" "" "FontForge 1.0 : Emmentaler 20 : 25-7-2005" 
Encoding: UnicodeBmp
UnicodeInterp: none
NameList: Adobe Glyph List
DisplaySize: -96
AntiAlias: 1
FitToEm: 1
WinInfo: 57592 8 8
BeginPrivate: 8
BlueValues 30 [-2 0 133 146 236 236 250 250]
OtherBlues 9 [-73 -73]
BlueScale 8 0.039625
BlueShift 1 8
BlueFuzz 1 1
StdHW 4 [36]
StdVW 4 [14]
ExpansionFactor 4 0.06
EndPrivate
BeginChars: 65537 380
StartChar: plus
Encoding: 43 43 2
Width: 125
GlyphClass: 2
Flags: MW
HStem: 112 26<19 50 30 50 76 95>
VStem: 50 26<92 112 81.5 112 138 158>
Fore
58 187 m 1
 63 188 70 186 73 182 c 1
 76 180 76 178 76 158 c 2
 76 138 l 1
 95 138 l 2
 116 138 117 138 120 136 c 1
 121 134 122 133 124 132 c 1
 124 130 125 128 125 126 c 0
 125 122 124 121 124 119 c 1
 122 118 121 116 120 115 c 0
 117 112 116 112 95 112 c 2
 76 112 l 1
 76 92 l 2
 76 71 76 70 73 68 c 1
 72 66 70 65 69 64 c 1
 67 63 66 63 63 63 c 0
 60 63 58 63 56 64 c 1
 52 68 l 2
 50 70 50 71 50 92 c 2
 50 112 l 1
 30 112 l 2
 8 112 8 112 5 115 c 0
 4 116 2 118 2 119 c 2
 0 121 0 122 0 126 c 0
 0 128 0 130 2 132 c 1
 2 133 4 134 5 136 c 1
 8 138 8 138 30 138 c 2
 50 138 l 1
 50 158 l 1
 50 179 l 1
 52 181 l 1
 53 184 56 186 58 187 c 1
EndSplineSet
EndChar
StartChar: comma
Encoding: 44 44 3
Width: 57
GlyphClass: 2
Flags: MW
HStem: -78 136
VStem: 1 57
Fore
24 57 m 1
 24 58 28 58 30 58 c 0
 38 57 44 54 49 49 c 0
 56 42 58 32 58 18 c 0
 56 -8 48 -32 33 -66 c 0
 28 -76 28 -77 26 -78 c 0
 21 -80 14 -76 14 -72 c 0
 14 -71 16 -68 16 -66 c 1
 17 -64 20 -58 22 -52 c 0
 32 -31 35 -18 32 -10 c 0
 30 -4 28 -2 19 2 c 0
 13 4 12 6 8 8 c 1
 5 12 3 16 1 20 c 1
 0 24 0 33 2 38 c 0
 5 48 13 54 24 57 c 1
EndSplineSet
EndChar
StartChar: hyphen
Encoding: 45 45 4
Width: 83
GlyphClass: 2
Flags: MW
HStem: 76 14<25 42 42 62>
VStem: 0 82<82 85>
Fore
4 90 m 1
 42 90 l 2
 82 90 80 90 82 88 c 0
 84 86 84 81 82 79 c 0
 80 76 82 76 42 76 c 0
 8 76 6 76 4 77 c 0
 2 78 0 80 0 84 c 0
 0 86 2 88 4 90 c 1
EndSplineSet
EndChar
StartChar: period
Encoding: 46 46 5
Width: 57
GlyphClass: 2
Flags: MW
HStem: 1 55
VStem: 1 55
Fore
22 56 m 0
 32 59 42 56 49 49 c 0
 56 42 59 32 56 22 c 0
 55 16 53 12 49 8 c 1
 46 4 41 2 36 1 c 0
 26 -2 16 2 8 8 c 1
 2 16 -2 26 1 36 c 0
 2 41 4 46 8 49 c 1
 12 53 16 55 22 56 c 0
EndSplineSet
EndChar
StartChar: zero
Encoding: 48 48 6
Width: 183
GlyphClass: 2
Flags: MW
HStem: 0 21G<87 97> 230 20G<82 94 94 100>
VStem: 1 57<107.5 144> 125 58
Fore
82 250 m 1
 94 250 l 2
 106 250 114 248 126 242 c 0
 143 234 157 218 168 197 c 0
 174 184 178 171 180 156 c 0
 183 144 183 139 183 125 c 0
 183 108 182 96 178 80 c 0
 170 52 155 28 136 14 c 0
 130 10 121 6 116 4 c 0
 107 1 102 0 92 0 c 0
 82 0 76 1 68 4 c 0
 62 6 53 10 48 14 c 0
 22 32 6 65 1 106 c 0
 0 114 0 136 1 144 c 0
 4 164 8 181 16 197 c 0
 31 227 54 246 82 250 c 1
98 234 m 1
 94 236 89 236 85 234 c 1
 72 231 64 217 60 191 c 0
 58 180 58 172 58 133 c 0
 58 82 58 68 61 53 c 0
 64 38 68 27 74 21 c 0
 84 12 100 12 109 21 c 0
 116 27 120 38 122 53 c 0
 124 62 124 67 125 80 c 0
 126 96 126 172 124 180 c 1
 122 214 114 231 98 234 c 1
EndSplineSet
EndChar
StartChar: one
Encoding: 49 49 7
Width: 159
GlyphClass: 2
Flags: MW
VStem: 58 58<120.5 151 151 184 184 184>
Fore
60 251 m 0
 61 252 63 252 72 248 c 0
 84 242 90 242 104 248 c 1
 106 250 110 250 110 250 c 1
 112 250 114 248 116 246 c 1
 116 151 l 2
 116 90 116 56 117 52 c 0
 119 33 130 18 144 13 c 0
 146 12 149 12 151 12 c 0
 156 12 156 11 158 9 c 0
 160 6 159 2 156 1 c 0
 153 0 144 0 120 4 c 0
 102 6 96 6 88 6 c 0
 80 6 73 6 55 4 c 0
 32 0 22 0 19 1 c 0
 16 2 15 6 17 9 c 0
 18 11 19 12 24 12 c 0
 26 12 30 12 31 13 c 2
 46 18 56 33 58 52 c 2
 58 184 l 1
 56 190 50 192 46 189 c 1
 46 188 38 172 29 153 c 0
 20 134 12 118 12 117 c 1
 7 112 -2 116 -1 122 c 1
 0 124 8 142 29 188 c 0
 45 222 59 250 60 251 c 0
EndSplineSet
EndChar
StartChar: two
Encoding: 50 50 8
Width: 183
GlyphClass: 2
Flags: MW
HStem: 0 21G<111 119>
VStem: 0 184
Fore
74 250 m 0
 78 250 95 250 100 249 c 0
 112 247 124 244 134 238 c 0
 155 228 169 212 174 192 c 0
 176 187 176 186 176 177 c 0
 176 166 176 163 173 154 c 0
 168 135 156 120 136 108 c 0
 126 102 116 96 90 86 c 0
 84 84 76 80 71 78 c 0
 62 74 52 68 52 68 c 1
 57 68 l 1
 62 70 73 69 80 68 c 0
 92 65 104 60 116 52 c 0
 124 46 128 44 134 42 c 0
 144 38 155 38 162 42 c 1
 168 44 170 48 172 54 c 0
 173 57 175 58 178 58 c 0
 180 58 184 56 184 53 c 0
 184 51 180 42 178 38 c 0
 169 20 150 6 129 2 c 2
 125 0 122 0 116 0 c 0
 106 0 102 1 94 3 c 0
 84 6 77 11 68 20 c 0
 58 30 54 32 44 33 c 0
 35 34 26 30 20 24 c 0
 16 20 14 14 12 8 c 1
 11 2 10 2 8 0 c 1
 6 -1 2 0 0 4 c 0
 -1 7 2 22 6 32 c 0
 11 44 21 58 34 70 c 0
 42 76 46 80 59 89 c 0
 90 112 101 123 110 140 c 0
 112 144 115 154 116 159 c 0
 120 180 117 207 109 222 c 0
 102 234 92 239 80 238 c 0
 70 238 62 234 58 227 c 1
 58 220 l 2
 58 215 59 212 66 203 c 0
 69 199 72 195 73 193 c 0
 74 190 74 190 74 185 c 0
 74 176 71 168 64 162 c 1
 61 158 59 157 56 156 c 0
 45 150 36 150 25 156 c 0
 21 158 20 158 16 162 c 0
 13 165 12 167 10 170 c 1
 6 180 5 190 8 202 c 0
 16 228 42 246 74 250 c 0
EndSplineSet
EndChar
StartChar: three
Encoding: 51 51 9
Width: 166
GlyphClass: 2
Flags: MW
HStem: 0 12<82 82> 125 15<63 73> 238 12<64 84>
VStem: 108 50<184 204> 108 58<58.5 67 58.5 96 58.5 96>
Fore
64 250 m 1xf0
 70 250 88 250 96 249 c 0
 126 245 147 232 155 214 c 0
 158 206 158 202 158 190 c 0xf0
 158 178 158 172 156 166 c 0
 154 156 148 148 140 144 c 0
 135 142 134 140 132 136 c 0
 130 132 132 126 135 124 c 1
 136 122 138 121 141 120 c 0
 150 115 156 109 160 100 c 0
 165 90 167 80 166 67 c 0
 166 50 160 36 148 24 c 0
 133 10 110 1 82 0 c 0
 54 0 30 8 14 22 c 1
 8 30 4 36 2 44 c 2
 0 48 0 50 0 56 c 0
 0 62 0 63 2 67 c 0
 5 76 13 84 22 88 c 0
 26 89 28 89 33 89 c 0
 38 89 40 89 43 88 c 0
 56 84 64 72 66 59 c 1
 66 52 64 50 56 43 c 1
 52 41 50 38 48 38 c 1
 43 31 45 22 53 17 c 0
 60 12 75 10 83 12 c 0
 97 16 105 31 108 58 c 2xe8
 108 96 l 2
 106 114 101 122 90 124 c 1
 88 125 82 125 64 125 c 0
 40 125 40 125 38 128 c 0
 36 130 36 134 38 136 c 1
 39 140 39 140 63 140 c 2
 88 140 l 1
 93 141 96 142 100 145 c 1
 104 150 105 154 107 163 c 0
 108 169 108 195 108 204 c 0
 105 228 94 238 74 238 c 0
 62 238 51 234 48 228 c 1
 46 226 46 226 46 222 c 0
 46 219 46 218 47 216 c 0
 48 214 50 214 57 208 c 1
 59 207 61 205 62 204 c 1
 63 202 63 201 63 197 c 0
 63 186 56 176 44 171 c 0
 40 170 31 169 26 170 c 1
 17 174 10 180 7 190 c 0
 6 192 6 194 6 199 c 0
 6 206 7 210 10 216 c 0
 18 234 39 246 64 250 c 1xf0
EndSplineSet
EndChar
StartChar: four
Encoding: 52 52 10
Width: 200
GlyphClass: 2
Flags: MW
HStem: 62 15<33 54 54 56 56 98 156 176>
VStem: 98 58<60 62 58 62 77 112 112 130> 146 10
Fore
148 250 m 0xc0
 152 252 158 248 158 244 c 1
 86 160 l 2
 47 114 15 78 15 77 c 1
 56 77 l 1
 98 77 l 1
 98 112 l 2xc0
 98 148 98 148 100 150 c 2
 100 152 102 154 108 158 c 0
 128 171 134 178 142 198 c 2
 144 201 146 204 146 205 c 1xa0
 148 206 152 207 154 206 c 1
 156 204 156 208 156 139 c 2
 156 77 l 1
 176 77 l 2
 192 77 194 77 196 76 c 0
 198 75 200 73 200 70 c 0
 200 66 198 64 196 64 c 2
 194 62 192 62 176 62 c 2
 156 62 l 1
 156 60 l 2
 156 56 157 48 158 44 c 0
 163 25 175 13 190 12 c 0
 196 12 196 11 198 9 c 0
 200 6 198 2 196 1 c 1
 192 0 183 0 160 4 c 0
 129 8 125 8 94 4 c 0
 71 0 62 0 58 1 c 1
 56 2 54 6 56 9 c 0
 58 11 58 12 64 12 c 0
 74 12 82 18 89 28 c 0
 94 36 98 48 98 60 c 2
 98 62 l 1
 54 62 l 2
 12 62 11 62 8 64 c 1
 2 65 -1 70 -1 74 c 0
 -1 76 0 77 4 82 c 0
 29 112 47 144 58 175 c 0
 64 196 68 211 69 238 c 0
 70 245 70 246 70 247 c 1
 73 250 74 250 84 248 c 0
 99 244 102 244 112 244 c 2
 126 244 l 1
 132 246 146 249 148 250 c 0xc0
EndSplineSet
EndChar
StartChar: five
Encoding: 53 53 11
Width: 168
GlyphClass: 2
Flags: MW
HStem: 1 11 146 14<71 102 84 88> 230 20G<20.5 21.5 163.5 165>
VStem: 14 15 116 58
Fore
18 249 m 1
 20 250 20 250 21 250 c 0
 22 250 27 249 34 248 c 0
 77 242 109 242 154 249 c 0
 159 250 163 250 164 250 c 0
 166 250 169 247 170 245 c 1
 170 243 169 242 164 237 c 0
 139 215 107 202 68 197 c 0
 60 196 44 195 37 195 c 0
 34 195 32 194 30 190 c 0
 29 188 29 188 29 164 c 2
 29 139 l 1
 33 142 l 2
 43 151 54 156 67 159 c 0
 72 160 74 160 84 160 c 2
 102 160 l 2
 146 154 170 131 174 90 c 0
 176 74 173 60 166 47 c 0
 162 40 158 34 152 28 c 0
 138 14 120 6 99 2 c 0
 90 0 73 0 64 1 c 0
 34 6 12 20 4 38 c 0
 1 45 0 48 0 56 c 0
 0 62 0 63 2 67 c 0
 5 76 13 84 22 88 c 0
 26 89 28 89 33 89 c 0
 38 89 40 89 43 88 c 0
 56 84 64 72 66 59 c 1
 66 52 64 50 56 43 c 0
 50 38 48 37 46 34 c 0
 44 30 46 24 49 20 c 1
 54 15 66 12 80 12 c 0
 96 12 106 21 112 42 c 0
 115 52 116 69 116 86 c 0
 115 121 106 141 88 146 c 1
 78 146 l 2
 64 146 54 143 44 138 c 0
 38 135 34 132 30 126 c 0
 27 122 26 122 24 121 c 1
 20 120 16 122 15 125 c 1
 14 126 14 136 14 185 c 2
 14 244 l 1
 16 246 l 1
 16 246 18 248 18 249 c 1
EndSplineSet
EndChar
StartChar: six
Encoding: 54 54 12
Width: 170
GlyphClass: 2
Flags: MW
HStem: 0 21G<81.5 90> 128 11 238 12<87.5 94 94 96>
VStem: 116 54<64.5 76 64.5 80>
Fore
87 250 m 2
 94 250 l 2
 113 250 132 244 144 235 c 0
 154 228 160 220 162 210 c 2
 164 206 164 205 164 199 c 0
 164 193 164 192 162 188 c 0
 159 178 151 170 142 167 c 0
 138 166 136 166 132 166 c 0
 126 166 124 166 121 167 c 0
 108 172 99 184 99 197 c 0
 99 202 99 202 100 204 c 1
 104 208 l 1
 106 209 109 211 111 212 c 1
 113 214 116 216 116 218 c 1
 118 220 118 220 118 223 c 0
 118 226 118 227 116 229 c 0
 114 232 112 234 108 236 c 0
 104 238 99 238 93 238 c 0
 82 238 74 234 68 225 c 0
 60 212 57 196 58 156 c 2
 58 133 l 1
 63 135 l 2
 66 136 70 137 73 138 c 0
 78 139 79 139 88 139 c 0
 102 139 114 138 125 134 c 0
 146 126 160 114 166 95 c 0
 169 86 170 82 170 70 c 0
 170 59 169 54 166 46 c 0
 163 36 159 30 152 22 c 0
 140 11 124 4 102 1 c 2
 100 0 93 0 87 0 c 0
 76 0 72 1 64 4 c 0
 30 14 8 50 1 103 c 0
 0 112 0 135 1 143 c 0
 4 169 12 191 24 209 c 0
 38 230 58 244 80 248 c 0
 83 249 86 250 87 250 c 2
92 128 m 0
 86 129 78 128 72 125 c 0
 64 121 60 112 59 96 c 0
 58 88 58 52 59 44 c 0
 60 31 62 24 67 18 c 0
 74 11 89 9 100 15 c 0
 106 18 110 24 112 34 c 0
 115 44 116 49 116 70 c 0
 116 90 115 96 112 105 c 1
 110 118 103 125 92 128 c 0
EndSplineSet
EndChar
StartChar: seven
Encoding: 55 55 13
Width: 183
GlyphClass: 2
Flags: MW
HStem: -2 21G<18 20 97 99> 230 20G<175.5 179>
VStem: 0 14<129 216.5>
Fore
4 249 m 1
 6 250 10 250 12 248 c 1
 14 247 14 245 14 239 c 0
 14 235 14 234 16 232 c 1
 16 230 20 228 20 228 c 1
 21 228 22 229 24 230 c 1
 40 250 64 256 88 243 c 0
 94 240 98 236 104 231 c 0
 113 224 120 221 130 222 c 0
 144 222 157 230 168 244 c 0
 172 250 174 250 177 250 c 0
 181 250 184 246 184 242 c 1
 183 240 182 239 180 236 c 0
 174 226 156 199 151 192 c 0
 121 142 106 104 100 64 c 1
 100 44 l 2
 100 30 100 25 102 12 c 1
 104 6 104 4 103 3 c 1
 102 0 100 -2 98 -2 c 0
 96 -2 92 0 87 1 c 0
 72 6 68 6 58 6 c 0
 48 6 45 6 30 1 c 2
 24 0 20 -2 20 -2 c 1
 16 -2 13 2 13 4 c 0
 13 6 18 18 26 34 c 0
 45 72 67 106 108 162 c 2
 121 180 l 1
 124 184 l 1
 124 184 123 184 122 183 c 1
 118 181 110 178 106 177 c 0
 100 176 89 176 84 178 c 0
 76 180 70 183 63 190 c 0
 52 200 42 206 33 206 c 1
 26 205 20 200 18 190 c 1
 15 182 14 178 14 154 c 2
 14 129 l 1
 12 126 10 126 8 126 c 0
 4 126 2 126 1 129 c 1
 0 130 0 134 0 188 c 0
 0 245 0 246 2 247 c 1
 2 248 3 248 4 249 c 1
EndSplineSet
EndChar
StartChar: eight
Encoding: 56 56 14
Width: 183
GlyphClass: 2
Flags: MW
HStem: 238 12<82 90>
VStem: 2 178
Fore
82 250 m 0
 89 250 106 250 113 249 c 0
 134 246 151 238 162 227 c 0
 174 216 178 202 175 186 c 0
 173 172 164 156 149 140 c 1
 144 136 l 1
 148 133 l 2
 157 128 164 122 170 115 c 0
 187 94 191 68 180 45 c 0
 168 22 144 6 110 1 c 0
 102 0 82 0 74 1 c 0
 54 4 36 12 23 22 c 0
 4 38 -4 64 2 86 c 0
 6 96 13 105 28 120 c 2
 38 130 l 1
 35 132 l 2
 27 138 18 148 14 157 c 0
 3 178 6 203 22 222 c 0
 36 237 56 247 82 250 c 0
111 237 m 0
 104 238 92 238 88 238 c 1
 80 236 74 233 68 228 c 1
 62 221 58 214 58 205 c 0
 58 196 60 188 66 182 c 0
 70 178 73 177 100 162 c 0
 115 152 128 145 129 144 c 1
 130 144 141 157 146 166 c 0
 151 174 154 183 154 192 c 0
 156 214 139 232 111 237 c 0
85 102 m 0
 68 112 54 120 53 120 c 0
 52 120 36 104 34 100 c 2
 25 89 22 78 22 67 c 0
 23 54 28 42 38 32 c 0
 48 22 60 16 76 13 c 0
 81 12 83 12 91 12 c 0
 98 12 100 12 104 13 c 0
 112 15 119 20 124 24 c 1
 140 42 138 70 120 82 c 0
 118 84 102 92 85 102 c 0
EndSplineSet
EndChar
StartChar: nine
Encoding: 57 57 15
Width: 170
GlyphClass: 2
Flags: MW
HStem: 238 12<74 84 74 92>
VStem: 0 55<174 185.5>
Fore
74 250 m 0
 80 250 95 250 100 248 c 2
 112 246 124 240 134 230 c 0
 142 221 148 213 154 201 c 0
 162 185 166 168 169 147 c 0
 170 138 170 115 169 107 c 0
 166 81 158 59 146 41 c 0
 134 23 118 10 100 4 c 0
 69 -6 29 4 14 28 c 0
 11 32 9 35 8 40 c 2
 6 44 6 45 6 51 c 0
 6 57 6 58 8 62 c 0
 11 72 19 80 28 83 c 0
 32 84 34 84 39 84 c 0
 44 84 46 84 49 83 c 0
 62 78 71 66 71 53 c 0
 71 48 71 48 70 46 c 1
 66 42 l 1
 64 41 61 39 59 38 c 1
 57 36 54 34 54 32 c 1
 52 30 52 30 52 27 c 0
 52 24 52 23 54 21 c 0
 56 18 58 16 62 14 c 0
 66 12 71 12 77 12 c 0
 88 12 96 16 102 25 c 0
 110 38 113 54 112 94 c 2
 112 117 l 1
 107 115 l 2
 104 114 100 113 97 112 c 0
 92 111 91 111 82 111 c 0
 68 111 56 112 45 116 c 0
 24 124 10 136 4 155 c 0
 1 164 0 168 0 180 c 0
 0 191 1 196 4 204 c 0
 7 214 11 220 18 228 c 0
 31 240 48 247 74 250 c 0
92 238 m 1
 84 238 l 2
 70 238 61 231 58 216 c 0
 55 206 55 201 55 180 c 0
 55 160 55 154 58 145 c 0
 60 135 64 128 70 126 c 1
 81 120 96 122 103 129 c 0
 108 134 110 142 111 154 c 0
 112 162 112 198 111 206 c 0
 110 226 104 235 92 238 c 1
EndSplineSet
EndChar
StartChar: f
Encoding: 102 102 16
Width: 160
GlyphClass: 2
Flags: MW
HStem: 122 20<35 68 35 68 52 63 132 144 144 146 146 153> 218 18<172.5 176 176 179>
VStem: -51 29<-63.5 -49.5>
Fore
166 236 m 2
 176 236 l 2
 185 236 191 234 198 231 c 0
 212 224 218 214 218 201 c 0
 218 196 218 189 216 184 c 0
 214 176 208 168 202 166 c 1
 191 160 176 165 172 177 c 0
 170 181 170 188 172 192 c 0
 173 194 176 196 180 198 c 0
 186 202 189 206 190 210 c 1
 190 216 188 217 179 218 c 0
 166 218 158 214 152 204 c 0
 145 194 141 182 134 154 c 1
 134 148 132 142 132 142 c 1
 146 142 l 2
 160 142 162 142 164 140 c 1
 168 138 170 134 168 128 c 1
 168 125 166 124 164 122 c 1
 144 122 l 1
 126 122 l 1
 113 78 l 2
 97 26 94 19 84 -2 c 0
 62 -46 34 -76 8 -84 c 0
 -5 -88 -18 -88 -30 -82 c 0
 -44 -75 -51 -64 -51 -52 c 0
 -51 -47 -50 -40 -48 -34 c 0
 -46 -26 -40 -18 -35 -16 c 0
 -24 -10 -9 -16 -4 -28 c 0
 -3 -32 -3 -39 -4 -42 c 1
 -6 -44 -8 -46 -12 -49 c 0
 -19 -53 -22 -56 -22 -61 c 0
 -22 -66 -20 -68 -12 -68 c 0
 -4 -68 -1 -68 4 -66 c 0
 12 -62 18 -53 22 -38 c 2
 24 -34 34 3 44 45 c 2
 63 122 l 1
 50 122 l 1
 35 122 l 1
 32 124 30 125 30 128 c 1
 28 134 30 138 35 140 c 1
 36 142 40 142 52 142 c 2
 68 142 l 1
 70 146 l 2
 75 160 85 178 96 192 c 0
 102 198 112 209 118 214 c 0
 134 226 150 234 166 236 c 2
EndSplineSet
EndChar
StartChar: m
Encoding: 109 109 17
Width: 219
GlyphClass: 2
Flags: MW
HStem: 0 21G<83 90 90 102>
VStem: -20 246
Fore
46 149 m 1
 48 149 52 150 54 150 c 1
 58 149 59 149 62 148 c 1
 67 145 71 140 74 132 c 1
 74 128 l 1
 79 132 l 2
 91 144 106 150 116 150 c 1
 126 148 133 142 136 130 c 2
 137 127 l 1
 140 131 l 1
 154 144 170 152 182 148 c 0
 196 145 208 128 206 113 c 0
 206 111 202 92 197 70 c 0
 192 49 188 30 188 30 c 1
 188 28 189 26 191 26 c 0
 195 26 203 32 212 39 c 0
 218 44 220 46 223 45 c 0
 226 44 228 40 226 36 c 0
 224 32 207 18 196 10 c 0
 175 -4 154 -8 146 2 c 1
 143 4 142 7 142 12 c 0
 142 17 143 20 152 60 c 0
 164 106 164 108 162 112 c 1
 161 116 159 116 155 116 c 0
 150 116 142 110 138 104 c 1
 138 103 132 86 124 56 c 0
 116 30 110 8 110 8 c 2
 109 6 106 3 104 2 c 1
 102 0 l 1
 90 0 l 2
 76 0 74 0 72 3 c 1
 72 6 l 2
 72 7 78 30 86 56 c 0
 95 90 99 104 100 107 c 1
 100 116 95 119 86 114 c 0
 82 112 76 108 74 103 c 0
 73 101 66 80 57 54 c 0
 48 30 41 8 40 7 c 2
 39 4 36 2 33 1 c 0
 30 0 8 0 6 1 c 0
 4 2 2 4 2 6 c 0
 2 7 10 29 19 56 c 0
 36 108 36 108 34 112 c 1
 34 116 32 116 28 116 c 0
 18 116 7 102 -2 78 c 0
 -6 70 -7 68 -11 66 c 0
 -14 64 -18 64 -20 66 c 0
 -23 68 -22 71 -16 85 c 0
 -2 120 22 144 46 149 c 1
EndSplineSet
EndChar
StartChar: p
Encoding: 112 112 18
Width: 182
GlyphClass: 2
Flags: W
Fore
34 146 m 1
 38 146 46 146 52 144 c 0
 60 142 66 136 70 128 c 2
 72 126 72 123 73 122 c 1
 73 120 74 120 75 122 c 1
 77 124 84 130 90 134 c 0
 98 139 104 142 114 144 c 0
 120 146 132 146 139 144 c 0
 148 142 156 138 162 132 c 0
 170 124 174 116 177 104 c 0
 178 100 178 97 178 89 c 0
 178 76 176 67 172 55 c 0
 164 31 139 6 114 -2 c 0
 108 -4 102 -4 95 -4 c 0
 84 -4 76 -2 66 3 c 2
 62 4 59 6 58 6 c 0
 55 6 52 5 50 4 c 1
 49 2 35 -40 34 -42 c 1
 34 -48 38 -53 43 -56 c 0
 46 -58 48 -58 56 -59 c 0
 62 -60 64 -66 60 -70 c 0
 58 -73 58 -73 50 -72 c 0
 32 -71 22 -71 -2 -71 c 0
 -26 -71 -35 -71 -53 -72 c 0
 -61 -73 -62 -73 -64 -70 c 1
 -67 -68 -66 -62 -63 -60 c 0
 -62 -59 -61 -59 -49 -58 c 0
 -36 -57 -28 -56 -24 -54 c 0
 -21 -52 -18 -50 -16 -48 c 1
 -16 -46 35 102 36 108 c 1
 38 114 38 120 34 121 c 1
 32 122 28 122 24 120 c 0
 15 115 4 100 -6 76 c 2
 -10 68 l 1
 -16 64 -23 63 -26 68 c 0
 -28 71 -27 73 -18 90 c 0
 -2 124 14 141 34 146 c 1
122 120 m 0
 118 122 114 122 110 120 c 1
 92 116 76 88 68 52 c 0
 64 37 65 26 69 20 c 0
 76 12 94 15 104 28 c 0
 110 36 119 57 124 80 c 0
 130 100 130 108 126 116 c 1
 126 118 124 119 122 120 c 0
EndSplineSet
EndChar
StartChar: r
Encoding: 114 114 19
Width: 109
GlyphClass: 2
Flags: MW
HStem: 0 21G<12.5 24.5> 110 43
Fore
107 153 m 0
 110 154 122 153 126 152 c 0
 136 149 143 143 144 134 c 0
 144 125 138 115 130 111 c 1
 126 110 126 110 122 110 c 0
 113 110 109 112 106 122 c 0
 104 128 102 130 100 131 c 0
 92 135 74 125 68 114 c 0
 67 112 62 94 54 60 c 0
 46 32 40 8 40 8 c 1
 38 4 36 2 33 1 c 0
 31 0 30 0 19 0 c 0
 6 0 5 0 3 2 c 1
 2 6 1 5 17 66 c 0
 30 118 32 123 32 127 c 0
 32 132 31 134 28 136 c 0
 26 138 22 137 18 136 c 1
 12 132 3 121 0 111 c 0
 -2 106 -9 102 -14 106 c 0
 -16 108 -16 110 -14 116 c 0
 -8 131 0 141 13 148 c 0
 32 158 56 154 66 138 c 1
 68 136 l 1
 70 138 l 1
 82 146 94 151 107 153 c 0
EndSplineSet
EndChar
StartChar: s
Encoding: 115 115 20
Width: 103
GlyphClass: 2
Flags: MW
HStem: 0 21G<47.5 58> 126 20G<74 84 84 88>
VStem: 12 108
Fore
74 146 m 1
 84 146 l 2
 92 146 97 144 104 141 c 0
 114 136 121 125 120 114 c 0
 120 106 116 100 110 98 c 0
 103 96 94 100 91 105 c 1
 90 108 90 110 92 112 c 1
 97 120 96 130 90 133 c 0
 87 134 84 134 80 133 c 0
 72 132 65 125 63 118 c 0
 60 108 64 101 76 94 c 0
 98 82 106 74 110 62 c 2
 112 60 112 58 112 52 c 0
 112 44 111 40 108 34 c 0
 104 23 94 13 82 7 c 0
 72 2 64 0 52 0 c 0
 43 0 38 1 31 5 c 0
 21 10 14 18 12 28 c 0
 9 39 14 52 22 55 c 0
 32 58 42 50 43 41 c 0
 43 37 42 36 38 32 c 1
 34 29 32 27 32 24 c 0
 32 17 44 12 56 14 c 0
 70 18 78 24 81 34 c 0
 84 44 78 54 66 63 c 0
 64 64 59 68 55 70 c 0
 42 78 38 82 34 89 c 2
 32 92 l 1
 32 99 l 2
 32 104 32 107 34 110 c 2
 35 115 38 122 42 126 c 1
 49 136 61 144 74 146 c 1
EndSplineSet
EndChar
StartChar: z
Encoding: 122 122 21
Width: 143
GlyphClass: 2
Flags: MW
HStem: 6 27<24.5 51.5>
Fore
44 132 m 0
 48 133 55 133 60 132 c 1
 62 131 68 129 73 128 c 2
 86 122 89 122 100 122 c 0
 113 121 116 122 123 127 c 0
 124 128 126 128 127 128 c 0
 130 128 134 126 134 122 c 1
 135 118 137 120 89 75 c 2
 45 34 l 1
 48 33 l 1
 55 33 64 32 78 30 c 0
 107 26 114 26 120 32 c 0
 125 36 127 44 125 52 c 0
 124 56 124 58 125 60 c 0
 128 64 132 64 135 62 c 0
 137 61 138 58 140 50 c 0
 142 42 143 36 143 30 c 0
 142 6 122 -13 96 -14 c 0
 86 -15 80 -13 64 -4 c 0
 48 4 45 6 30 6 c 0
 19 6 17 6 14 4 c 0
 10 0 8 0 6 0 c 0
 4 0 2 2 1 4 c 0
 0 6 0 8 2 11 c 2
 2 12 22 32 46 54 c 2
 92 98 l 1
 94 100 l 1
 89 98 l 1
 72 98 l 2
 52 96 50 96 32 92 c 0
 24 90 20 90 17 92 c 0
 14 94 14 102 18 110 c 0
 22 120 34 130 44 132 c 0
EndSplineSet
EndChar
StartChar: uniE0F8
Encoding: 57592 57592 22
Width: 270
GlyphClass: 2
Flags: MW
VStem: 147 17<58 374 489.5 496 496 499>
Fore
147 437 m 1
 147 499 l 1
 156 499 l 1
 164 499 l 1
 164 496 l 2
 164 483 168 465 172 450 c 0
 180 427 190 409 214 369 c 0
 233 339 240 327 247 313 c 0
 257 292 264 274 266 256 c 0
 272 225 266 185 254 145 c 0
 250 133 248 128 246 127 c 1
 244 125 240 123 238 123 c 0
 236 123 231 125 230 127 c 2
 228 128 226 132 226 134 c 0
 226 135 227 138 228 141 c 0
 238 163 244 189 246 212 c 0
 248 221 248 235 247 241 c 0
 243 277 220 315 172 366 c 2
 164 374 l 1
 164 35 l 1
 147 58 l 1
 147 437 l 1
100 68 m 0
 106 69 120 68 125 68 c 1
 145 63 158 52 163 36 c 0
 164 30 164 18 164 12 c 1
 159 -8 145 -28 125 -44 c 0
 108 -56 88 -64 70 -68 c 0
 62 -69 47 -69 41 -68 c 0
 20 -64 6 -52 2 -35 c 1
 0 -30 0 -18 1 -12 c 0
 6 8 20 28 40 44 c 0
 58 58 79 66 100 68 c 0
EndSplineSet
EndChar
StartChar: uniE0F9
Encoding: 57593 57593 23
Width: 270
GlyphClass: 2
Flags: MW
VStem: 145 17<59 250 250 268 268 287 388.5 391 391 394 494 500> 242 22<266 270 262 279 262 279> 244.842 20.1575
Fore
145 375 m 1xa0
 145 500 l 1
 154 500 l 1
 162 500 l 1
 162 494 l 2
 164 474 169 455 180 434 c 0
 188 420 194 410 213 382 c 2
 231 356 l 2
 252 322 262 296 264 270 c 0xc0
 264 254 261 238 254 224 c 1
 254 221 252 218 252 218 c 1
 252 216 254 213 255 210 c 0
 260 198 264 182 266 168 c 0
 267 161 266 146 265 136 c 0
 263 116 257 94 248 72 c 0
 245 66 244 64 240 62 c 0
 237 61 235 61 232 62 c 0
 228 64 226 66 225 68 c 1
 224 72 224 74 227 80 c 0
 237 102 243 124 245 146 c 0
 246 167 244 182 234 201 c 0
 227 216 218 229 202 247 c 0
 196 254 172 278 166 284 c 1
 162 287 l 1
 162 268 l 1
 162 250 l 1
 162 35 l 1
 145 59 l 1
 145 375 l 1xa0
196 358 m 2
 194 362 184 372 176 380 c 2
 162 394 l 1
 162 391 l 2
 162 386 163 378 164 371 c 0
 166 358 171 347 178 333 c 0
 186 318 194 306 216 274 c 0
 222 264 230 252 234 248 c 1
 238 241 l 1
 240 244 l 1
 242 252 242 256 242 266 c 2
 242 279 l 1
 236 304 223 328 196 358 c 2
100 68 m 0
 106 69 120 68 125 68 c 1
 145 63 158 52 163 36 c 0
 164 30 164 18 164 12 c 1
 159 -8 145 -28 125 -44 c 0
 108 -56 88 -64 70 -68 c 0
 62 -69 47 -69 41 -68 c 0
 20 -64 6 -52 2 -35 c 1
 0 -30 0 -18 1 -12 c 0
 6 8 20 28 40 44 c 0
 58 58 79 66 100 68 c 0
EndSplineSet
EndChar
StartChar: uniE0FA
Encoding: 57594 57594 24
Width: 270
GlyphClass: 2
Flags: MW
VStem: 148 17<56 125 125 151 151 176 273.5 281 281 285 387 390.5 494 500> 239 22<246 280> 241 20<260 268.5> 248 21
Fore
148 312 m 1xc0
 148 500 l 1
 157 500 l 1
 165 500 l 1
 165 494 l 2
 167 466 177 440 199 403 c 2
 214 380 l 2
 231 354 239 342 245 328 c 0
 253 310 258 296 261 280 c 1xa0
 261 248 l 1xc0
 259 241 257 234 255 228 c 2
 253 222 l 1
 255 216 l 1
 261 204 263 194 265 182 c 0
 267 174 267 156 265 148 c 0
 263 137 260 126 257 118 c 1
 255 116 255 114 255 114 c 1
 258 108 l 2
 267 89 270 72 269 52 c 0
 269 26 263 0 251 -25 c 0
 247 -32 247 -34 243 -36 c 0
 240 -37 238 -37 235 -36 c 0
 231 -34 229 -32 228 -30 c 1
 227 -26 227 -24 229 -18 c 1
 240 2 246 24 248 46 c 0x90
 249 64 247 78 239 94 c 0
 231 111 219 126 201 144 c 2
 171 172 l 1
 165 176 l 1
 165 151 l 1
 165 125 l 1
 165 36 l 1
 148 56 l 1
 148 312 l 1xc0
173 385 m 1
 169 388 167 392 166 393 c 0
 165 394 165 394 165 387 c 0
 166 365 173 344 189 318 c 0
 193 310 201 298 217 278 c 2
 234 253 l 2
 236 250 238 246 239 246 c 1xc0
 239 247 240 255 241 260 c 1
 241 277 235 298 223 319 c 0
 213 338 197 358 173 385 c 1
175 276 m 0
 171 280 167 284 166 284 c 1
 165 285 l 1
 165 281 l 2
 165 266 170 247 179 230 c 0
 187 212 195 200 219 168 c 0
 229 155 235 146 239 140 c 0xc0
 241 137 241 136 243 146 c 0
 247 161 246 176 241 190 c 0xa0
 237 202 227 220 217 232 c 0
 207 245 191 262 175 276 c 0
100 68 m 0
 106 69 120 68 125 68 c 1
 145 63 158 52 163 36 c 0
 164 30 164 18 164 12 c 1
 159 -8 145 -28 125 -44 c 0
 108 -56 88 -64 70 -68 c 0
 62 -69 47 -69 41 -68 c 0
 20 -64 6 -52 2 -35 c 1
 0 -30 0 -18 1 -12 c 0
 6 8 20 28 40 44 c 0
 58 58 79 66 100 68 c 0
EndSplineSet
EndChar
StartChar: uniE0FB
Encoding: 57595 57595 25
Width: 270
GlyphClass: 2
Flags: MW
VStem: 146 17<21 49 49 77 172.5 184 184 189 282.5 297 297 302 399 409 409 415 515 521>
Fore
146 271 m 1
 146 521 l 1
 155 521 l 1
 163 521 l 1
 163 515 l 2
 165 487 175 461 197 425 c 0
 199 421 205 411 211 402 c 2
 233 365 l 2
 247 340 255 319 259 297 c 1
 259 289 259 271 258 263 c 0
 257 256 255 247 252 241 c 2
 250 237 l 1
 252 232 l 2
 255 225 259 215 261 208 c 0
 267 181 265 157 253 131 c 1
 251 123 l 1
 253 118 l 2
 258 107 261 95 263 83 c 0
 265 76 265 65 264 59 c 0
 263 47 257 35 250 25 c 1
 247 22 l 1
 251 15 l 2
 265 -13 270 -37 266 -67 c 0
 264 -88 257 -111 249 -130 c 0
 245 -137 245 -138 241 -140 c 0
 238 -141 236 -141 233 -140 c 0
 229 -139 227 -137 226 -134 c 0
 225 -131 225 -129 227 -123 c 1
 233 -113 239 -96 241 -85 c 0
 247 -65 247 -45 245 -31 c 0
 241 -11 229 9 209 33 c 0
 201 41 185 59 173 69 c 2
 163 77 l 1
 163 49 l 1
 163 21 l 1
 155 21 l 1
 146 21 l 1
 146 271 l 1
177 399 m 0
 173 403 168 409 167 411 c 1
 163 415 l 1
 163 409 l 2
 163 389 168 370 179 349 c 0
 186 334 195 321 215 291 c 2
 231 269 l 2
 233 265 236 262 236 263 c 1
 237 263 238 271 239 277 c 1
 239 293 234 313 224 333 c 0
 214 353 199 373 177 399 c 0
178 288 m 0
 172 293 167 299 165 300 c 1
 163 302 l 1
 163 297 l 2
 163 268 173 241 197 206 c 2
 212 183 l 2
 218 175 226 164 230 158 c 2
 237 147 l 1
 237 147 238 149 239 152 c 0
 243 163 244 177 243 187 c 0
 239 217 219 248 178 288 c 0
183 171 m 0
 176 177 169 185 167 187 c 1
 163 189 l 1
 163 184 l 2
 163 161 171 137 186 111 c 0
 193 99 199 91 216 68 c 0
 221 61 227 53 230 48 c 0
 233 44 235 41 236 41 c 0
 237 41 241 51 242 55 c 0
 247 73 241 96 226 119 c 0
 215 136 205 149 183 171 c 0
100 68 m 0
 106 69 120 68 125 68 c 1
 145 63 158 52 163 36 c 0
 164 30 164 18 164 12 c 1
 159 -8 145 -28 125 -44 c 0
 108 -56 88 -64 70 -68 c 0
 62 -69 47 -69 41 -68 c 0
 20 -64 6 -52 2 -35 c 1
 0 -30 0 -18 1 -12 c 0
 6 8 20 28 40 44 c 0
 58 58 79 66 100 68 c 0
EndSplineSet
EndChar
StartChar: uniE0FC
Encoding: 57596 57596 26
Width: 164
GlyphClass: 2
Flags: MW
VStem: 147 17<58 437 437 496 496 499>
Fore
164 35 m 1
 147 58 l 1
 147 437 l 1
 147 499 l 1
 164 499 l 1
 164 496 l 1
 164 35 l 1
100 68 m 0
 106 69 120 68 125 68 c 1
 145 63 158 52 163 36 c 0
 164 30 164 18 164 12 c 1
 159 -8 145 -28 125 -44 c 0
 108 -56 88 -64 70 -68 c 0
 62 -69 47 -69 41 -68 c 0
 20 -64 6 -52 2 -35 c 1
 0 -30 0 -18 1 -12 c 0
 6 8 20 28 40 44 c 0
 58 58 79 66 100 68 c 0
EndSplineSet
EndChar
StartChar: uniE0FD
Encoding: 57597 57597 27
Width: 164
GlyphClass: 2
Flags: MW
VStem: 0 18<-201 39 -201 65 -201 39> 147 17<157 253 253 400 400 400>
Fore
0 65 m 1
 0 -201 l 1
 18 -201 l 1
 18 39 l 1
 0 65 l 1
164 134 m 1
 147 157 l 1
 147 253 l 1
 147 400 l 1
 164 400 l 1
 164 496 l 1
 164 134 l 1
100 167 m 0
 106 168 120 167 125 167 c 1
 145 162 158 151 163 135 c 0
 164 129 164 117 164 111 c 1
 159 91 145 71 125 55 c 0
 108 43 88 35 70 31 c 0
 62 30 47 30 41 31 c 0
 20 35 6 47 2 64 c 1
 0 69 0 81 1 87 c 0
 6 107 20 127 40 143 c 0
 58 157 79 165 100 167 c 0
EndSplineSet
EndChar
StartChar: uniE0FE
Encoding: 57598 57598 28
Width: 56
GlyphClass: 2
Flags: MW
HStem: -28 56
Fore
113 28 m 0
 116 29 124 28 128 27 c 0
 136 24 142 18 145 10 c 0
 146 6 146 6 146 0 c 0
 146 -5 146 -6 145 -9 c 0
 142 -18 136 -24 127 -26 c 2
 124 -28 122 -28 118 -28 c 0
 114 -28 112 -28 110 -26 c 2
 100 -24 95 -18 92 -9 c 1
 90 -6 90 -5 90 0 c 0
 90 5 90 6 92 9 c 1
 92 13 96 18 98 20 c 0
 101 24 108 27 113 28 c 0
23 28 m 0
 26 29 34 28 38 27 c 0
 46 24 52 18 55 10 c 0
 56 6 56 6 56 0 c 0
 56 -5 56 -6 55 -9 c 0
 52 -18 46 -24 37 -26 c 2
 34 -28 32 -28 28 -28 c 0
 24 -28 22 -28 20 -26 c 2
 10 -24 5 -18 2 -9 c 1
 0 -6 0 -5 0 0 c 0
 0 5 0 6 2 9 c 1
 2 13 6 18 8 20 c 0
 11 24 18 27 23 28 c 0
EndSplineSet
EndChar
StartChar: rests.0
Encoding: 57600 57600 29
Width: 187
GlyphClass: 2
Flags: MW
HStem: -78 78<3 94 3 94 2 94 94 184>
Fore
2 -2 m 1
 3 0 l 1
 94 0 l 1
 185 0 l 1
 186 -2 l 1
 188 -2 l 1
 188 -39 l 1
 188 -75 l 1
 186 -76 l 1
 184 -78 l 1
 94 -78 l 1
 2 -78 l 1
 2 -76 l 1
 0 -76 l 1
 0 -39 l 1
 0 -3 l 1
 2 -2 l 1
EndSplineSet
EndChar
StartChar: rests.1
Encoding: 57601 57601 30
Width: 187
GlyphClass: 2
Flags: MW
HStem: 0 78<3 94 3 94 2 94 94 184>
Fore
2 76 m 1
 3 78 l 1
 94 78 l 1
 185 78 l 1
 186 76 l 1
 188 76 l 1
 188 39 l 1
 188 3 l 1
 186 2 l 1
 184 0 l 1
 94 0 l 1
 2 0 l 1
 2 2 l 1
 0 2 l 1
 0 39 l 1
 0 75 l 1
 2 76 l 1
EndSplineSet
EndChar
StartChar: rests.0o
Encoding: 57602 57602 31
Width: 187
GlyphClass: 2
Flags: MW
HStem: -12 24<-71 -34 -71 -70>
Fore
-70 12 m 1
 -68 13 -40 13 94 13 c 0
 228 13 256 13 258 12 c 1
 260 12 263 10 264 6 c 2
 266 4 266 4 266 0 c 0
 266 -3 266 -4 264 -6 c 2
 263 -9 260 -11 258 -12 c 1
 222 -12 l 1
 188 -12 l 1
 188 -44 l 1
 188 -75 l 1
 186 -76 l 1
 184 -78 l 1
 94 -78 l 1
 2 -78 l 1
 2 -76 l 1
 0 -76 l 1
 0 -44 l 1
 0 -12 l 1
 -34 -12 l 1
 -70 -12 l 1
 -72 -11 -75 -9 -76 -6 c 2
 -78 -4 -78 -3 -78 0 c 0
 -78 4 -78 4 -76 6 c 2
 -75 10 -72 12 -70 12 c 1
EndSplineSet
EndChar
StartChar: rests.1o
Encoding: 57603 57603 32
Width: 187
GlyphClass: 2
Flags: MW
HStem: -12 25<-34 0 188 222 222 235.5>
Fore
2 76 m 1
 3 78 l 1
 94 78 l 1
 185 78 l 1
 186 76 l 1
 188 76 l 1
 188 44 l 1
 188 13 l 1
 222 13 l 2
 249 13 256 13 258 12 c 1
 260 12 263 10 264 6 c 2
 266 4 266 4 266 0 c 0
 266 -3 266 -4 264 -6 c 2
 263 -9 260 -11 258 -12 c 0
 255 -13 -67 -13 -70 -12 c 0
 -72 -11 -75 -9 -76 -6 c 2
 -78 -4 -78 -3 -78 0 c 0
 -78 4 -78 4 -76 6 c 2
 -75 10 -72 12 -70 12 c 1
 -68 13 -61 13 -34 13 c 2
 0 13 l 1
 0 44 l 1
 0 75 l 1
 2 76 l 1
EndSplineSet
EndChar
StartChar: rests.M3
Encoding: 57604 57604 33
Width: 225
GlyphClass: 2
Flags: MW
VStem: 0 75<-122 0 0 122> 150 75<-122 0 0 122>
Fore
2 124 m 1
 3 125 l 1
 38 125 l 1
 72 125 l 1
 74 124 l 1
 75 122 l 1
 75 0 l 1
 75 -122 l 1
 74 -124 l 1
 72 -125 l 1
 38 -125 l 1
 2 -124 l 1
 0 -122 l 1
 0 0 l 1
 0 122 l 1
 2 124 l 1
152 124 m 1
 153 125 l 1
 188 125 l 1
 222 125 l 1
 224 124 l 1
 225 122 l 1
 225 0 l 1
 225 -122 l 1
 224 -124 l 1
 222 -125 l 1
 188 -125 l 1
 152 -124 l 1
 150 -122 l 1
 150 0 l 1
 150 122 l 1
 152 124 l 1
EndSplineSet
EndChar
StartChar: rests.M2
Encoding: 57605 57605 34
Width: 75
GlyphClass: 2
Flags: MW
VStem: 0 75<-122 0 0 122>
Fore
2 124 m 1
 3 125 l 1
 38 125 l 1
 72 125 l 1
 74 124 l 1
 75 122 l 1
 75 0 l 1
 75 -122 l 1
 74 -124 l 1
 72 -125 l 1
 38 -125 l 1
 2 -124 l 1
 0 -122 l 1
 0 0 l 1
 0 122 l 1
 2 124 l 1
EndSplineSet
EndChar
StartChar: rests.M1
Encoding: 57606 57606 35
Width: 75
GlyphClass: 2
Flags: MW
HStem: 0 21G<2 38 2 2 38 72>
VStem: 0 75<3 62 3 62 62 122 3 122>
Fore
2 124 m 1
 3 125 l 1
 38 125 l 1
 72 125 l 1
 74 124 l 1
 75 122 l 1
 75 62 l 1
 75 3 l 1
 74 2 l 1
 72 0 l 1
 38 0 l 1
 2 0 l 1
 2 2 l 1
 0 2 l 1
 0 62 l 1
 0 122 l 1
 2 124 l 1
EndSplineSet
EndChar
StartChar: rests.2
Encoding: 57607 57607 36
Width: 118
GlyphClass: 2
Flags: MW
VStem: -9 129
Fore
32 198 m 1
 38 198 l 2
 40 198 50 186 78 152 c 0
 98 128 116 106 117 105 c 0
 122 100 122 94 120 87 c 0
 118 79 110 70 92 55 c 0
 86 50 79 45 78 43 c 2
 66 32 59 15 60 -1 c 0
 60 -14 64 -24 74 -34 c 1
 77 -38 102 -68 111 -78 c 0
 116 -84 116 -86 114 -90 c 1
 113 -94 108 -96 104 -94 c 1
 100 -90 l 2
 87 -77 55 -69 40 -76 c 0
 35 -78 32 -82 30 -90 c 0
 24 -106 28 -137 39 -152 c 0
 42 -156 42 -157 40 -159 c 0
 39 -160 37 -160 36 -159 c 1
 34 -158 26 -148 22 -140 c 2
 10 -124 0 -102 -6 -86 c 0
 -12 -67 -13 -54 -9 -46 c 1
 -8 -42 -6 -40 -2 -39 c 1
 8 -34 40 -40 67 -51 c 2
 69 -52 l 1
 68 -50 l 1
 66 -49 46 -26 18 8 c 0
 -2 32 -3 32 -2 40 c 2
 -2 46 l 1
 2 54 10 62 27 78 c 1
 33 82 40 88 41 90 c 1
 58 106 64 132 54 152 c 1
 52 158 50 162 38 174 c 1
 33 181 28 187 28 188 c 1
 26 191 28 196 32 198 c 1
EndSplineSet
EndChar
StartChar: rests.2classical
Encoding: 57608 57608 37
Width: 125
GlyphClass: 2
Flags: MW
HStem: -130 232<73 98>
VStem: 0 126<63.5 85>
Fore
84 102 m 1
 98 102 l 1
 110 99 120 90 125 78 c 0
 126 74 126 72 126 67 c 0
 126 60 126 56 122 50 c 0
 117 40 106 32 95 28 c 0
 82 25 61 28 37 36 c 2
 31 38 l 1
 60 -44 l 1
 90 -125 l 1
 90 -125 88 -126 87 -126 c 1
 84 -128 79 -130 76 -130 c 0
 70 -130 62 -126 61 -124 c 1
 61 -122 47 -75 30 -18 c 2
 0 85 l 1
 1 86 l 1
 4 90 8 90 12 88 c 1
 12 87 14 85 15 84 c 0
 20 76 31 62 37 58 c 1
 42 53 46 52 50 54 c 0
 55 57 56 60 60 73 c 0
 62 83 64 88 68 92 c 0
 72 97 78 100 84 102 c 1
EndSplineSet
EndChar
StartChar: rests.3
Encoding: 57609 57609 38
Width: 125
GlyphClass: 2
Flags: MW
HStem: -130 232
VStem: -1 126<63.5 85>
Fore
28 102 m 0
 36 104 44 102 52 98 c 1
 59 92 62 86 66 73 c 1
 68 60 70 57 74 54 c 1
 80 52 82 53 88 58 c 0
 94 62 106 76 110 84 c 1
 111 85 112 87 114 88 c 1
 116 90 122 90 124 86 c 1
 125 85 l 1
 95 -18 l 2
 78 -75 64 -122 64 -124 c 1
 63 -126 56 -130 50 -130 c 0
 46 -130 41 -128 38 -126 c 1
 36 -126 36 -125 36 -125 c 1
 64 -44 l 1
 94 38 l 1
 88 36 l 2
 64 28 43 25 30 28 c 0
 18 32 8 40 3 50 c 0
 0 56 -1 60 -1 67 c 0
 -1 72 -1 74 0 78 c 0
 4 90 14 99 28 102 c 0
EndSplineSet
EndChar
StartChar: rests.4
Encoding: 57610 57610 39
Width: 150
GlyphClass: 2
Flags: MW
VStem: -12 162<-58 85 -48 85>
Fore
55 102 m 0
 63 104 72 102 79 98 c 1
 86 92 90 86 93 73 c 0
 96 60 98 57 102 54 c 1
 107 52 110 54 116 58 c 1
 120 62 126 70 132 78 c 0
 138 88 138 88 140 88 c 1
 143 90 147 90 149 86 c 1
 150 85 l 1
 106 -82 l 2
 81 -173 61 -248 60 -249 c 2
 60 -250 56 -253 52 -254 c 0
 46 -256 40 -255 35 -252 c 1
 34 -250 32 -250 32 -250 c 1
 34 -247 82 -88 82 -88 c 2
 82 -87 79 -88 75 -90 c 1
 66 -92 56 -95 48 -96 c 0
 38 -98 24 -98 19 -96 c 1
 7 -94 -4 -86 -8 -76 c 1
 -12 -70 -12 -66 -12 -58 c 2
 -12 -48 l 1
 -8 -40 -4 -33 3 -28 c 0
 17 -20 35 -21 46 -32 c 0
 50 -36 52 -42 54 -52 c 0
 57 -66 58 -68 63 -70 c 1
 68 -73 72 -72 79 -64 c 0
 86 -57 95 -45 98 -38 c 1
 98 -36 121 37 121 38 c 1
 121 38 118 37 114 36 c 0
 90 28 70 25 58 28 c 0
 46 32 36 40 30 50 c 0
 27 56 26 60 26 67 c 0
 26 72 26 74 28 78 c 0
 32 90 42 99 55 102 c 0
EndSplineSet
EndChar
StartChar: rests.5
Encoding: 57611 57611 40
Width: 162
GlyphClass: 2
Flags: W
Fore
70 226 m 0
 78 228 87 227 94 222 c 1
 102 218 105 212 108 198 c 0
 111 184 112 182 117 180 c 0
 121 178 124 178 126 180 c 0
 131 184 139 194 146 206 c 0
 150 212 151 214 154 214 c 0
 158 214 160 213 162 211 c 1
 162 210 162 209 109 -19 c 0
 79 -145 55 -248 54 -249 c 1
 54 -252 46 -255 40 -255 c 0
 35 -255 26 -251 26 -249 c 1
 27 -248 69 -90 70 -88 c 1
 70 -86 l 1
 63 -89 l 2
 52 -92 43 -95 34 -96 c 2
 28 -98 25 -98 17 -98 c 0
 6 -98 3 -97 -5 -93 c 0
 -16 -88 -23 -80 -26 -68 c 2
 -28 -66 -28 -64 -28 -58 c 0
 -28 -52 -28 -52 -26 -48 c 2
 -24 -40 -18 -33 -12 -28 c 1
 2 -20 20 -21 30 -32 c 0
 34 -36 36 -42 39 -52 c 0
 42 -66 44 -68 48 -70 c 0
 54 -72 57 -72 64 -65 c 0
 70 -59 78 -48 82 -40 c 1
 82 -38 102 38 102 38 c 1
 102 38 99 37 94 36 c 1
 85 32 76 30 68 28 c 1
 58 27 44 27 38 28 c 1
 26 32 16 40 11 50 c 0
 8 56 7 60 7 67 c 0
 7 72 7 74 8 78 c 0
 11 85 16 92 22 96 c 0
 36 106 54 104 65 92 c 0
 69 88 71 83 74 73 c 0
 76 60 78 57 82 54 c 1
 88 52 90 54 96 58 c 1
 101 63 110 74 114 82 c 1
 114 85 118 94 125 124 c 0
 131 145 136 162 135 162 c 2
 135 162 132 162 127 160 c 0
 110 154 98 152 86 152 c 0
 75 152 72 153 64 157 c 0
 53 162 46 170 42 182 c 1
 42 192 l 1
 42 202 l 1
 47 215 57 224 70 226 c 0
EndSplineSet
EndChar
StartChar: rests.6
Encoding: 57612 57612 41
Width: 175
GlyphClass: 2
Flags: MW
VStem: -33 207
Fore
84 226 m 0
 92 228 102 227 108 222 c 1
 116 218 120 212 122 198 c 0
 126 184 127 182 132 180 c 0
 136 178 138 178 140 180 c 0
 145 184 152 192 158 205 c 0
 162 214 164 214 168 214 c 0
 171 214 173 214 174 211 c 1
 175 210 168 177 117 -80 c 0
 84 -240 58 -371 58 -372 c 0
 58 -375 57 -376 55 -376 c 1
 52 -378 47 -380 44 -380 c 0
 40 -380 35 -378 32 -376 c 1
 30 -376 30 -375 30 -374 c 0
 31 -369 66 -212 66 -212 c 1
 66 -212 64 -212 61 -213 c 0
 36 -222 12 -225 -2 -222 c 0
 -14 -218 -24 -210 -29 -200 c 0
 -32 -194 -33 -190 -33 -183 c 0
 -33 -178 -33 -176 -32 -172 c 0
 -29 -165 -24 -158 -18 -154 c 0
 -4 -144 14 -146 25 -158 c 0
 29 -162 31 -167 34 -177 c 0
 36 -190 38 -193 42 -196 c 1
 48 -198 51 -196 56 -192 c 0
 62 -186 71 -174 75 -166 c 1
 78 -162 78 -159 86 -124 c 0
 90 -104 94 -87 94 -86 c 1
 94 -86 90 -88 87 -89 c 0
 62 -97 41 -100 28 -96 c 0
 16 -94 6 -86 0 -76 c 0
 -3 -70 -4 -66 -4 -58 c 0
 -4 -52 -4 -52 -2 -48 c 2
 0 -40 6 -33 12 -28 c 1
 26 -20 44 -21 54 -32 c 0
 58 -36 60 -42 63 -52 c 0
 66 -66 68 -68 72 -70 c 0
 78 -72 80 -72 87 -66 c 1
 93 -59 101 -46 104 -40 c 0
 105 -38 122 38 122 38 c 1
 114 36 l 2
 104 32 95 30 87 28 c 0
 78 27 64 27 58 28 c 1
 46 32 36 40 30 50 c 0
 27 56 26 60 26 67 c 0
 26 72 26 74 28 78 c 0
 30 85 36 92 42 96 c 0
 56 106 74 104 84 92 c 0
 88 88 90 83 93 73 c 0
 96 60 98 57 102 54 c 1
 106 53 108 53 111 55 c 0
 116 58 124 70 130 81 c 0
 132 86 133 88 141 122 c 0
 146 142 149 160 150 161 c 1
 150 163 l 1
 144 161 l 2
 136 158 125 155 117 154 c 2
 111 152 108 152 100 152 c 0
 90 152 86 153 78 157 c 0
 68 162 60 170 57 182 c 1
 56 184 56 186 56 192 c 0
 56 198 56 198 57 202 c 0
 62 215 72 224 84 226 c 0
EndSplineSet
EndChar
StartChar: rests.7
Encoding: 57613 57613 42
Width: 187
GlyphClass: 2
Flags: MW
VStem: -30 218
Fore
100 352 m 0
 108 354 116 352 124 348 c 1
 131 342 134 336 138 323 c 1
 140 310 142 307 146 304 c 1
 150 304 152 303 155 304 c 1
 158 306 164 316 170 329 c 0
 174 338 176 339 180 340 c 1
 182 340 185 338 186 336 c 1
 188 335 l 1
 128 -18 l 2
 96 -213 70 -373 69 -374 c 1
 68 -376 61 -380 55 -380 c 0
 52 -380 46 -378 44 -376 c 2
 41 -375 41 -375 41 -374 c 1
 42 -373 48 -336 56 -292 c 0
 64 -249 71 -212 72 -212 c 1
 72 -210 l 1
 63 -214 l 2
 37 -222 14 -225 2 -222 c 0
 -10 -218 -21 -210 -26 -200 c 0
 -30 -194 -30 -190 -30 -183 c 0
 -30 -178 -30 -176 -29 -172 c 0
 -26 -165 -21 -158 -14 -154 c 0
 0 -144 18 -146 28 -158 c 0
 32 -162 34 -167 36 -177 c 0
 40 -190 41 -193 46 -196 c 0
 50 -198 54 -196 60 -192 c 1
 66 -186 74 -175 78 -166 c 2
 80 -161 l 1
 88 -124 l 1
 94 -86 l 1
 94 -86 91 -88 86 -89 c 0
 62 -97 40 -100 27 -96 c 0
 15 -94 4 -86 0 -76 c 1
 -4 -70 -4 -66 -4 -58 c 2
 -4 -48 l 1
 0 -40 4 -33 11 -28 c 0
 25 -20 43 -21 54 -32 c 0
 58 -36 60 -42 62 -52 c 0
 65 -66 66 -68 71 -70 c 1
 74 -72 77 -72 80 -70 c 1
 85 -68 92 -58 98 -48 c 0
 104 -39 104 -40 110 0 c 0
 114 20 118 38 118 38 c 1
 118 38 115 38 111 36 c 0
 100 33 91 30 82 28 c 1
 65 28 l 2
 54 28 51 28 43 32 c 0
 32 37 25 46 22 56 c 0
 20 60 20 62 20 67 c 0
 20 72 20 74 22 78 c 0
 24 85 30 92 36 96 c 0
 50 106 68 104 78 92 c 0
 82 88 84 83 87 73 c 0
 90 60 92 57 96 54 c 1
 102 52 106 54 114 64 c 0
 118 68 121 74 124 82 c 2
 126 86 l 1
 134 124 l 1
 141 163 l 1
 140 163 138 162 134 161 c 0
 110 153 90 150 78 154 c 1
 66 156 55 164 50 174 c 0
 46 180 46 184 46 192 c 0
 46 198 46 198 47 202 c 0
 50 210 55 217 62 222 c 0
 76 230 94 229 104 218 c 0
 108 214 110 208 112 198 c 0
 116 184 117 182 122 180 c 1
 125 178 128 178 130 180 c 0
 136 184 144 196 148 206 c 0
 150 210 150 215 157 249 c 0
 160 270 164 288 164 288 c 1
 164 288 160 286 156 285 c 0
 139 280 128 278 116 278 c 0
 104 278 102 278 94 282 c 0
 82 287 76 296 72 306 c 0
 71 310 71 312 71 317 c 0
 71 322 71 324 72 328 c 0
 76 340 86 349 100 352 c 0
EndSplineSet
EndChar
StartChar: accidentals.2
Encoding: 57614 57614 43
Width: 137
GlyphClass: 2
Flags: MW
VStem: 0 48<-182 -81.5> 29 19<-159.5 -140 -140 -134.5 -27.5 -17 -17 -8 -8 -6 121 134> 89 19<-121 -116 -116 -83 -83 -83 7 9 9 18 18 48 48 48 135 140 140 144 144 157> 89 49<-121 -32 -83 -32 -49.5 9 -49.5 48>
Fore
95 186 m 1x20
 100 189 106 186 108 182 c 1
 108 144 l 2x20
 108 126 108 110 109 110 c 1
 117 113 l 2
 121 114 126 116 127 116 c 0
 131 117 135 114 136 111 c 1
 138 109 138 107 138 92 c 0x10
 138 72 138 72 134 69 c 2
 134 68 129 66 121 62 c 2
 108 57 l 1
 108 18 l 2x20
 108 -4 108 -22 109 -22 c 1
 117 -18 l 1
 121 -17 126 -15 127 -15 c 0
 131 -14 135 -17 136 -20 c 1
 138 -22 138 -24 138 -40 c 0x10
 138 -59 138 -60 134 -62 c 2
 134 -64 129 -66 121 -70 c 1
 108 -74 l 1
 108 -116 l 1
 108 -160 l 1
 104 -167 94 -168 90 -160 c 1
 90 -159 89 -155 89 -121 c 2
 89 -83 l 1
 68 -92 l 1
 48 -100 l 1xa0
 48 -140 l 1
 48 -182 l 1
 44 -190 33 -190 30 -182 c 0
 29 -180 29 -175 29 -144 c 0x40
 29 -125 29 -109 28 -109 c 1
 20 -112 l 2
 16 -114 12 -116 10 -116 c 0
 6 -116 2 -114 1 -110 c 1
 0 -108 0 -106 0 -91 c 0x80
 0 -72 0 -72 3 -68 c 1
 4 -68 8 -65 16 -62 c 2
 29 -56 l 1
 29 -17 l 2x40
 29 5 29 22 28 22 c 1
 20 19 l 2
 16 18 12 16 10 16 c 1
 6 15 2 18 1 21 c 0
 0 23 0 25 0 40 c 0x80
 0 60 0 60 3 63 c 0
 4 64 8 66 16 70 c 2
 29 75 l 1
 29 116 l 2
 29 152 29 158 30 160 c 0
 33 167 44 168 48 160 c 1
 48 121 l 1
 49 84 l 1
 69 92 l 1
 89 101 l 1x50
 89 140 l 2
 89 174 89 180 90 182 c 0
 91 184 92 186 95 186 c 1x20
89 9 m 1
 89 48 l 1
 68 40 l 1
 48 32 l 1xa0
 48 -8 l 2
 48 -47 48 -48 50 -48 c 1
 70 -39 l 1
 89 -30 l 1x50
 89 9 l 1
EndSplineSet
EndChar
StartChar: accidentals.1
Encoding: 57615 57615 44
Width: 87
GlyphClass: 2
Flags: MW
VStem: 34 20<-130 -124 -124 -100 -100 -100 -30 -7 -7 8 8 31 31 31 101 124 124 131> 34 54<-130 -32 -100 -32 -45 -32 -49 -7 -49 31 86 99.5>
Fore
40 168 m 1x80
 44 170 50 168 52 163 c 1
 54 161 54 159 54 131 c 2
 54 101 l 1x80
 64 108 l 2
 74 116 76 117 80 116 c 1
 82 116 86 114 86 111 c 2
 88 109 88 108 88 91 c 0x40
 88 74 88 74 86 72 c 2
 86 70 83 68 70 58 c 2
 54 46 l 1
 54 8 l 1
 54 -30 l 1x80
 64 -23 l 2
 74 -15 76 -14 80 -15 c 1
 82 -16 86 -18 86 -20 c 2
 88 -22 88 -24 88 -40 c 0x40
 88 -58 88 -58 86 -60 c 2
 86 -62 83 -64 70 -74 c 2
 54 -86 l 1
 54 -124 l 2
 54 -156 54 -161 52 -162 c 1
 50 -170 38 -170 35 -162 c 1
 34 -161 34 -159 34 -130 c 2
 34 -100 l 1x80
 24 -108 l 2
 14 -116 12 -116 8 -116 c 0
 6 -116 2 -113 1 -110 c 0
 0 -108 0 -107 0 -90 c 0
 0 -74 0 -73 1 -71 c 0
 2 -69 4 -67 18 -57 c 2
 34 -45 l 1x40
 34 -7 l 1
 34 31 l 1x80
 24 24 l 2
 14 16 12 15 8 16 c 1
 6 16 2 18 1 21 c 0
 0 23 0 24 0 41 c 0
 0 58 0 58 1 60 c 0
 2 62 4 64 18 74 c 2
 34 86 l 1x40
 34 124 l 2
 34 156 34 161 35 162 c 2
 36 165 38 166 40 168 c 1x80
EndSplineSet
EndChar
StartChar: accidentals.3
Encoding: 57616 57616 45
Width: 200
GlyphClass: 2
Flags: MW
HStem: -72 21G<166.5 167.5>
VStem: 34 20<-144 -142 -142 -110 -110 -110 -53 -18 -18 -13 -13 22 22 22 78 112 112 116> 90 20<-130 -128 -128 -94 -94 -94 -16 -2 -2 3 3 38 38 38 113 128 128 145.5> 147 19<-115 -112 -153 -78 -22 14 14 19 110 142 142 145 145 158.5>
Fore
153 186 m 1
 158 189 164 186 166 182 c 1
 166 145 l 1
 166 110 l 1
 178 114 l 1
 184 115 190 116 191 116 c 0
 194 116 198 114 200 111 c 1
 200 92 l 1
 200 72 l 1
 199 70 198 68 196 68 c 1
 194 66 168 59 167 59 c 0
 166 59 166 41 166 19 c 2
 166 -22 l 1
 178 -18 l 2
 184 -16 190 -15 191 -15 c 0
 194 -15 198 -18 200 -20 c 1
 200 -40 l 1
 200 -60 l 1
 199 -62 198 -64 196 -64 c 1
 194 -65 168 -72 167 -72 c 0
 166 -72 166 -90 166 -112 c 2
 166 -153 l 1
 162 -160 152 -161 148 -154 c 1
 148 -152 147 -148 147 -115 c 2
 147 -78 l 1
 128 -84 l 1
 110 -88 l 1
 110 -128 l 2
 110 -162 110 -166 109 -168 c 0
 105 -175 95 -174 92 -167 c 1
 90 -166 90 -163 90 -130 c 2
 90 -94 l 1
 89 -94 81 -96 71 -100 c 1
 54 -104 l 1
 54 -142 l 2
 54 -174 54 -180 52 -182 c 1
 50 -190 38 -190 35 -182 c 0
 34 -180 34 -175 34 -144 c 2
 34 -110 l 1
 22 -113 l 2
 16 -114 10 -116 10 -116 c 1
 6 -116 2 -114 1 -110 c 1
 0 -108 0 -106 0 -91 c 0
 0 -76 0 -73 1 -72 c 1
 2 -70 3 -68 5 -67 c 2
 6 -66 33 -58 34 -58 c 1
 34 -18 l 1
 34 22 l 1
 22 18 l 1
 10 16 l 2
 6 16 2 18 1 22 c 2
 0 23 0 25 0 40 c 0
 0 55 0 58 1 60 c 0
 2 62 3 64 5 64 c 1
 6 66 33 73 34 73 c 1
 34 112 l 2
 34 146 34 152 35 153 c 1
 38 160 48 161 52 154 c 0
 53 152 54 148 54 116 c 2
 54 78 l 1
 72 84 l 1
 90 89 l 1
 90 128 l 2
 90 163 91 167 92 168 c 1
 96 176 106 175 109 168 c 0
 110 166 110 164 110 130 c 0
 110 96 110 94 111 94 c 1
 112 95 120 97 130 100 c 2
 147 104 l 1
 147 142 l 2
 147 175 147 180 148 182 c 0
 149 184 150 186 153 186 c 1
147 14 m 1
 147 54 l 1
 147 54 138 51 128 48 c 2
 110 43 l 1
 110 3 l 2
 110 -35 110 -37 111 -37 c 1
 112 -36 120 -34 130 -32 c 2
 147 -27 l 1
 147 14 l 1
90 -2 m 1
 90 38 l 1
 72 32 l 1
 54 28 l 1
 54 -13 l 1
 54 -53 l 1
 57 -52 l 1
 58 -52 67 -49 76 -47 c 2
 90 -42 l 1
 90 -2 l 1
EndSplineSet
EndChar
StartChar: accidentals.0
Encoding: 57617 57617 46
Width: 83
GlyphClass: 2
Flags: MW
VStem: -4 26<178 188 171.5 188> -2 23 62 25<-188 -178 -188 -175 -188 -129> 64 21<-48 -34>
Fore
3 190 m 2x40
 8 192 14 191 19 189 c 2
 22 188 l 1
 22 175 l 2x80
 22 168 22 147 21 129 c 0
 20 111 20 96 20 96 c 1
 21 96 33 98 48 101 c 0
 66 104 75 106 76 106 c 0
 79 106 81 104 82 101 c 1
 84 99 l 1
 85 -34 l 2x50
 86 -108 87 -172 87 -178 c 2
 87 -188 l 1x20
 84 -189 l 1
 78 -192 71 -192 64 -189 c 2x10
 62 -188 l 1
 62 -175 l 1
 62 -129 l 2
 63 -111 63 -96 63 -96 c 1
 62 -96 50 -98 36 -101 c 0
 18 -104 8 -106 8 -106 c 2
 4 -106 2 -104 1 -101 c 2
 0 -98 l 1
 -2 34 l 2x60
 -2 108 -4 172 -4 178 c 2
 -4 188 l 1x80
 -2 188 l 1
 0 189 2 190 3 190 c 2x40
65 55 m 0
 65 56 65 56 64 56 c 2
 20 48 l 1
 20 47 18 -56 18 -56 c 1
 19 -56 63 -48 64 -48 c 1x10
 64 -47 65 33 65 55 c 0
EndSplineSet
EndChar
StartChar: accidentals.M2
Encoding: 57618 57618 47
Width: 100
GlyphClass: 2
Flags: MW
VStem: -10 20<56 68 56 56>
Fore
-6 232 m 1
 0 232 7 232 12 230 c 1
 14 228 l 1
 14 228 11 86 10 68 c 2
 10 56 l 1
 13 58 l 2
 24 66 38 72 52 73 c 0
 66 74 76 70 84 60 c 1
 89 56 92 52 94 46 c 1
 102 31 102 14 95 0 c 0
 92 -7 87 -13 80 -20 c 0
 73 -27 66 -32 50 -44 c 0
 28 -60 26 -63 20 -70 c 0
 17 -74 14 -77 14 -78 c 1
 11 -80 7 -82 4 -82 c 0
 2 -82 -2 -80 -4 -77 c 1
 -8 -74 -8 -83 -10 67 c 0
 -12 142 -13 210 -14 216 c 1
 -14 228 l 1
 -11 230 l 1
 -10 230 -8 231 -6 232 c 1
48 50 m 2
 46 52 44 52 41 52 c 0
 36 52 34 52 30 50 c 0
 22 46 16 36 15 26 c 0
 15 24 14 12 14 -1 c 0
 14 -23 14 -36 16 -47 c 1
 16 -50 l 1
 22 -45 l 2
 30 -38 42 -27 46 -21 c 0
 52 -12 58 -2 60 6 c 0
 61 10 61 12 61 19 c 0
 61 26 61 28 60 32 c 0
 58 42 54 47 48 50 c 2
EndSplineSet
EndChar
StartChar: accidentals.M1
Encoding: 57619 57619 48
Width: 100
GlyphClass: 2
Flags: MW
VStem: 70 22<-72 -47> 74 22
Fore
78 231 m 1x40
 84 232 92 232 96 230 c 0
 98 229 98 228 98 228 c 1
 98 228 97 161 96 79 c 0x40
 93 -46 92 -70 92 -72 c 1x80
 90 -80 82 -84 76 -80 c 0
 72 -78 70 -77 66 -70 c 1
 60 -63 57 -60 35 -44 c 0
 18 -32 12 -27 5 -20 c 0
 -2 -13 -6 -7 -10 0 c 0
 -16 14 -16 31 -10 46 c 0
 -7 52 -4 56 0 60 c 0
 10 70 20 74 32 73 c 0
 47 72 62 66 72 58 c 2
 74 56 l 1
 74 68 l 2
 74 86 71 228 71 228 c 1
 72 229 76 230 78 231 c 1x40
54 50 m 0
 50 52 50 52 46 52 c 0
 36 52 29 46 25 32 c 0
 24 28 24 26 24 19 c 0
 24 12 24 10 25 6 c 0
 27 -2 32 -12 39 -21 c 0
 44 -27 54 -38 63 -45 c 2
 70 -50 l 1
 70 -47 l 2
 71 -36 71 -23 71 -1 c 0
 70 12 70 24 70 26 c 0x80
 69 34 64 42 60 46 c 1
 58 47 56 49 54 50 c 0
EndSplineSet
EndChar
StartChar: accidentals.M4
Encoding: 57620 57620 49
Width: 181
GlyphClass: 2
Flags: MW
VStem: -10 20<-42 28 -42 -42 56 68 56 56> 69 23 73 23
Fore
-6 232 m 1xa0
 0 232 7 232 12 230 c 1
 14 228 l 1
 14 228 11 87 10 68 c 2
 10 56 l 1
 14 60 l 2
 24 69 35 74 48 73 c 0
 55 72 62 70 68 66 c 1
 71 63 l 1
 71 63 70 100 69 144 c 0
 68 188 68 224 68 226 c 2
 68 228 l 1
 70 230 l 1
 76 232 82 232 88 231 c 1
 90 230 94 229 95 228 c 1
 95 228 92 86 92 68 c 2
 92 56 l 1xc0
 94 58 l 2
 102 66 116 71 128 72 c 0
 138 74 146 72 156 68 c 0
 173 59 184 36 180 14 c 0
 178 2 172 -8 161 -20 c 0
 154 -28 147 -33 130 -45 c 2
 106 -63 l 1
 106 -64 103 -68 100 -70 c 1
 98 -74 96 -77 94 -78 c 2
 92 -80 88 -82 86 -82 c 0
 82 -82 78 -80 76 -77 c 0
 74 -74 74 -73 73 -44 c 0
 72 -29 72 -16 72 -16 c 1
 70 -20 l 1
 65 -25 57 -32 42 -46 c 0
 24 -62 22 -64 18 -70 c 0
 16 -73 14 -76 13 -78 c 1
 11 -80 7 -82 4 -82 c 0
 2 -82 -2 -80 -4 -77 c 1
 -8 -74 -8 -83 -10 67 c 0
 -12 142 -13 210 -14 216 c 1
 -14 228 l 1
 -11 230 l 1
 -10 230 -8 231 -6 232 c 1xa0
36 50 m 0
 32 53 24 52 20 48 c 1
 16 45 12 36 10 28 c 1
 10 -42 l 1
 11 -46 12 -50 12 -51 c 0
 12 -52 14 -50 17 -46 c 0
 32 -29 40 -14 44 4 c 2
 46 8 46 11 46 20 c 0
 46 26 46 32 45 34 c 2
 44 42 40 48 36 50 c 0
127 50 m 1
 122 53 114 52 108 48 c 0
 103 45 99 38 97 31 c 0
 96 28 96 26 96 4 c 0
 95 -20 95 -33 96 -47 c 2
 96 -50 l 1xa0
 100 -48 l 1
 112 -37 122 -26 128 -18 c 0
 133 -10 136 -4 138 6 c 2
 140 10 140 11 140 20 c 0
 140 28 140 28 138 34 c 0
 136 42 132 48 127 50 c 1
EndSplineSet
EndChar
StartChar: accidentals.M3
Encoding: 57621 57621 50
Width: 181
GlyphClass: 2
Flags: MW
VStem: -14 28<225.5 227> -12 24<125 125.5> -9 19 68 26<58 66> 70 22<94 108> 73 23
Fore
-6 232 m 1x80
 0 232 6 232 11 230 c 1
 14 228 l 1
 14 217 l 2x80
 13 192 12 126 12 125 c 1
 12 125 68 156 69 157 c 1
 69 158 68 172 68 191 c 2
 68 226 l 2x50
 68 228 68 228 70 230 c 1
 78 233 85 233 92 230 c 1x08
 95 228 l 1
 95 218 l 1
 94 212 94 199 94 189 c 2
 94 172 l 1
 113 182 l 2
 130 192 132 194 135 194 c 0
 140 194 144 192 148 188 c 1
 148 182 l 2
 148 178 148 176 146 173 c 0
 145 172 135 166 119 157 c 2
 94 142 l 1x10
 93 140 93 126 92 108 c 2
 92 66 l 1
 92 56 l 1x08
 94 58 l 2
 102 66 116 71 128 72 c 0
 138 74 146 72 156 68 c 0
 173 59 184 36 180 14 c 0
 178 2 172 -8 161 -20 c 0
 154 -28 147 -33 130 -45 c 2
 106 -63 l 1
 106 -64 103 -68 100 -70 c 1
 98 -74 96 -77 94 -78 c 2x10
 92 -80 88 -82 86 -82 c 0
 82 -82 78 -80 76 -77 c 0
 74 -74 74 -73 73 -44 c 0x04
 72 -29 72 -16 72 -16 c 1
 70 -20 l 1
 65 -25 57 -32 42 -46 c 0
 24 -62 22 -64 18 -70 c 0
 16 -73 14 -76 13 -78 c 1
 11 -80 7 -82 4 -82 c 0
 2 -82 -2 -80 -4 -77 c 1
 -8 -74 -8 -78 -9 4 c 0x28
 -10 46 -10 80 -10 81 c 2
 -10 83 l 1
 -33 70 l 2
 -50 60 -56 57 -58 56 c 1
 -63 56 -68 58 -70 62 c 0
 -72 65 -72 66 -72 69 c 0
 -72 72 -72 73 -71 75 c 1
 -70 76 -69 78 -68 78 c 1
 -68 79 -55 86 -40 95 c 0
 -24 104 -12 111 -12 112 c 2
 -12 168 l 2x40
 -13 198 -14 225 -14 226 c 0
 -14 228 -14 228 -11 230 c 1
 -10 230 -8 231 -6 232 c 1x80
70 126 m 2x08
 70 128 70 128 69 128 c 1
 40 112 l 1
 12 96 l 1
 12 93 l 2x48
 12 92 11 83 11 74 c 2
 10 56 l 1x20
 14 60 l 2
 24 69 35 74 48 73 c 0
 55 72 62 70 68 66 c 1x90
 71 63 l 1
 71 63 70 77 70 94 c 2
 70 126 l 2x08
36 50 m 0
 32 53 24 52 20 48 c 1
 16 45 12 36 10 28 c 1
 10 -42 l 1x20
 11 -46 12 -50 12 -51 c 0
 12 -52 14 -50 17 -46 c 0
 32 -29 40 -14 44 4 c 2
 46 8 46 11 46 20 c 0
 46 26 46 32 45 34 c 2
 44 42 40 48 36 50 c 0
127 50 m 1
 122 53 114 52 108 48 c 0
 103 45 99 38 97 31 c 0
 96 28 96 26 96 4 c 0
 95 -20 95 -33 96 -47 c 2
 96 -50 l 1x04
 100 -48 l 1
 112 -37 122 -26 128 -18 c 0
 133 -10 136 -4 138 6 c 2
 140 10 140 11 140 20 c 0
 140 28 140 28 138 34 c 0
 136 42 132 48 127 50 c 1
EndSplineSet
EndChar
StartChar: accidentals.4
Encoding: 57622 57622 51
Width: 125
GlyphClass: 2
Flags: MW
HStem: 13.9573 51.0427
VStem: 76 49<-54.5 -16 -17 0> 76 54<-66 -43>
Fore
-3 66 m 1xa0
 -2 67 -2 68 -1 68 c 0
 0 68 10 66 22 65 c 0
 37 64 45 62 46 62 c 1
 48 61 49 59 49 50 c 0
 50 36 54 24 60 16 c 1
 62 14 l 1
 64 16 l 2
 72 24 76 36 76 50 c 0xc0
 76 59 76 61 79 62 c 1
 81 64 126 68 128 67 c 2
 128 67 129 66 130 66 c 1xa0
 130 64 130 63 128 41 c 0
 126 28 125 18 125 16 c 1xc0
 124 14 122 14 116 14 c 0
 100 13 90 10 82 4 c 1
 80 4 78 2 78 2 c 1
 76 0 l 1xa0
 78 -2 l 1
 78 -2 80 -4 82 -4 c 1
 90 -10 98 -12 114 -14 c 0
 122 -14 124 -14 125 -16 c 1xc0
 125 -18 126 -28 128 -41 c 0
 130 -63 130 -64 130 -66 c 1
 129 -66 128 -67 128 -67 c 2
 126 -68 81 -64 79 -62 c 1
 76 -61 76 -59 76 -50 c 0
 76 -36 72 -24 64 -16 c 2
 62 -14 l 1
 60 -16 l 1
 54 -24 50 -36 49 -50 c 0
 49 -59 48 -61 46 -62 c 1
 44 -64 0 -68 -2 -67 c 2
 -3 -67 -4 -66 -4 -66 c 1
 -5 -64 -5 -63 -2 -41 c 0
 -2 -28 0 -18 0 -16 c 1
 1 -14 2 -14 12 -14 c 1
 26 -12 36 -10 44 -4 c 2
 45 -4 47 -2 48 -2 c 1
 48 0 l 1
 48 2 l 1
 47 2 45 4 44 4 c 2
 35 10 25 13 9 14 c 0
 2 14 1 14 0 16 c 1
 0 18 -5 64 -5 64 c 1
 -4 65 -4 66 -3 66 c 1xa0
EndSplineSet
EndChar
StartChar: accidentals.rightparen
Encoding: 57623 57623 52
Width: 75
GlyphClass: 2
Flags: MW
HStem: 112 20G<24.5 26.5>
VStem: 47.8024 26.1976
Fore
22 130 m 1
 22 131 24 132 25 132 c 0
 28 132 30 130 34 122 c 0
 56 88 70 56 74 21 c 0
 75 11 75 -11 74 -20 c 0
 70 -56 56 -88 34 -122 c 0
 30 -130 28 -132 25 -132 c 0
 22 -132 18 -128 18 -125 c 0
 18 -124 20 -122 21 -120 c 0
 38 -94 46 -67 49 -28 c 0
 50 -18 50 18 49 28 c 0
 46 67 38 94 21 120 c 0
 20 122 18 124 18 125 c 0
 18 127 20 130 22 130 c 1
EndSplineSet
EndChar
StartChar: accidentals.leftparen
Encoding: 57624 57624 53
Width: 0
GlyphClass: 2
Flags: MW
VStem: -74.2208 25.2208
Fore
-28 130 m 1
 -25 132 -22 132 -20 128 c 1
 -18 126 -18 124 -21 120 c 0
 -38 94 -46 67 -49 28 c 0
 -50 18 -50 -18 -49 -28 c 0
 -46 -67 -38 -94 -21 -120 c 0
 -20 -122 -18 -124 -18 -125 c 0
 -18 -128 -22 -132 -24 -132 c 0
 -28 -132 -30 -130 -34 -122 c 0
 -56 -88 -70 -56 -74 -20 c 0
 -75 -11 -75 11 -74 21 c 0
 -70 56 -56 88 -34 122 c 0
 -32 126 -29 130 -28 130 c 1
EndSplineSet
EndChar
StartChar: dots.dot
Encoding: 57625 57625 54
Width: 56
GlyphClass: 2
Flags: MW
HStem: -28 56
Fore
23 28 m 0
 26 29 34 28 38 27 c 0
 46 24 52 18 55 10 c 0
 56 6 56 6 56 0 c 0
 56 -5 56 -6 55 -9 c 0
 52 -18 46 -24 37 -26 c 2
 34 -28 32 -28 28 -28 c 0
 24 -28 22 -28 20 -26 c 2
 10 -24 5 -18 2 -9 c 1
 0 -6 0 -5 0 0 c 0
 0 5 0 6 2 9 c 1
 2 13 6 18 8 20 c 0
 11 24 18 27 23 28 c 0
EndSplineSet
EndChar
StartChar: noteheads.sM1
Encoding: 57626 57626 55
Width: 247
GlyphClass: 2
Flags: MW
HStem: -69 138<-9 -9>
VStem: -20 25<-60 -40 -60 1 40 60> 242 26<-40 -20 -20 -20 20 40 40 40>
Fore
-12 68 m 0
 -11 68 -9 69 -8 69 c 0
 -3 69 1 66 4 62 c 1
 5 60 l 1
 5 40 l 1
 6 20 l 1
 8 24 l 2
 20 42 47 58 79 64 c 0
 108 70 140 70 168 64 c 0
 200 58 228 42 240 24 c 2
 242 20 l 1
 242 40 l 1
 243 60 l 1
 244 62 l 2
 247 67 252 70 256 69 c 0
 262 68 266 65 268 60 c 1
 268 0 l 1
 268 -60 l 1
 264 -70 250 -72 244 -62 c 2
 243 -60 l 1
 242 -40 l 1
 242 -20 l 1
 240 -24 l 2
 228 -42 200 -58 168 -64 c 0
 140 -70 108 -70 79 -64 c 0
 47 -58 20 -42 8 -24 c 2
 6 -20 l 1
 5 -40 l 1
 5 -60 l 1
 4 -62 l 1
 0 -67 -4 -70 -9 -69 c 0
 -14 -68 -18 -64 -20 -60 c 1
 -20 1 l 1
 -20 60 l 1
 -19 62 l 1
 -18 66 -15 68 -12 68 c 0
120 54 m 0
 114 56 104 56 100 56 c 1
 92 54 84 48 80 41 c 0
 73 30 71 10 76 -7 c 0
 82 -31 102 -49 129 -55 c 0
 135 -56 146 -56 150 -55 c 0
 160 -52 167 -44 171 -34 c 0
 175 -23 176 -8 172 7 c 0
 166 30 146 48 120 54 c 0
EndSplineSet
EndChar
StartChar: noteheads.s0
Encoding: 57627 57627 56
Width: 247
GlyphClass: 2
Flags: MW
HStem: 56 12
VStem: 0 247<-5 5>
Fore
107 68 m 0
 128 70 150 68 168 64 c 0
 200 58 228 42 240 24 c 0
 246 16 247 10 247 0 c 0
 247 -10 246 -16 240 -24 c 0
 228 -42 200 -58 168 -64 c 0
 140 -70 108 -70 79 -64 c 0
 47 -58 20 -42 8 -24 c 0
 2 -16 0 -10 0 0 c 0
 0 10 2 16 8 24 c 0
 24 48 62 66 107 68 c 0
120 54 m 0
 114 56 104 56 100 56 c 1
 92 54 84 48 80 41 c 0
 73 30 71 10 76 -7 c 0
 82 -31 102 -49 129 -55 c 0
 135 -56 146 -56 150 -55 c 0
 160 -52 167 -44 171 -34 c 0
 175 -23 176 -8 172 7 c 0
 166 30 146 48 120 54 c 0
EndSplineSet
EndChar
StartChar: noteheads.s1
Encoding: 57628 57628 57
Width: 173
GlyphClass: 2
Flags: MW
HStem: 52 16
VStem: 2 170<-44 44>
Fore
116 68 m 2
 134 68 l 2
 142 68 144 68 148 67 c 0
 155 65 160 62 164 58 c 0
 168 54 170 50 172 44 c 0
 174 38 174 27 172 19 c 0
 167 -4 158 -23 146 -36 c 0
 130 -52 100 -63 68 -66 c 0
 35 -70 20 -68 10 -58 c 0
 6 -54 4 -50 2 -44 c 0
 0 -38 0 -27 2 -19 c 0
 6 4 16 23 28 35 c 0
 34 42 40 46 52 52 c 0
 70 60 89 66 116 68 c 2
142 52 m 0
 135 54 128 52 114 45 c 0
 103 40 86 30 61 12 c 0
 34 -4 22 -15 18 -22 c 1
 16 -29 15 -36 18 -42 c 0
 23 -52 34 -56 46 -52 c 0
 58 -47 78 -36 112 -12 c 0
 139 4 151 15 155 22 c 0
 158 29 158 36 156 42 c 1
 152 48 148 50 142 52 c 0
EndSplineSet
EndChar
StartChar: noteheads.s2
Encoding: 57629 57629 58
Width: 163
GlyphClass: 2
Flags: HMW
VStem: 0.656854 163
Fore
99.6572 68 m 0
 105.657 69 119.657 68 124.657 68 c 1
 144.657 63 157.657 52 162.657 36 c 0
 163.657 30 163.657 18 163.657 12 c 1
 158.657 -8 144.657 -28 124.657 -44 c 0
 107.657 -56 87.6572 -64 69.6572 -68 c 0
 61.6572 -69 46.6572 -69 40.6572 -68 c 0
 19.6572 -64 5.65723 -52 1.65723 -35 c 1
 -0.342773 -30 -0.342773 -18 0.657227 -12 c 0
 5.65723 8 19.6572 28 39.6572 44 c 0
 57.6572 58 78.6572 66 99.6572 68 c 0
EndSplineSet
EndChar
StartChar: noteheads.s0diamond
Encoding: 57630 57630 59
Width: 247
GlyphClass: 2
Flags: W
Fore
117 68 m 2
 120 69 130 68 134 68 c 1
 138 66 145 63 150 60 c 1
 152 58 158 54 163 50 c 0
 186 32 188 31 214 26 c 0
 234 22 242 18 246 10 c 1
 247 6 248 6 248 0 c 0
 248 -6 247 -6 246 -10 c 1
 242 -18 234 -22 214 -26 c 0
 188 -31 186 -32 163 -50 c 0
 153 -58 148 -62 142 -64 c 2
 134 -68 132 -68 124 -68 c 0
 116 -68 113 -68 106 -64 c 2
 100 -62 94 -58 84 -50 c 0
 62 -32 60 -31 34 -26 c 0
 13 -22 6 -18 2 -10 c 0
 0 -6 0 -6 0 0 c 0
 0 6 0 6 2 10 c 0
 6 18 13 22 34 26 c 0
 60 31 62 32 84 50 c 0
 100 62 108 67 117 68 c 2
115 36 m 1
 110 38 104 38 101 37 c 0
 96 35 94 30 92 14 c 0
 91 -6 92 -15 98 -21 c 0
 102 -25 109 -29 122 -33 c 0
 149 -42 154 -39 155 -14 c 0
 156 6 155 15 150 21 c 0
 145 26 133 32 115 36 c 1
EndSplineSet
EndChar
StartChar: noteheads.s1diamond
Encoding: 57631 57631 60
Width: 182
GlyphClass: 2
Flags: MW
VStem: 1 181
Fore
154 68 m 0
 159 70 166 69 169 68 c 0
 176 65 182 57 182 50 c 0
 182 44 180 38 172 25 c 0
 168 20 166 16 164 14 c 1
 160 6 159 0 158 -15 c 0
 157 -28 156 -34 154 -40 c 1
 150 -46 142 -52 133 -54 c 0
 126 -56 114 -56 100 -54 c 0
 88 -52 78 -52 73 -53 c 0
 67 -54 60 -56 46 -62 c 0
 32 -68 28 -68 22 -68 c 0
 14 -68 11 -68 7 -64 c 0
 0 -58 -2 -50 1 -43 c 1
 2 -38 4 -34 10 -25 c 0
 14 -20 16 -16 18 -14 c 1
 22 -6 23 0 24 16 c 0
 25 28 26 34 28 40 c 1
 32 46 40 52 50 54 c 0
 56 56 68 56 82 54 c 0
 94 52 104 52 109 53 c 0
 115 54 122 56 135 61 c 0
 146 66 150 67 154 68 c 0
139 38 m 1
 136 40 130 41 126 40 c 0
 117 37 103 30 76 11 c 0
 46 -8 37 -17 36 -26 c 0
 36 -34 41 -40 49 -40 c 0
 58 -41 72 -34 106 -11 c 0
 129 4 141 14 144 20 c 0
 148 28 146 36 139 38 c 1
EndSplineSet
EndChar
StartChar: noteheads.s2diamond
Encoding: 57632 57632 61
Width: 184
GlyphClass: 2
Flags: MW
VStem: 0 184<-52 52>
Fore
159 68 m 0
 161 68 164 69 166 69 c 0
 174 68 178 66 182 58 c 0
 184 54 184 54 184 50 c 0
 184 46 184 46 182 42 c 0
 180 36 177 33 162 20 c 0
 144 4 142 1 130 -26 c 0
 122 -44 118 -52 111 -59 c 0
 104 -66 100 -68 92 -68 c 0
 88 -68 83 -68 72 -66 c 0
 55 -62 52 -62 36 -66 c 0
 26 -68 24 -68 20 -68 c 2
 11 -68 l 1
 8 -66 4 -62 2 -58 c 0
 0 -54 0 -54 0 -50 c 0
 0 -46 0 -46 2 -42 c 0
 5 -36 8 -33 22 -20 c 0
 41 -4 43 -1 54 26 c 0
 62 44 66 52 74 59 c 1
 80 66 85 68 92 68 c 0
 96 68 102 68 112 66 c 0
 129 62 133 62 147 66 c 2
 152 66 157 68 159 68 c 0
EndSplineSet
EndChar
StartChar: noteheads.s0triangle
Encoding: 57633 57633 62
Width: 289
GlyphClass: 2
Flags: MW
HStem: -110 201
Fore
14 91 m 0
 22 92 21 93 38 84 c 0
 81 64 121 50 166 41 c 0
 198 34 225 32 261 30 c 0
 276 30 278 30 280 29 c 0
 288 26 291 20 288 14 c 0
 286 10 283 8 270 4 c 0
 240 -4 218 -12 192 -24 c 0
 152 -43 118 -68 85 -100 c 0
 74 -110 74 -110 66 -110 c 0
 55 -109 47 -105 46 -99 c 0
 46 -98 46 -96 47 -93 c 0
 48 -90 48 -86 49 -82 c 0
 56 -35 46 12 20 51 c 0
 15 58 8 67 4 72 c 0
 -1 77 -2 80 0 84 c 0
 2 88 6 90 14 91 c 0
104 28 m 2
 80 36 l 1
 66 41 l 1
 70 34 l 2
 82 8 88 -18 88 -46 c 2
 88 -54 l 1
 94 -49 l 2
 123 -26 156 -6 190 7 c 2
 196 9 l 1
 192 10 l 2
 164 14 132 20 104 28 c 2
EndSplineSet
EndChar
StartChar: noteheads.d1triangle
Encoding: 57634 57634 63
Width: 209
GlyphClass: 2
Flags: MW
VStem: 0 208
Fore
10 82 m 0
 12 83 14 83 16 83 c 1
 20 82 l 1
 29 77 l 2
 58 58 88 46 120 38 c 0
 142 32 162 30 187 29 c 0
 198 28 200 28 202 28 c 1
 208 24 211 18 208 12 c 0
 206 8 203 6 192 2 c 0
 140 -16 97 -46 62 -92 c 0
 58 -97 55 -98 50 -99 c 0
 44 -100 37 -96 34 -92 c 0
 32 -89 32 -87 34 -78 c 0
 36 -68 36 -63 36 -52 c 0
 38 -12 26 26 4 60 c 0
 2 63 0 66 0 68 c 1
 -2 74 2 79 10 82 c 0
66 28 m 0
 62 30 56 32 54 33 c 0
 52 34 51 34 51 34 c 1
 51 34 52 32 52 30 c 1
 60 11 64 -10 66 -34 c 2
 67 -43 l 1
 72 -38 l 2
 90 -22 114 -5 134 6 c 1
 136 6 138 8 138 8 c 1
 138 8 134 8 130 10 c 2
 108 14 87 20 66 28 c 0
EndSplineSet
EndChar
StartChar: noteheads.u1triangle
Encoding: 57635 57635 64
Width: 209
GlyphClass: 2
Flags: MW
VStem: 0 208
Fore
10 82 m 0
 12 83 14 83 16 83 c 1
 20 82 l 1
 29 77 l 2
 58 58 88 46 120 38 c 0
 142 32 162 30 187 29 c 0
 198 28 200 28 202 28 c 1
 208 24 211 18 208 12 c 0
 206 8 203 6 192 2 c 0
 140 -16 97 -46 62 -92 c 0
 58 -97 55 -98 50 -99 c 0
 44 -100 37 -96 34 -92 c 0
 32 -89 32 -87 34 -78 c 0
 36 -68 36 -63 36 -52 c 0
 38 -12 26 26 4 60 c 0
 2 63 0 66 0 68 c 1
 -2 74 2 79 10 82 c 0
66 28 m 0
 62 30 56 32 54 33 c 0
 52 34 51 34 51 34 c 1
 51 34 52 32 52 30 c 1
 60 11 64 -10 66 -34 c 2
 67 -43 l 1
 72 -38 l 2
 90 -22 114 -5 134 6 c 1
 136 6 138 8 138 8 c 1
 138 8 134 8 130 10 c 2
 108 14 87 20 66 28 c 0
EndSplineSet
EndChar
StartChar: noteheads.u2triangle
Encoding: 57636 57636 65
Width: 174
GlyphClass: 2
Flags: MW
HStem: -99 181
VStem: 0 170
Fore
8 82 m 0
 14 84 17 83 26 76 c 0
 50 57 78 44 108 36 c 0
 124 32 145 28 160 28 c 2
 166 28 l 1
 175 24 177 14 170 7 c 0
 168 5 167 4 160 2 c 0
 116 -17 80 -47 54 -88 c 0
 48 -97 45 -100 38 -99 c 0
 34 -98 28 -94 28 -89 c 2
 28 -78 l 2
 34 -34 28 9 10 48 c 0
 8 52 6 57 4 60 c 0
 2 63 0 66 0 68 c 0
 -1 74 2 80 8 82 c 0
EndSplineSet
EndChar
StartChar: noteheads.d2triangle
Encoding: 57637 57637 66
Width: 174
GlyphClass: 2
Flags: MW
HStem: -99 181
VStem: 0 170
Fore
8 82 m 0
 14 84 17 83 26 76 c 0
 50 57 78 44 108 36 c 0
 124 32 145 28 160 28 c 2
 166 28 l 1
 175 24 177 14 170 7 c 0
 168 5 167 4 160 2 c 0
 116 -17 80 -47 54 -88 c 0
 48 -97 45 -100 38 -99 c 0
 34 -98 28 -94 28 -89 c 2
 28 -78 l 2
 34 -34 28 9 10 48 c 0
 8 52 6 57 4 60 c 0
 2 63 0 66 0 68 c 0
 -1 74 2 80 8 82 c 0
EndSplineSet
EndChar
StartChar: noteheads.s0slash
Encoding: 57638 57638 67
Width: 377
GlyphClass: 2
Flags: MW
HStem: -131 35<58.5 130 130 165> 96 36<234.5 248 248 318>
Fore
158 131 m 1
 158 132 203 132 266 132 c 0
 372 132 374 131 376 130 c 1
 376 129 378 126 376 124 c 1
 376 122 222 -130 220 -130 c 1
 220 -131 219 -131 111 -131 c 0
 6 -131 2 -131 2 -130 c 1
 0 -129 0 -126 0 -124 c 1
 1 -124 150 121 155 128 c 0
 156 130 157 130 158 131 c 1
316 92 m 1
 318 96 l 1
 248 96 l 1
 176 96 l 1
 175 94 68 -80 61 -92 c 2
 58 -96 l 1
 130 -96 l 1
 200 -96 l 1
 256 -4 l 1
 316 92 l 1
EndSplineSet
EndChar
StartChar: noteheads.s1slash
Encoding: 57639 57639 68
Width: 293
GlyphClass: 2
Flags: MW
HStem: -131 35<58 88 88 102> 96 36<205 206 176 256 206 234>
Fore
158 131 m 1
 158 132 186 132 224 132 c 0
 288 132 290 131 292 130 c 1
 292 129 294 126 292 124 c 1
 292 122 138 -130 136 -130 c 1
 136 -131 135 -131 69 -131 c 0
 4 -131 2 -131 2 -130 c 1
 0 -129 0 -126 0 -124 c 1
 1 -124 150 121 155 128 c 0
 156 130 157 130 158 131 c 1
232 92 m 1
 234 96 l 1
 206 96 l 1
 176 96 l 1
 175 94 68 -80 61 -92 c 2
 58 -96 l 1
 88 -96 l 1
 116 -96 l 1
 172 -4 l 1
 232 92 l 1
EndSplineSet
EndChar
StartChar: noteheads.s2slash
Encoding: 57640 57640 69
Width: 214
GlyphClass: 2
Flags: MW
HStem: 112 20G<178 198>
VStem: 0 214
Fore
158 131 m 1
 158 132 170 132 186 132 c 0
 210 132 212 131 213 130 c 0
 214 129 215 126 214 124 c 0
 213 122 59 -130 58 -130 c 2
 57 -131 56 -131 30 -131 c 0
 4 -131 2 -131 2 -130 c 1
 0 -129 0 -126 0 -124 c 1
 1 -124 150 121 155 128 c 0
 156 130 157 130 158 131 c 1
EndSplineSet
EndChar
StartChar: noteheads.s0cross
Encoding: 57641 57641 70
Width: 214
GlyphClass: 2
Flags: MW
VStem: 1 213<43 43>
Fore
47 74 m 2
 49 75 52 75 53 74 c 2
 54 74 66 66 81 56 c 2
 108 38 l 1
 134 56 l 2
 148 66 161 74 162 74 c 1
 166 76 166 76 190 60 c 0
 202 52 213 44 214 44 c 1
 215 42 215 36 214 34 c 1
 213 34 202 26 188 17 c 2
 164 0 l 1
 188 -17 l 2
 202 -26 213 -34 214 -34 c 1
 215 -36 215 -42 214 -44 c 1
 213 -44 202 -52 190 -60 c 0
 166 -76 166 -76 162 -74 c 1
 161 -74 148 -66 134 -56 c 2
 108 -38 l 1
 81 -56 l 2
 66 -66 54 -74 53 -74 c 1
 50 -76 49 -76 24 -60 c 0
 12 -52 2 -44 2 -44 c 2
 0 -42 0 -36 2 -34 c 2
 27 -17 l 1
 52 0 l 1
 27 17 l 1
 2 34 l 2
 0 36 0 41 1 43 c 1
 2 44 44 74 47 74 c 2
78 38 m 2
 64 48 52 56 51 57 c 0
 50 58 50 58 36 48 c 0
 29 44 23 39 23 39 c 1
 23 38 34 31 46 22 c 0
 60 13 71 5 72 4 c 1
 73 2 73 -2 72 -4 c 1
 71 -5 60 -13 46 -22 c 0
 34 -31 22 -38 22 -39 c 0
 22 -40 50 -58 50 -58 c 1
 78 -39 l 1
 105 -20 l 1
 108 -20 l 1
 110 -20 l 1
 138 -39 l 1
 165 -58 l 1
 166 -58 192 -40 192 -39 c 0
 192 -38 182 -31 168 -22 c 0
 155 -13 144 -5 144 -4 c 2
 142 -2 142 2 144 4 c 2
 144 5 155 13 168 22 c 0
 182 31 192 38 192 39 c 0
 192 40 166 58 165 58 c 1
 138 39 l 1
 110 21 l 1
 108 21 l 1
 105 21 l 1
 78 38 l 2
EndSplineSet
EndChar
StartChar: noteheads.s1cross
Encoding: 57642 57642 71
Width: 189
GlyphClass: 2
Flags: MW
HStem: -72 144<37 38 38 42 148 152 36 148>
VStem: 1 188<-45 -37 37 45>
Fore
36 72 m 1
 42 72 l 2
 43 72 55 62 69 52 c 2
 95 32 l 1
 121 52 l 2
 136 64 148 72 148 72 c 1
 152 72 l 2
 154 72 188 47 189 45 c 1
 190 44 190 38 189 37 c 0
 188 36 177 28 164 18 c 2
 140 0 l 1
 164 -18 l 2
 177 -28 188 -36 189 -37 c 0
 190 -38 190 -44 189 -45 c 1
 188 -47 154 -72 152 -72 c 2
 148 -72 l 1
 148 -72 136 -64 121 -52 c 2
 95 -32 l 1
 69 -52 l 2
 54 -64 42 -72 42 -72 c 1
 38 -72 l 2
 36 -72 2 -47 1 -45 c 1
 0 -44 0 -38 1 -37 c 0
 2 -36 13 -28 26 -18 c 2
 50 0 l 1
 26 18 l 2
 13 28 2 36 1 37 c 0
 0 38 0 44 1 45 c 0
 2 46 34 70 36 72 c 1
66 35 m 2
 40 54 l 1
 39 54 22 42 22 41 c 1
 22 41 32 32 46 23 c 0
 58 14 70 5 70 4 c 1
 71 2 71 -2 70 -4 c 1
 70 -5 58 -14 46 -23 c 0
 32 -32 22 -40 22 -41 c 1
 22 -41 26 -44 30 -48 c 1
 40 -54 l 1
 42 -52 l 1
 69 -33 l 2
 84 -22 92 -16 94 -16 c 2
 96 -16 l 2
 98 -16 106 -22 122 -33 c 2
 148 -52 l 1
 150 -54 l 1
 160 -48 l 1
 164 -44 168 -41 168 -41 c 1
 168 -40 158 -32 144 -23 c 0
 132 -14 120 -5 120 -4 c 1
 119 -2 119 2 120 4 c 1
 120 5 132 14 144 23 c 0
 158 32 168 40 168 41 c 1
 168 41 164 44 160 48 c 1
 150 54 l 1
 148 52 l 1
 122 33 l 2
 106 22 98 16 96 16 c 2
 94 16 l 2
 92 16 83 22 66 35 c 2
EndSplineSet
EndChar
StartChar: noteheads.s2cross
Encoding: 57643 57643 72
Width: 164
GlyphClass: 2
Flags: MW
HStem: -68 136<15 16 16 22 15 144 144 150>
VStem: 0 165<-54.5 -51.5 51.5 54.5>
Fore
15 68 m 2
 17 70 20 69 22 68 c 1
 53 42 l 1
 82 18 l 1
 112 42 l 2
 128 56 142 68 144 68 c 1
 146 69 148 70 150 68 c 1
 150 68 154 66 158 63 c 0
 164 58 165 56 165 53 c 0
 165 50 164 49 134 24 c 2
 105 0 l 1
 134 -24 l 2
 164 -49 165 -50 165 -53 c 0
 165 -56 164 -58 158 -63 c 0
 154 -66 150 -68 150 -68 c 1
 148 -70 146 -69 144 -68 c 1
 142 -68 128 -56 112 -42 c 2
 82 -18 l 1
 53 -42 l 1
 22 -68 l 1
 20 -69 18 -70 16 -68 c 1
 14 -68 11 -66 8 -63 c 0
 1 -58 0 -56 0 -53 c 0
 0 -50 0 -49 30 -24 c 2
 60 0 l 1
 30 24 l 2
 0 49 0 50 0 53 c 0
 0 56 1 58 8 63 c 0
 11 66 14 68 15 68 c 2
EndSplineSet
EndChar
StartChar: noteheads.s2xcircle
Encoding: 57644 57644 73
Width: 195
GlyphClass: 2
Flags: MW
HStem: 68 18
VStem: 176 19<-5 0 0 5 -5 13 -5 13>
Fore
90 86 m 1
 114 86 l 1
 136 82 156 72 172 57 c 0
 180 48 188 36 192 24 c 0
 194 16 195 10 195 0 c 0
 195 -10 194 -16 192 -24 c 0
 188 -36 180 -48 172 -57 c 0
 158 -70 143 -78 125 -83 c 0
 114 -86 110 -86 98 -86 c 0
 86 -86 81 -86 71 -83 c 0
 52 -78 37 -70 24 -57 c 0
 21 -54 17 -49 16 -46 c 2
 8 -37 3 -24 1 -14 c 0
 0 -7 0 7 1 14 c 0
 3 24 8 37 16 46 c 2
 22 56 34 67 46 73 c 0
 56 79 72 84 83 86 c 1
 90 86 l 1
108 68 m 1
 94 69 79 67 67 62 c 2
 62 61 53 56 51 55 c 1
 50 54 52 52 74 34 c 0
 86 22 98 13 98 13 c 1
 122 34 l 2
 144 52 146 54 144 55 c 0
 142 56 133 61 128 62 c 2
 123 64 114 66 108 68 c 1
60 21 m 1
 36 42 l 1
 35 42 28 32 26 28 c 0
 23 23 22 19 20 13 c 0
 18 6 18 -6 20 -13 c 0
 22 -19 23 -23 26 -28 c 0
 28 -32 35 -42 36 -42 c 1
 84 0 l 1
 60 21 l 1
164 37 m 0
 162 40 160 42 160 42 c 1
 112 0 l 1
 160 -42 l 1
 160 -42 168 -32 170 -28 c 0
 172 -23 174 -19 176 -13 c 1
 176 0 l 1
 176 13 l 1
 173 22 170 30 164 37 c 0
122 -34 m 0
 110 -22 98 -13 98 -13 c 1
 98 -12 90 -20 74 -34 c 0
 52 -52 50 -54 51 -55 c 1
 52 -55 54 -56 57 -58 c 0
 82 -72 113 -72 138 -58 c 2
 144 -55 l 2
 146 -54 144 -52 122 -34 c 0
EndSplineSet
EndChar
StartChar: noteheads.s0do
Encoding: 57645 57645 74
Width: 247
GlyphClass: 2
Flags: MW
HStem: -68 136<7 130 120 130 120 239>
Fore
120 68 m 1
 122 70 128 68 130 68 c 1
 132 66 244 -47 246 -50 c 0
 247 -52 248 -54 248 -56 c 0
 248 -60 247 -60 246 -62 c 0
 244 -66 242 -68 239 -68 c 2
 236 -70 11 -70 8 -68 c 2
 6 -68 3 -66 2 -62 c 2
 0 -60 0 -60 0 -56 c 0
 0 -54 0 -52 2 -50 c 1
 2 -48 20 -30 59 9 c 0
 114 64 116 67 120 68 c 1
186 -26 m 1
 146 15 l 1
 124 38 l 1
 93 7 l 2
 76 -10 58 -28 53 -34 c 2
 44 -44 l 1
 124 -44 l 1
 204 -44 l 1
 186 -26 l 1
EndSplineSet
EndChar
StartChar: noteheads.d1do
Encoding: 57646 57646 75
Width: 206
GlyphClass: 2
Flags: MW
HStem: -68 136<98 98 98 198>
Fore
98 68 m 2
 103 70 108 69 112 66 c 1
 115 62 204 -48 205 -51 c 0
 206 -54 206 -54 206 -57 c 0
 206 -62 203 -66 198 -68 c 1
 196 -70 11 -70 8 -68 c 0
 4 -66 0 -62 0 -57 c 0
 0 -54 0 -54 2 -51 c 2
 3 -48 92 62 94 66 c 1
 96 66 98 68 98 68 c 2
136 -5 m 2
 119 16 105 34 104 34 c 1
 104 36 l 1
 72 -4 l 1
 40 -43 l 1
 72 -44 l 1
 136 -44 l 1
 167 -43 l 1
 136 -5 l 2
EndSplineSet
EndChar
StartChar: noteheads.s1do
Encoding: 57647 57647 76
Width: 206
GlyphClass: 2
Flags: MW
HStem: -68 136<98 98 98 198>
Fore
98 68 m 2
 103 70 108 69 112 66 c 1
 115 62 204 -48 205 -51 c 0
 206 -54 206 -54 206 -57 c 0
 206 -62 203 -66 198 -68 c 1
 196 -70 11 -70 8 -68 c 0
 4 -66 0 -62 0 -57 c 0
 0 -54 0 -54 2 -51 c 2
 3 -48 92 62 94 66 c 1
 96 66 98 68 98 68 c 2
136 -5 m 2
 119 16 105 34 104 34 c 1
 104 36 l 1
 72 -4 l 1
 40 -43 l 1
 72 -44 l 1
 136 -44 l 1
 167 -43 l 1
 136 -5 l 2
EndSplineSet
EndChar
StartChar: noteheads.d2do
Encoding: 57648 57648 77
Width: 213
GlyphClass: 2
Flags: MW
HStem: -68 136<103 112 103 204>
Fore
103 68 m 2
 106 70 110 68 112 68 c 1
 114 66 125 54 162 9 c 0
 192 -26 211 -50 212 -51 c 1
 213 -54 213 -54 213 -57 c 0
 212 -62 210 -66 204 -68 c 1
 202 -70 11 -70 8 -68 c 0
 4 -66 0 -62 0 -57 c 0
 0 -54 0 -54 2 -51 c 2
 3 -48 98 66 100 67 c 2
 101 68 102 68 103 68 c 2
EndSplineSet
EndChar
StartChar: noteheads.s2do
Encoding: 57649 57649 78
Width: 213
GlyphClass: 2
Flags: MW
HStem: -68 136<103 112 103 204>
Fore
103 68 m 2
 106 70 110 68 112 68 c 1
 114 66 125 54 162 9 c 0
 192 -26 211 -50 212 -51 c 1
 213 -54 213 -54 213 -57 c 0
 212 -62 210 -66 204 -68 c 1
 202 -70 11 -70 8 -68 c 0
 4 -66 0 -62 0 -57 c 0
 0 -54 0 -54 2 -51 c 2
 3 -48 98 66 100 67 c 2
 101 68 102 68 103 68 c 2
EndSplineSet
EndChar
StartChar: noteheads.s0re
Encoding: 57650 57650 79
Width: 247
GlyphClass: 2
Flags: MW
VStem: 0 26<36 44 23.5 60> 222 25<25 31 31 36 25 44 25 44>
Fore
8 68 m 2
 11 70 236 70 239 68 c 2
 242 68 244 66 246 62 c 1
 248 60 l 1
 247 36 l 2
 247 14 247 12 246 8 c 0
 242 -14 229 -32 209 -45 c 0
 190 -58 169 -65 142 -68 c 0
 135 -69 112 -69 106 -68 c 0
 78 -65 57 -58 38 -45 c 0
 18 -32 6 -14 2 8 c 2
 0 12 0 14 0 36 c 2
 0 60 l 1
 2 62 l 1
 3 66 6 68 8 68 c 2
222 31 m 1
 222 44 l 1
 124 44 l 1
 26 44 l 1
 26 31 l 2
 26 16 26 12 28 4 c 1
 38 -20 66 -38 106 -42 c 1
 113 -44 134 -44 142 -42 c 0
 187 -37 216 -16 222 14 c 1
 222 31 l 1
EndSplineSet
EndChar
StartChar: noteheads.u1re
Encoding: 57651 57651 80
Width: 206
GlyphClass: 2
Flags: MW
HStem: -68 136<84 104 84 84 104 122>
VStem: 0 26<37 44 22.5 60> 181 25<31 40 40 44 44 44>
Fore
8 68 m 2
 11 70 196 70 198 68 c 2
 201 68 204 66 205 62 c 1
 206 60 l 1
 206 40 l 1
 206 14 l 2
 202 -27 168 -59 122 -68 c 1
 104 -68 l 1
 84 -68 l 1
 45 -60 15 -36 4 -3 c 0
 0 8 0 10 0 37 c 2
 0 60 l 1
 2 62 l 1
 3 66 6 68 8 68 c 2
181 31 m 2
 181 44 l 1
 104 44 l 1
 26 44 l 1
 26 31 l 2
 26 14 27 6 32 -4 c 0
 50 -40 102 -54 142 -34 c 0
 160 -26 172 -12 178 4 c 0
 180 11 181 16 181 31 c 2
EndSplineSet
EndChar
StartChar: noteheads.d1re
Encoding: 57652 57652 81
Width: 206
GlyphClass: 2
Flags: MW
HStem: -68 136<84 104 84 84 104 122>
VStem: 0 26<37 44 22.5 60> 181 25<31 40 40 44 44 44>
Fore
8 68 m 2
 11 70 196 70 198 68 c 2
 201 68 204 66 205 62 c 1
 206 60 l 1
 206 40 l 1
 206 14 l 2
 202 -27 168 -59 122 -68 c 1
 104 -68 l 1
 84 -68 l 1
 45 -60 15 -36 4 -3 c 0
 0 8 0 10 0 37 c 2
 0 60 l 1
 2 62 l 1
 3 66 6 68 8 68 c 2
181 31 m 2
 181 44 l 1
 104 44 l 1
 26 44 l 1
 26 31 l 2
 26 14 27 6 32 -4 c 0
 50 -40 102 -54 142 -34 c 0
 160 -26 172 -12 178 4 c 0
 180 11 181 16 181 31 c 2
EndSplineSet
EndChar
StartChar: noteheads.u2re
Encoding: 57653 57653 82
Width: 213
GlyphClass: 2
Flags: MW
HStem: -68 136<90 124>
Fore
8 68 m 2
 11 70 202 70 204 68 c 2
 208 68 210 66 212 62 c 2
 213 60 l 1
 213 40 l 2
 213 17 212 12 210 2 c 0
 207 -12 200 -25 188 -36 c 0
 172 -53 150 -64 124 -68 c 0
 116 -69 98 -69 90 -68 c 0
 77 -66 62 -62 53 -56 c 1
 23 -42 4 -16 0 14 c 2
 0 40 l 1
 0 60 l 1
 2 62 l 1
 3 66 6 68 8 68 c 2
EndSplineSet
EndChar
StartChar: noteheads.d2re
Encoding: 57654 57654 83
Width: 213
GlyphClass: 2
Flags: MW
HStem: -68 136<90 124>
Fore
8 68 m 2
 11 70 202 70 204 68 c 2
 208 68 210 66 212 62 c 2
 213 60 l 1
 213 40 l 2
 213 17 212 12 210 2 c 0
 207 -12 200 -25 188 -36 c 0
 172 -53 150 -64 124 -68 c 0
 116 -69 98 -69 90 -68 c 0
 77 -66 62 -62 53 -56 c 1
 23 -42 4 -16 0 14 c 2
 0 40 l 1
 0 60 l 1
 2 62 l 1
 3 66 6 68 8 68 c 2
EndSplineSet
EndChar
StartChar: noteheads.s0mi
Encoding: 57655 57655 84
Width: 247
GlyphClass: 2
Flags: MW
VStem: 2 246<-1.5 1.5 -1.5 6 -1.5 6.5>
Fore
106 62 m 0
 120 68 122 69 124 69 c 0
 126 69 128 68 142 62 c 0
 181 42 242 10 244 10 c 1
 244 9 245 7 246 6 c 1
 247 4 248 3 248 0 c 0
 248 -3 247 -4 246 -6 c 1
 245 -7 244 -9 244 -10 c 1
 242 -10 181 -42 142 -62 c 0
 128 -68 126 -69 124 -69 c 0
 122 -69 120 -68 106 -62 c 0
 66 -42 5 -10 4 -10 c 1
 4 -9 2 -7 2 -6 c 2
 0 -2 0 2 2 6 c 2
 2 7 4 9 4 10 c 1
 5 10 66 42 106 62 c 0
184 4 m 1
 143 25 l 1
 116 38 l 1
 82 21 l 1
 48 4 l 1
 48 3 130 -38 131 -38 c 0
 132 -38 199 -4 199 -4 c 1
 184 4 l 1
EndSplineSet
EndChar
StartChar: noteheads.s1mi
Encoding: 57656 57656 85
Width: 220
GlyphClass: 2
Flags: MW
HStem: -68 137<107 110.5 109.5 110.5 109.5 112>
VStem: 0 220<-1.5 1.5>
Fore
106 68 m 0
 107 68 109 69 110 69 c 0
 111 69 113 68 114 68 c 0
 116 68 214 10 216 10 c 1
 216 8 218 7 218 6 c 1
 220 4 220 3 220 0 c 0
 220 -3 220 -4 218 -6 c 1
 218 -7 216 -8 216 -10 c 1
 165 -40 l 2
 128 -60 114 -68 112 -68 c 2
 111 -69 109 -69 108 -68 c 2
 106 -68 92 -60 55 -40 c 2
 4 -10 l 1
 4 -8 2 -7 2 -6 c 1
 0 -4 0 -3 0 0 c 0
 0 3 0 4 2 6 c 1
 2 7 4 8 4 10 c 1
 6 10 104 68 106 68 c 0
166 2 m 1
 130 22 l 1
 104 38 l 1
 74 21 l 1
 44 4 l 1
 80 -17 l 1
 116 -38 l 1
 146 -20 l 1
 176 -4 l 1
 166 2 l 1
EndSplineSet
EndChar
StartChar: noteheads.s2mi
Encoding: 57657 57657 86
Width: 227
GlyphClass: 2
Flags: W
Fore
110 68 m 1
 110 68 112 69 114 69 c 1
 114 69 116 68 118 68 c 0
 120 68 222 10 223 10 c 1
 224 8 224 7 226 6 c 1
 226 4 227 3 227 0 c 0
 227 -3 226 -4 226 -6 c 1
 224 -7 224 -8 223 -10 c 1
 222 -10 198 -24 170 -40 c 0
 134 -59 118 -68 116 -68 c 2
 114 -69 112 -69 111 -68 c 2
 110 -68 92 -59 57 -40 c 2
 4 -10 l 1
 4 -8 2 -7 2 -6 c 1
 0 -4 0 -3 0 0 c 0
 0 3 0 4 2 6 c 1
 2 7 4 8 4 10 c 1
 6 10 107 68 110 68 c 1
EndSplineSet
EndChar
StartChar: noteheads.d0fa
Encoding: 57658 57658 87
Width: 247
GlyphClass: 2
Flags: MW
VStem: 222 26<-18.5 1 1 4 4 44 44 44>
Fore
8 68 m 2
 11 70 236 70 239 68 c 2
 242 68 244 66 246 62 c 1
 248 60 l 1
 248 1 l 2
 248 -38 248 -58 247 -60 c 0
 246 -62 244 -66 242 -68 c 1
 238 -69 234 -70 232 -68 c 1
 228 -68 6 45 4 46 c 1
 2 48 0 52 0 56 c 0
 0 60 0 60 2 62 c 2
 3 66 6 68 8 68 c 2
222 4 m 1
 222 44 l 1
 144 44 l 2
 80 44 66 44 68 43 c 1
 68 42 96 28 129 12 c 2
 206 -27 l 1
 222 -36 l 1
 222 4 l 1
EndSplineSet
EndChar
StartChar: noteheads.u0fa
Encoding: 57659 57659 88
Width: 247
GlyphClass: 2
Flags: MW
VStem: 0 26<-44 -4 -4 0 0 36>
Fore
8 68 m 0
 10 68 12 69 14 69 c 1
 16 68 18 68 30 62 c 0
 132 10 242 -46 243 -46 c 1
 246 -48 248 -52 248 -56 c 0
 248 -60 247 -60 246 -62 c 0
 244 -66 242 -68 239 -68 c 2
 236 -70 11 -70 8 -68 c 2
 6 -68 3 -66 2 -62 c 1
 0 -60 l 1
 0 0 l 1
 0 60 l 1
 2 62 l 1
 3 66 6 68 8 68 c 0
119 -12 m 2
 42 27 l 1
 26 36 l 1
 26 -4 l 1
 26 -44 l 1
 104 -44 l 2
 168 -44 181 -44 180 -43 c 1
 180 -42 152 -28 119 -12 c 2
EndSplineSet
EndChar
StartChar: noteheads.d1fa
Encoding: 57660 57660 89
Width: 206
GlyphClass: 2
Flags: MW
HStem: -68 136
VStem: 181 25<6 44 44 44>
Fore
8 68 m 2
 11 70 196 70 198 68 c 2
 201 68 204 66 205 62 c 1
 206 60 l 1
 206 1 l 1
 206 -60 l 1
 204 -67 196 -71 189 -68 c 0
 186 -66 7 44 4 46 c 0
 2 48 0 52 0 56 c 0
 0 60 0 60 2 62 c 2
 3 66 6 68 8 68 c 2
181 6 m 2
 181 44 l 1
 120 44 l 2
 84 44 58 44 58 43 c 1
 59 42 180 -33 180 -33 c 1
 181 -33 181 -16 181 6 c 2
EndSplineSet
EndChar
StartChar: noteheads.u1fa
Encoding: 57661 57661 90
Width: 206
GlyphClass: 2
Flags: MW
VStem: 0 26<-44 -5 -5 0 0 33>
Fore
8 68 m 1
 12 70 15 69 18 68 c 1
 20 66 200 -44 202 -46 c 0
 205 -48 206 -52 206 -56 c 0
 206 -60 206 -60 205 -62 c 1
 204 -66 201 -68 198 -68 c 2
 196 -70 11 -70 8 -68 c 2
 6 -68 3 -66 2 -62 c 1
 0 -60 l 1
 0 0 l 1
 0 60 l 1
 2 62 l 1
 3 66 6 68 8 68 c 1
87 -5 m 1
 26 33 l 1
 26 -5 l 1
 26 -44 l 1
 87 -44 l 2
 122 -44 148 -44 148 -43 c 1
 87 -5 l 1
EndSplineSet
EndChar
StartChar: noteheads.u2fa
Encoding: 57662 57662 91
Width: 213
GlyphClass: 2
Flags: MW
HStem: -68 136
Fore
8 68 m 2
 11 70 202 70 204 68 c 2
 208 68 210 66 212 62 c 2
 213 60 l 1
 213 1 l 2
 213 -38 213 -58 212 -60 c 0
 210 -67 202 -71 196 -68 c 0
 192 -66 7 44 4 46 c 0
 2 48 0 52 0 56 c 0
 0 60 0 60 2 62 c 2
 3 66 6 68 8 68 c 2
EndSplineSet
EndChar
StartChar: noteheads.d2fa
Encoding: 57663 57663 92
Width: 213
GlyphClass: 2
Flags: W
Fore
8 68 m 1
 12 70 15 69 18 68 c 1
 21 66 206 -44 208 -46 c 1
 212 -48 213 -52 213 -56 c 0
 213 -60 212 -60 212 -62 c 1
 210 -66 208 -68 204 -68 c 2
 202 -70 11 -70 8 -68 c 2
 6 -68 3 -66 2 -62 c 1
 0 -60 l 1
 0 0 l 1
 0 60 l 1
 2 62 l 1
 3 66 6 68 8 68 c 1
EndSplineSet
EndChar
StartChar: noteheads.s0la
Encoding: 57664 57664 93
Width: 247
GlyphClass: 2
Flags: MW
VStem: 0 26<-44 0 -44 0 0 44> 222 26<-44 0 0 44 44 44>
Fore
8 68 m 2
 11 70 236 70 239 68 c 2
 242 68 244 66 246 62 c 1
 248 60 l 1
 248 0 l 1
 248 -60 l 1
 246 -62 l 1
 244 -66 242 -68 239 -68 c 2
 236 -70 11 -70 8 -68 c 2
 6 -68 3 -66 2 -62 c 1
 0 -60 l 1
 0 0 l 1
 0 60 l 1
 2 62 l 1
 3 66 6 68 8 68 c 2
222 0 m 1
 222 44 l 1
 124 44 l 1
 26 44 l 1
 26 0 l 1
 26 -44 l 1
 124 -44 l 1
 222 -44 l 1
 222 0 l 1
EndSplineSet
EndChar
StartChar: noteheads.s1la
Encoding: 57665 57665 94
Width: 206
GlyphClass: 2
Flags: MW
VStem: 0 26<-44 0 -44 0 0 44> 181 25<-44 0 0 44 44 44>
Fore
8 68 m 2
 11 70 196 70 198 68 c 2
 201 68 204 66 205 62 c 1
 206 60 l 1
 206 0 l 1
 206 -60 l 1
 205 -62 l 1
 204 -66 201 -68 198 -68 c 2
 196 -70 11 -70 8 -68 c 2
 6 -68 3 -66 2 -62 c 1
 0 -60 l 1
 0 0 l 1
 0 60 l 1
 2 62 l 1
 3 66 6 68 8 68 c 2
181 0 m 1
 181 44 l 1
 104 44 l 1
 26 44 l 1
 26 0 l 1
 26 -44 l 1
 104 -44 l 1
 181 -44 l 1
 181 0 l 1
EndSplineSet
EndChar
StartChar: noteheads.s2la
Encoding: 57666 57666 95
Width: 213
GlyphClass: 2
Flags: MW
HStem: -68 136<7 204 8 204>
Fore
8 68 m 2
 11 70 202 70 204 68 c 2
 208 68 210 66 212 62 c 2
 213 60 l 1
 213 0 l 1
 213 -60 l 1
 212 -62 l 2
 210 -66 208 -68 204 -68 c 2
 202 -70 11 -70 8 -68 c 2
 6 -68 3 -66 2 -62 c 1
 0 -60 l 1
 0 0 l 1
 0 60 l 1
 2 62 l 1
 3 66 6 68 8 68 c 2
EndSplineSet
EndChar
StartChar: noteheads.s0ti
Encoding: 57667 57667 96
Width: 247
GlyphClass: 2
Flags: MW
HStem: -68 136<118 130>
VStem: 0 247<19 19>
Fore
112 68 m 0
 118 69 140 68 147 68 c 1
 181 63 212 50 238 30 c 0
 244 25 246 22 247 19 c 0
 248 14 247 10 244 6 c 1
 242 5 133 -66 130 -68 c 1
 125 -70 122 -70 118 -68 c 0
 114 -66 6 5 4 6 c 1
 0 10 0 14 0 19 c 1
 2 22 4 25 10 30 c 0
 38 52 73 66 112 68 c 0
136 43 m 0
 104 46 70 38 42 20 c 2
 36 18 35 16 36 16 c 1
 37 15 123 -40 124 -40 c 1
 124 -40 210 15 212 16 c 1
 212 16 211 18 206 20 c 2
 184 34 162 41 136 43 c 0
EndSplineSet
EndChar
StartChar: noteheads.u1ti
Encoding: 57668 57668 97
Width: 206
GlyphClass: 2
Flags: W
Fore
93 68 m 0
 98 69 116 68 123 68 c 1
 152 63 177 50 198 30 c 0
 204 24 206 20 206 16 c 0
 206 13 206 12 205 10 c 0
 204 8 201 6 157 -30 c 0
 128 -52 110 -68 108 -68 c 2
 105 -70 102 -70 98 -68 c 2
 97 -68 78 -52 50 -30 c 0
 6 6 2 8 2 10 c 1
 0 12 0 13 0 16 c 0
 0 20 2 24 9 30 c 0
 32 52 60 66 93 68 c 0
114 43 m 0
 108 44 98 44 92 43 c 0
 76 41 58 35 44 26 c 0
 38 22 32 18 32 17 c 0
 32 16 104 -40 104 -40 c 1
 126 -22 174 16 174 17 c 1
 171 20 l 1
 154 32 134 41 114 43 c 0
EndSplineSet
EndChar
StartChar: noteheads.d1ti
Encoding: 57669 57669 98
Width: 206
GlyphClass: 2
Flags: W
Fore
93 68 m 0
 98 69 116 68 123 68 c 1
 152 63 177 50 198 30 c 0
 204 24 206 20 206 16 c 0
 206 13 206 12 205 10 c 0
 204 8 201 6 157 -30 c 0
 128 -52 110 -68 108 -68 c 2
 105 -70 102 -70 98 -68 c 2
 97 -68 78 -52 50 -30 c 0
 6 6 2 8 2 10 c 1
 0 12 0 13 0 16 c 0
 0 20 2 24 9 30 c 0
 32 52 60 66 93 68 c 0
114 43 m 0
 108 44 98 44 92 43 c 0
 76 41 58 35 44 26 c 0
 38 22 32 18 32 17 c 0
 32 16 104 -40 104 -40 c 1
 126 -22 174 16 174 17 c 1
 171 20 l 1
 154 32 134 41 114 43 c 0
EndSplineSet
EndChar
StartChar: noteheads.u2ti
Encoding: 57670 57670 99
Width: 213
GlyphClass: 2
Flags: MW
HStem: -68 136<101 112>
Fore
96 68 m 0
 102 69 120 68 126 68 c 1
 156 63 184 50 205 28 c 0
 211 22 212 20 213 16 c 1
 213 13 213 12 212 10 c 1
 210 8 208 6 162 -30 c 0
 136 -50 114 -67 112 -68 c 0
 110 -69 104 -69 101 -68 c 1
 100 -67 77 -50 51 -30 c 0
 4 6 2 8 2 10 c 1
 0 12 0 13 0 16 c 0
 0 20 2 22 8 28 c 0
 31 52 62 66 96 68 c 0
EndSplineSet
EndChar
StartChar: noteheads.d2ti
Encoding: 57671 57671 100
Width: 213
GlyphClass: 2
Flags: MW
HStem: -68 136<101 112>
Fore
96 68 m 0
 102 69 120 68 126 68 c 1
 156 63 184 50 205 28 c 0
 211 22 212 20 213 16 c 1
 213 13 213 12 212 10 c 1
 210 8 208 6 162 -30 c 0
 136 -50 114 -67 112 -68 c 0
 110 -69 104 -69 101 -68 c 1
 100 -67 77 -50 51 -30 c 0
 4 6 2 8 2 10 c 1
 0 12 0 13 0 16 c 0
 0 20 2 22 8 28 c 0
 31 52 62 66 96 68 c 0
EndSplineSet
EndChar
StartChar: scripts.ufermata
Encoding: 57672 57672 101
Width: 165
GlyphClass: 2
Flags: MW
HStem: -8 189
Fore
-10 181 m 0
 -6 182 14 181 18 180 c 0
 49 176 76 162 100 138 c 0
 127 110 148 72 160 27 c 0
 164 14 166 0 166 -2 c 0
 165 -8 158 -10 153 -8 c 0
 149 -6 148 -4 146 4 c 0
 138 44 118 76 90 99 c 0
 74 111 56 120 38 126 c 0
 10 134 -21 132 -49 122 c 0
 -56 120 -70 112 -78 108 c 0
 -113 84 -136 48 -146 4 c 0
 -148 -4 -149 -6 -153 -8 c 0
 -157 -10 -162 -8 -164 -6 c 0
 -166 -4 -166 -2 -164 8 c 0
 -156 48 -140 86 -120 114 c 0
 -90 155 -54 177 -10 181 c 0
-8 56 m 0
 7 60 23 53 30 40 c 1
 34 29 34 19 30 8 c 0
 20 -12 -8 -16 -24 0 c 0
 -32 8 -35 20 -32 31 c 0
 -30 44 -20 54 -8 56 c 0
EndSplineSet
EndChar
StartChar: scripts.dfermata
Encoding: 57673 57673 102
Width: 165
GlyphClass: 2
Flags: W
Fore
-8 8 m 0
 7 12 23 5 30 -8 c 1
 34 -19 34 -29 30 -40 c 0
 20 -60 -8 -64 -24 -48 c 0
 -32 -40 -35 -28 -32 -17 c 0
 -30 -4 -20 6 -8 8 c 0
-162 8 m 0
 -159 9 -156 10 -153 8 c 0
 -149 6 -148 4 -146 -4 c 0
 -136 -48 -113 -84 -78 -108 c 0
 -70 -112 -56 -120 -49 -122 c 0
 -25 -131 0 -133 25 -128 c 0
 38 -126 49 -123 62 -116 c 0
 106 -95 136 -55 146 -4 c 0
 148 4 149 6 153 8 c 0
 157 10 162 8 164 6 c 0
 166 4 166 2 164 -8 c 0
 156 -48 140 -86 120 -114 c 0
 92 -152 58 -174 18 -180 c 0
 10 -182 -10 -182 -18 -180 c 0
 -50 -176 -76 -162 -100 -138 c 0
 -127 -110 -148 -72 -160 -27 c 0
 -164 -14 -166 0 -166 2 c 0
 -166 5 -164 7 -162 8 c 0
EndSplineSet
EndChar
StartChar: scripts.ushortfermata
Encoding: 57674 57674 103
Width: 125
GlyphClass: 2
Flags: MW
HStem: 0 21G<-118.5 -114.5 96 110>
Fore
-4 274 m 0
 -2 274 -1 275 0 275 c 0
 2 275 6 274 7 272 c 0
 9 269 124 12 125 10 c 1
 126 6 123 2 120 1 c 0
 118 0 116 0 104 0 c 0
 88 0 86 0 84 4 c 2
 83 4 61 52 35 110 c 0
 9 168 -12 214 -13 214 c 1
 -60 110 l 1
 -108 4 l 1
 -110 2 -113 0 -116 0 c 0
 -121 0 -126 6 -125 10 c 1
 -124 12 -9 269 -7 272 c 1
 -6 272 -5 274 -4 274 c 0
-20 66 m 0
 -6 70 10 62 17 49 c 0
 22 38 22 28 17 18 c 0
 8 -2 -20 -6 -36 10 c 0
 -40 14 -44 20 -45 26 c 0
 -49 44 -38 62 -20 66 c 0
EndSplineSet
EndChar
StartChar: scripts.dshortfermata
Encoding: 57675 57675 104
Width: 125
GlyphClass: 2
Flags: MW
HStem: -20 20G<-109.5 -95.5 114.5 118.5>
Fore
-120 -1 m 0
 -118 0 -116 0 -103 0 c 0
 -88 0 -86 0 -84 -4 c 2
 -83 -4 -61 -52 -35 -110 c 0
 -9 -168 12 -214 13 -214 c 1
 60 -110 l 1
 108 -4 l 1
 110 -2 113 0 116 0 c 0
 121 0 126 -6 125 -10 c 1
 124 -12 9 -269 7 -272 c 0
 6 -274 2 -275 0 -275 c 0
 -2 -275 -6 -274 -7 -272 c 0
 -9 -269 -124 -12 -125 -10 c 1
 -126 -6 -123 -2 -120 -1 c 0
4 -1 m 0
 20 2 36 -4 42 -18 c 0
 47 -28 47 -38 42 -49 c 0
 32 -69 4 -73 -12 -57 c 0
 -16 -53 -19 -46 -20 -40 c 0
 -24 -22 -13 -6 4 -1 c 0
EndSplineSet
EndChar
StartChar: scripts.ulongfermata
Encoding: 57676 57676 105
Width: 156
GlyphClass: 2
Flags: MW
HStem: 0 21G<145 148> 138 50<-137 0 -137 -137 0 137>
VStem: -156 19<96 138> 137 19<72 97 97 138 138 138>
Fore
-154 186 m 1
 -153 188 l 1
 0 188 l 1
 154 188 l 1
 154 186 l 1
 156 185 l 1
 156 97 l 1
 156 7 l 1
 154 3 150 0 146 0 c 0
 144 0 141 2 140 3 c 0
 137 6 137 2 137 72 c 2
 137 138 l 1
 0 138 l 1
 -137 138 l 1
 -137 72 l 2
 -137 10 -137 8 -138 6 c 0
 -142 -2 -152 -2 -155 6 c 0
 -156 8 -156 18 -156 96 c 2
 -156 184 l 1
 -154 186 l 1
-8 66 m 0
 7 70 23 62 30 49 c 1
 34 38 34 28 30 18 c 0
 20 -2 -8 -6 -24 10 c 0
 -28 14 -32 20 -32 26 c 1
 -36 44 -26 62 -8 66 c 0
EndSplineSet
EndChar
StartChar: scripts.dlongfermata
Encoding: 57677 57677 106
Width: 156
GlyphClass: 2
Flags: MW
HStem: -188 50<-137 0 -137 0 -153 0> -20 20G<145 148>
VStem: -156 19<-138 -96 -96 -72 -138 -57> 137 19<-138 -97 -97 -72 -72 -37>
Fore
-150 -1 m 0
 -146 1 -140 -1 -138 -6 c 0
 -137 -8 -137 -10 -137 -72 c 2
 -137 -138 l 1
 0 -138 l 1
 137 -138 l 1
 137 -72 l 2
 137 -2 137 -6 140 -3 c 0
 141 -2 144 0 146 0 c 0
 150 0 154 -3 156 -7 c 1
 156 -97 l 1
 156 -185 l 1
 154 -186 l 1
 154 -187 l 1
 0 -188 l 1
 -153 -188 l 1
 -154 -186 l 1
 -156 -184 l 1
 -156 -96 l 2
 -156 -18 -156 -8 -155 -6 c 0
 -154 -4 -152 -2 -150 -1 c 0
-8 -1 m 0
 7 2 23 -4 30 -18 c 0
 34 -28 34 -38 30 -49 c 0
 20 -69 -8 -73 -24 -57 c 0
 -28 -53 -32 -46 -32 -40 c 1
 -36 -22 -26 -6 -8 -1 c 0
EndSplineSet
EndChar
StartChar: scripts.uverylongfermata
Encoding: 57678 57678 107
Width: 187
GlyphClass: 2
Flags: MW
HStem: 0 21G<-3 3 115 118 177 180> 75 37<-106 0 -106 -106 0 106> 138 62<-168 0 -168 -168 0 168>
VStem: -188 20<102 138> -125 19<59 75> 106 19<42 60 60 75 75 75> 168 20<72 103 103 138 138 138>
Fore
-186 198 m 1
 -184 200 l 1
 0 200 l 1
 185 200 l 1
 186 198 l 1
 188 198 l 1
 188 103 l 2
 188 37 188 8 187 7 c 2
 186 3 182 0 178 0 c 0
 176 0 172 2 171 3 c 0
 168 6 168 2 168 72 c 2
 168 138 l 1
 0 138 l 1
 -168 138 l 1
 -168 72 l 2
 -168 16 -168 8 -170 6 c 1
 -172 -2 -184 -2 -186 6 c 1
 -188 8 -188 18 -188 102 c 2
 -188 197 l 1
 -186 198 l 1
-124 111 m 1
 -122 112 l 1
 0 112 l 1
 122 112 l 1
 124 111 l 1
 125 110 l 1
 125 60 l 2
 125 24 125 8 124 7 c 2
 124 3 120 0 116 0 c 0
 114 0 110 2 108 3 c 1
 106 6 106 6 106 42 c 2
 106 75 l 1
 0 75 l 1
 -106 75 l 1
 -106 42 l 2
 -106 12 -106 8 -107 6 c 0
 -110 -2 -121 -2 -124 6 c 0
 -125 8 -125 14 -125 59 c 2
 -125 110 l 1
 -124 111 l 1
-6 60 m 0
 -2 61 6 60 10 59 c 0
 22 54 30 43 30 30 c 0
 30 18 22 6 10 2 c 0
 6 0 6 0 0 0 c 0
 -6 0 -6 0 -10 2 c 0
 -24 7 -33 22 -30 37 c 0
 -27 48 -18 58 -6 60 c 0
EndSplineSet
EndChar
StartChar: scripts.dverylongfermata
Encoding: 57679 57679 108
Width: 187
GlyphClass: 2
Flags: MW
HStem: -200 62<-168 0 -168 0 -184 0 0 168> -112 37<-106 0 -106 0 -122 0 0 106> -20 20G<-6 -4 115 118 177 180>
VStem: -188 20<-138 -102 -102 -72 -138 -60> -125 19<-75 -59 -59 -42 -75 -36.5> 106 19<-75 -60 -110 -42 -110 -24> 168 20<-138 -103 -198 -72>
Fore
-182 -1 m 0
 -177 1 -172 -1 -170 -6 c 1
 -168 -8 -168 -10 -168 -72 c 2
 -168 -138 l 1
 0 -138 l 1
 168 -138 l 1
 168 -72 l 2
 168 -2 168 -6 171 -3 c 0
 172 -2 176 0 178 0 c 0
 182 0 186 -3 187 -7 c 2
 188 -8 188 -37 188 -103 c 2
 188 -198 l 1
 186 -198 l 1
 185 -200 l 1
 0 -200 l 1
 -184 -200 l 1
 -186 -198 l 1
 -188 -197 l 1
 -188 -102 l 2
 -188 -18 -188 -8 -186 -6 c 2
 -186 -4 -184 -2 -182 -1 c 0
-119 -1 m 0
 -114 1 -109 -1 -107 -6 c 0
 -106 -8 -106 -10 -106 -42 c 2
 -106 -75 l 1
 0 -75 l 1
 106 -75 l 1
 106 -42 l 2
 106 -6 106 -6 108 -3 c 1
 110 -2 114 0 116 0 c 0
 120 0 124 -3 124 -7 c 2
 125 -8 125 -24 125 -60 c 2
 125 -110 l 1
 124 -111 l 1
 122 -112 l 1
 0 -112 l 1
 -122 -112 l 1
 -124 -111 l 1
 -125 -110 l 1
 -125 -59 l 2
 -125 -14 -125 -8 -124 -6 c 0
 -123 -4 -122 -2 -119 -1 c 0
-6 0 m 1
 -2 0 6 0 10 -2 c 0
 22 -6 30 -18 30 -30 c 0
 30 -43 22 -54 10 -59 c 0
 6 -60 6 -60 0 -60 c 0
 -6 -60 -6 -60 -10 -59 c 0
 -24 -54 -33 -38 -30 -24 c 0
 -27 -12 -18 -3 -6 0 c 1
EndSplineSet
EndChar
StartChar: scripts.thumb
Encoding: 57680 57680 109
Width: 50
GlyphClass: 2
Flags: MW
HStem: 48 14<-5.5 0 0 1>
VStem: -12 24<-84.5 -79> -10 20<-64 -63>
Fore
-9 62 m 1xa0
 0 62 l 2
 24 62 42 44 48 15 c 0
 50 7 50 -7 48 -15 c 0
 45 -33 36 -48 24 -56 c 0
 20 -58 13 -61 11 -61 c 0
 10 -61 10 -62 10 -64 c 1xa0
 11 -66 11 -73 12 -79 c 1
 12 -90 12 -90 11 -93 c 0
 9 -98 6 -100 0 -100 c 0
 -6 -100 -9 -98 -11 -93 c 0
 -12 -90 -12 -90 -12 -79 c 1xc0
 -11 -73 -11 -66 -10 -64 c 1
 -10 -62 -10 -61 -11 -61 c 0
 -13 -61 -20 -58 -24 -56 c 0
 -36 -48 -45 -33 -48 -15 c 0
 -50 -7 -50 7 -48 15 c 0
 -46 29 -40 40 -32 49 c 0
 -25 56 -18 60 -9 62 c 1xa0
8 46 m 0
 6 47 4 47 1 48 c 1
 -12 48 -19 39 -22 18 c 0
 -24 10 -24 -12 -22 -20 c 0
 -20 -34 -16 -42 -8 -46 c 0
 -5 -47 -4 -47 0 -47 c 0
 4 -47 5 -47 8 -46 c 0
 16 -42 20 -34 22 -20 c 0
 23 -15 23 -12 23 0 c 0
 23 12 23 15 22 20 c 0
 20 34 16 42 8 46 c 0
EndSplineSet
EndChar
StartChar: scripts.sforzato
Encoding: 57681 57681 110
Width: 112
GlyphClass: 2
Flags: MW
VStem: -112 220<-8 57>
Fore
-107 62 m 1
 -103 62 l 2
 -102 62 -55 50 1 36 c 2
 104 10 l 2
 105 10 107 9 108 8 c 1
 114 6 114 -6 108 -8 c 1
 107 -9 105 -10 104 -10 c 2
 1 -36 l 1
 -102 -62 l 2
 -110 -63 -114 -56 -112 -49 c 1
 -110 -47 -109 -46 -106 -44 c 1
 -104 -44 -76 -36 -42 -28 c 2
 20 -12 l 1
 54 -6 l 2
 73 -3 88 0 88 0 c 1
 88 0 73 3 54 6 c 2
 20 12 l 1
 -42 28 l 2
 -76 36 -104 44 -106 44 c 1
 -109 46 -110 47 -112 49 c 1
 -112 52 -113 54 -112 57 c 1
 -110 60 -110 60 -107 62 c 1
EndSplineSet
EndChar
StartChar: scripts.espr
Encoding: 57682 57682 111
Width: 237
GlyphClass: 2
Flags: W
Fore
-28 62 m 0
 -24 63 -20 62 -18 60 c 2
 -16 58 l 1
 -14 52 -16 48 -20 45 c 0
 -21 44 -50 37 -84 28 c 2
 -146 12 l 1
 -181 6 l 2
 -200 3 -215 0 -215 0 c 1
 -215 0 -200 -3 -181 -6 c 2
 -146 -12 l 1
 -84 -28 l 2
 -50 -37 -21 -44 -20 -45 c 2
 -18 -46 -17 -48 -16 -50 c 0
 -13 -56 -18 -63 -25 -62 c 0
 -26 -62 -72 -50 -128 -36 c 0
 -182 -22 -228 -10 -230 -10 c 1
 -230 -10 -232 -9 -233 -8 c 1
 -239 -6 -239 6 -233 8 c 1
 -232 9 -230 10 -230 10 c 1
 -228 10 -31 61 -28 62 c 0
20 62 m 1
 24 62 l 2
 26 62 72 50 128 36 c 0
 182 22 228 10 230 10 c 1
 230 10 232 9 233 8 c 1
 239 6 239 -6 233 -8 c 1
 232 -9 230 -10 230 -10 c 1
 228 -10 182 -22 128 -36 c 0
 72 -50 26 -62 25 -62 c 0
 18 -63 13 -56 16 -50 c 0
 17 -48 18 -46 20 -45 c 2
 21 -44 50 -37 84 -28 c 2
 147 -12 l 1
 181 -6 l 2
 200 -3 215 0 215 0 c 1
 215 0 200 3 181 6 c 2
 147 12 l 1
 84 28 l 2
 50 37 21 44 20 45 c 0
 19 46 18 46 18 47 c 2
 15 50 14 54 16 57 c 1
 17 60 18 60 20 62 c 1
EndSplineSet
EndChar
StartChar: scripts.staccato
Encoding: 57683 57683 112
Width: 25
GlyphClass: 2
Flags: MW
HStem: -24 48<-5 -5>
VStem: -24 49
Fore
-6 24 m 0
 10 28 25 16 25 0 c 0
 25 -16 10 -28 -5 -24 c 0
 -14 -22 -22 -15 -24 -6 c 0
 -28 7 -20 21 -6 24 c 0
EndSplineSet
EndChar
StartChar: scripts.ustaccatissimo
Encoding: 57684 57684 113
Width: 25
GlyphClass: 2
Flags: MW
HStem: -6 131
VStem: -24 48<112 112>
Fore
-7 125 m 0
 6 128 19 122 24 112 c 0
 27 106 28 108 16 50 c 0
 10 22 6 -2 5 -3 c 2
 4 -5 2 -6 0 -6 c 0
 -2 -6 -4 -5 -5 -3 c 2
 -6 -2 -10 22 -16 50 c 0
 -28 108 -27 106 -24 112 c 0
 -21 118 -14 123 -7 125 c 0
EndSplineSet
EndChar
StartChar: scripts.dstaccatissimo
Encoding: 57685 57685 114
Width: 25
GlyphClass: 2
Flags: MW
HStem: -122 128
VStem: -24 50
Fore
-3 6 m 1
 0 6 l 2
 2 6 4 5 5 3 c 2
 6 2 10 -22 16 -50 c 0
 25 -96 26 -102 26 -105 c 0
 24 -122 4 -130 -14 -122 c 0
 -18 -120 -22 -116 -24 -112 c 0
 -27 -106 -28 -108 -16 -50 c 0
 -10 -22 -6 2 -5 3 c 2
 -5 4 -4 5 -3 6 c 1
EndSplineSet
EndChar
StartChar: scripts.tenuto
Encoding: 57686 57686 115
Width: 75
GlyphClass: 2
Flags: MW
HStem: -10 20<-68 0 -68 1 0 1 1 68>
Fore
-68 10 m 2
 1 10 l 1
 68 10 l 1
 70 9 l 1
 73 6 75 4 75 0 c 0
 75 -4 73 -6 70 -8 c 2
 68 -10 l 1
 0 -10 l 1
 -68 -10 l 1
 -70 -8 l 1
 -74 -6 -76 -1 -74 4 c 1
 -74 6 -70 10 -68 10 c 2
EndSplineSet
EndChar
StartChar: scripts.uportato
Encoding: 57687 57687 116
Width: 75
GlyphClass: 2
Flags: MW
HStem: -9 18<-68 0 -68 0 0 68>
VStem: -74 144
Fore
-6 102 m 0
 4 106 16 100 20 88 c 0
 24 73 10 58 -6 63 c 0
 -17 66 -23 78 -20 88 c 0
 -18 95 -12 100 -6 102 c 0
-70 8 m 1
 -68 9 l 1
 0 9 l 1
 68 9 l 1
 70 8 l 2
 76 4 76 -4 70 -8 c 2
 68 -9 l 1
 0 -9 l 1
 -68 -9 l 1
 -70 -8 l 2
 -75 -6 -76 0 -74 5 c 1
 -72 6 -71 8 -70 8 c 1
EndSplineSet
EndChar
StartChar: scripts.dportato
Encoding: 57688 57688 117
Width: 75
GlyphClass: 2
Flags: MW
HStem: -9 18<-68 0 -68 0 0 68>
VStem: -74 144
Fore
-70 8 m 2
 -68 9 l 1
 0 9 l 1
 68 9 l 1
 70 8 l 2
 76 4 76 -4 70 -8 c 2
 68 -9 l 1
 0 -9 l 1
 -68 -9 l 1
 -70 -8 l 1
 -71 -8 -72 -6 -74 -5 c 1
 -76 0 -75 6 -70 8 c 2
-6 -63 m 0
 4 -60 16 -66 20 -76 c 0
 24 -92 10 -107 -6 -102 c 0
 -17 -98 -23 -88 -20 -76 c 0
 -18 -70 -12 -65 -6 -63 c 0
EndSplineSet
EndChar
StartChar: scripts.umarcato
Encoding: 57689 57689 118
Width: 62
GlyphClass: 2
Flags: MW
HStem: 0 21G<-58 -56 31 48> 118 20G<-0.5 0.5>
VStem: -62 124<5 6.5 5 6.5>
Fore
-4 136 m 1
 -2 137 -1 138 0 138 c 0
 1 138 2 137 4 136 c 1
 5 136 8 129 34 72 c 0
 50 36 62 7 62 6 c 0
 62 4 61 2 60 1 c 1
 58 0 56 0 40 0 c 0
 22 0 21 0 20 1 c 1
 18 2 16 6 0 40 c 2
 -16 78 l 1
 -18 76 l 1
 -35 38 l 2
 -50 6 -52 2 -53 1 c 0
 -54 0 -56 0 -56 0 c 1
 -60 0 -62 3 -62 6 c 0
 -62 7 -50 34 -34 72 c 0
 -8 129 -5 136 -4 136 c 1
EndSplineSet
EndChar
StartChar: scripts.dmarcato
Encoding: 57690 57690 119
Width: 62
GlyphClass: 2
Flags: MW
HStem: -136 136<-48 -4 -48 4>
VStem: -62 124<-6.5 -5>
Fore
-60 -1 m 1
 -58 0 -56 0 -40 0 c 0
 -22 0 -21 0 -20 -1 c 1
 -18 -2 -16 -6 0 -40 c 2
 17 -78 l 1
 18 -76 l 1
 35 -38 l 2
 50 -6 52 -2 53 -1 c 0
 54 0 56 0 56 0 c 1
 60 0 62 -3 62 -6 c 0
 62 -7 50 -34 34 -72 c 0
 8 -129 5 -136 4 -136 c 1
 2 -138 -2 -138 -4 -136 c 1
 -5 -136 -8 -129 -34 -72 c 0
 -50 -36 -62 -7 -62 -6 c 0
 -62 -4 -61 -2 -60 -1 c 1
EndSplineSet
EndChar
StartChar: scripts.open
Encoding: 57691 57691 120
Width: 50
GlyphClass: 2
Flags: MW
HStem: -62 14<-5 3 -5 12>
VStem: -48 96<-15 15>
Fore
-9 62 m 1
 0 62 l 2
 24 62 42 44 48 15 c 0
 50 7 50 -7 48 -15 c 0
 43 -44 24 -62 0 -62 c 0
 -24 -62 -43 -44 -48 -15 c 0
 -50 -7 -50 7 -48 15 c 0
 -46 29 -40 40 -32 49 c 0
 -25 56 -18 60 -9 62 c 1
6 46 m 1
 -2 49 -11 46 -17 40 c 0
 -30 26 -32 -10 -22 -32 c 0
 -17 -42 -10 -48 0 -48 c 0
 6 -48 12 -45 17 -40 c 0
 30 -26 32 10 22 32 c 0
 18 40 12 45 6 46 c 1
EndSplineSet
EndChar
StartChar: scripts.stopped
Encoding: 57692 57692 121
Width: 69
GlyphClass: 2
Flags: MW
HStem: -12 25<-60 -12 -60 -12 -36 -12 13 36 36 45>
VStem: -12 25<-45 -36 -45 -36 -36 -12 -45 -12 13 36>
Fore
-4 69 m 0
 0 70 8 68 10 64 c 1
 13 62 13 61 13 36 c 2
 13 13 l 1
 36 13 l 2
 54 13 60 13 61 12 c 2
 64 12 66 10 68 6 c 0
 69 4 70 4 70 0 c 0
 70 -3 69 -4 68 -6 c 0
 66 -9 64 -11 61 -12 c 1
 36 -12 l 1
 13 -12 l 1
 13 -36 l 2
 13 -54 13 -59 12 -60 c 2
 12 -64 10 -66 6 -68 c 1
 0 -68 l 1
 -6 -68 l 1
 -9 -66 -11 -64 -12 -60 c 1
 -12 -36 l 1
 -12 -12 l 1
 -36 -12 l 1
 -60 -12 l 1
 -64 -11 -66 -9 -68 -6 c 1
 -68 0 l 1
 -68 6 l 1
 -66 10 -64 12 -60 12 c 2
 -59 13 -54 13 -36 13 c 2
 -12 13 l 1
 -12 37 l 1
 -12 61 l 1
 -11 63 l 2
 -10 66 -7 68 -4 69 c 0
EndSplineSet
EndChar
StartChar: scripts.upbow
Encoding: 57693 57693 122
Width: 81
GlyphClass: 2
Flags: MW
HStem: 0 21G<-2 2>
VStem: -82 164<251 252 250.5 252.5>
Fore
-76 259 m 1
 -76 260 -74 260 -73 260 c 0
 -71 260 -67 258 -66 256 c 2
 -42 180 l 1
 -20 106 l 1
 -10 66 l 1
 0 26 l 1
 10 66 l 1
 20 106 l 1
 42 180 l 1
 66 256 l 2
 67 258 70 260 73 260 c 0
 74 260 78 258 79 257 c 0
 80 256 82 253 82 251 c 0
 82 250 66 196 46 131 c 0
 26 66 10 10 9 8 c 0
 8 6 8 4 7 2 c 1
 6 1 4 0 0 0 c 0
 -4 0 -6 1 -7 2 c 1
 -8 4 -8 6 -9 8 c 0
 -10 10 -26 66 -46 131 c 0
 -66 196 -82 250 -82 252 c 0
 -82 253 -80 256 -78 258 c 1
 -78 258 -77 258 -76 259 c 1
EndSplineSet
EndChar
StartChar: scripts.downbow
Encoding: 57694 57694 123
Width: 94
GlyphClass: 2
Flags: MW
HStem: 0 21G<-88 -84 84 88> 100 66<-78 0 -78 -78 0 78>
VStem: -94 16<84 100> 78 16<53 85 85 100 100 100>
Fore
-92 165 m 1
 -90 166 l 1
 0 166 l 1
 91 166 l 1
 92 165 l 1
 94 164 l 1
 94 85 l 2
 94 10 94 6 92 4 c 1
 91 2 90 0 86 0 c 0
 82 0 81 2 80 4 c 1
 78 6 78 9 78 53 c 2
 78 100 l 1
 0 100 l 1
 -78 100 l 1
 -78 53 l 2
 -78 9 -78 6 -80 4 c 1
 -81 2 -82 0 -86 0 c 0
 -90 0 -91 2 -92 4 c 1
 -94 6 -94 10 -94 84 c 2
 -94 164 l 1
 -92 165 l 1
EndSplineSet
EndChar
StartChar: scripts.reverseturn
Encoding: 57695 57695 124
Width: 136
GlyphClass: 2
Flags: MW
HStem: -66 132
VStem: -136 14<-12 2> 122 14<-2 12>
Fore
-88 66 m 0
 -75 68 -61 64 -53 56 c 0
 -45 48 -44 38 -48 27 c 0
 -50 23 -55 18 -59 16 c 0
 -64 14 -72 12 -78 14 c 1
 -86 15 -92 20 -95 26 c 0
 -97 29 -98 29 -102 28 c 0
 -114 23 -120 14 -122 2 c 1
 -122 -10 -114 -22 -100 -26 c 1
 -90 -26 l 1
 -78 -26 l 1
 -66 -22 -56 -17 -44 -8 c 0
 -38 -3 -36 -1 -21 13 c 0
 7 40 19 50 34 57 c 0
 56 68 78 69 99 59 c 0
 118 50 131 33 136 12 c 1
 136 6 136 -8 135 -14 c 0
 128 -44 108 -64 82 -66 c 0
 71 -66 60 -63 53 -56 c 0
 45 -48 44 -38 48 -27 c 0
 50 -23 55 -18 59 -16 c 0
 64 -14 72 -12 78 -14 c 1
 86 -15 92 -20 95 -26 c 0
 97 -29 98 -29 102 -28 c 0
 114 -23 120 -14 122 -2 c 1
 122 10 114 22 100 26 c 1
 90 26 l 1
 78 26 l 1
 66 22 56 17 44 8 c 0
 38 3 36 1 22 -13 c 0
 -7 -40 -19 -50 -34 -57 c 0
 -56 -68 -78 -69 -99 -59 c 0
 -118 -50 -131 -33 -136 -12 c 1
 -136 -6 -136 8 -135 14 c 0
 -129 42 -112 61 -88 66 c 0
EndSplineSet
EndChar
StartChar: scripts.turn
Encoding: 57696 57696 125
Width: 136
GlyphClass: 2
Flags: MW
HStem: -66 131<-79 72>
Fore
-79 65 m 0
 -74 66 -62 66 -56 65 c 0
 -42 62 -26 54 -10 41 c 2
 22 13 l 2
 36 -1 38 -3 44 -8 c 0
 56 -17 66 -22 78 -26 c 1
 90 -26 l 1
 100 -26 l 1
 120 -20 127 -1 117 16 c 0
 114 21 108 25 102 28 c 1
 98 29 97 29 95 26 c 0
 92 20 86 15 78 14 c 1
 72 12 64 14 59 16 c 0
 55 18 50 23 48 27 c 0
 44 38 45 48 53 56 c 0
 62 65 77 68 92 64 c 0
 114 59 130 40 135 14 c 0
 136 8 136 -6 136 -12 c 1
 131 -33 118 -50 99 -59 c 0
 88 -64 78 -66 66 -66 c 0
 55 -66 46 -62 34 -57 c 0
 19 -50 7 -40 -21 -13 c 0
 -36 1 -38 3 -44 8 c 0
 -56 17 -66 22 -78 26 c 1
 -90 26 l 1
 -100 26 l 1
 -120 20 -127 1 -117 -16 c 0
 -114 -21 -108 -25 -102 -28 c 1
 -98 -29 -97 -29 -95 -26 c 0
 -92 -20 -86 -15 -78 -14 c 1
 -72 -12 -64 -14 -59 -16 c 0
 -55 -18 -50 -23 -48 -27 c 0
 -44 -38 -45 -48 -53 -56 c 0
 -62 -65 -77 -68 -92 -64 c 0
 -114 -59 -130 -40 -135 -14 c 0
 -136 -8 -136 6 -136 12 c 1
 -131 33 -118 50 -99 59 c 0
 -92 62 -86 64 -79 65 c 0
EndSplineSet
EndChar
StartChar: scripts.trill
Encoding: 57697 57697 126
Width: 106
GlyphClass: 2
Flags: MW
HStem: 1 21G<22 29.5> 118 20G
VStem: -90 40<36 39.5 31.5 41>
Fore
-8 267 m 1
 -6 268 -5 270 -5 270 c 1
 -18 203 l 1
 -32 136 l 1
 -30 138 l 1
 -24 141 1 155 5 156 c 2
 10 160 18 162 24 164 c 1
 32 165 44 165 50 164 c 0
 57 162 62 159 66 155 c 1
 70 152 l 1
 72 154 l 1
 78 158 83 162 90 164 c 0
 98 166 107 166 114 165 c 0
 126 162 134 154 137 142 c 0
 139 135 138 122 136 114 c 0
 130 96 118 86 104 86 c 1
 93 88 86 98 87 113 c 0
 88 122 90 128 96 134 c 0
 100 138 108 142 115 142 c 1
 119 143 l 1
 116 146 l 2
 114 148 112 150 110 150 c 2
 101 155 88 152 80 144 c 0
 74 138 74 143 59 66 c 0
 52 28 46 -4 45 -4 c 1
 45 -4 44 -3 42 -2 c 0
 36 0 33 1 26 1 c 0
 18 1 14 0 8 -2 c 1
 4 -4 l 1
 4 -3 10 28 18 65 c 0
 32 139 32 136 30 140 c 0
 26 146 17 149 10 146 c 1
 8 146 -2 140 -14 134 c 2
 -35 122 l 1
 -36 114 l 1
 -38 106 l 1
 -34 101 l 2
 -20 84 -14 70 -13 55 c 0
 -12 45 -14 36 -19 26 c 0
 -23 18 -32 8 -38 3 c 0
 -42 0 -49 -3 -52 -4 c 0
 -57 -5 -64 -5 -67 -4 c 0
 -80 -2 -89 13 -90 36 c 0
 -90 46 -90 52 -84 76 c 0
 -82 88 -80 98 -80 98 c 1
 -80 98 -82 98 -86 96 c 0
 -96 92 -108 89 -118 87 c 0
 -125 86 -138 86 -142 87 c 0
 -152 90 -159 96 -160 106 c 1
 -162 114 -160 123 -156 131 c 1
 -152 136 -146 142 -141 144 c 0
 -127 152 -108 154 -90 148 c 0
 -86 146 -76 142 -74 140 c 1
 -72 139 l 1
 -61 196 l 2
 -54 228 -50 254 -49 254 c 2
 -46 254 l 1
 -42 252 -41 252 -38 252 c 0
 -30 253 -24 256 -16 260 c 1
 -14 262 -10 265 -8 267 c 1
-101 137 m 0
 -106 138 -108 138 -114 139 c 0
 -118 139 -122 138 -124 138 c 0
 -131 138 -138 134 -142 129 c 0
 -148 122 -150 113 -147 106 c 0
 -145 102 -142 100 -136 99 c 0
 -128 98 -113 100 -98 104 c 0
 -93 106 -80 112 -78 112 c 1
 -76 118 l 1
 -75 124 l 1
 -77 126 l 1
 -84 131 -92 135 -101 137 c 0
-37 82 m 0
 -42 90 -41 92 -45 72 c 0
 -50 48 -50 44 -50 35 c 0
 -50 28 -50 26 -49 24 c 1
 -48 20 -43 18 -38 21 c 1
 -34 22 -32 25 -30 30 c 0
 -22 46 -24 65 -37 82 c 0
EndSplineSet
EndChar
StartChar: scripts.upedalheel
Encoding: 57698 57698 127
Width: 62
GlyphClass: 2
Flags: MW
HStem: -60 142
VStem: -62 18<17 36 36 78> 44 18<35 36 36 76 76 76>
Fore
-56 82 m 1
 -52 84 -46 82 -44 78 c 1
 -44 36 l 2
 -44 -2 -44 -4 -42 -9 c 2
 -42 -14 -39 -20 -36 -24 c 0
 -34 -28 -28 -34 -24 -36 c 0
 -11 -45 6 -46 20 -38 c 0
 32 -32 40 -21 43 -8 c 1
 44 -6 44 10 44 35 c 2
 44 76 l 1
 46 82 52 85 56 82 c 1
 59 82 60 80 62 78 c 1
 62 36 l 2
 62 -8 62 -10 60 -19 c 0
 54 -36 42 -48 27 -56 c 0
 13 -63 -2 -64 -18 -60 c 0
 -23 -58 -32 -54 -38 -50 c 0
 -46 -44 -52 -36 -56 -26 c 2
 -60 -20 -60 -16 -62 -9 c 0
 -63 -2 -63 74 -62 78 c 1
 -60 80 -59 82 -56 82 c 1
EndSplineSet
EndChar
StartChar: scripts.dpedalheel
Encoding: 57699 57699 128
Width: 62
GlyphClass: 2
Flags: MW
HStem: -84 146
VStem: -62 18<-78 -36 -78 9> 44 18<-57.5 -35 -35 -22.5>
Fore
-9 62 m 0
 -1 63 9 62 18 60 c 1
 22 58 32 54 36 51 c 0
 47 43 56 32 60 19 c 0
 62 10 62 8 62 -36 c 0
 62 -79 62 -78 60 -80 c 0
 58 -82 55 -84 53 -84 c 0
 49 -84 45 -80 44 -76 c 1
 44 -35 l 2
 44 -10 44 6 43 8 c 1
 40 21 32 32 20 38 c 0
 2 47 -18 44 -31 31 c 0
 -37 24 -41 18 -42 9 c 2
 -44 4 -44 2 -44 -36 c 2
 -44 -78 l 1
 -48 -86 -58 -86 -62 -78 c 1
 -63 -74 -63 2 -62 9 c 0
 -60 16 -60 20 -56 28 c 0
 -50 40 -40 50 -26 56 c 0
 -21 59 -16 61 -9 62 c 0
EndSplineSet
EndChar
StartChar: scripts.upedaltoe
Encoding: 57700 57700 129
Width: 62
GlyphClass: 2
Flags: MW
HStem: 4 182<-56 8 -56 -8>
Fore
-56 186 m 1
 -54 188 -52 188 -50 186 c 2
 -48 186 -46 184 -45 182 c 1
 -44 182 -37 158 -28 130 c 2
 -12 78 l 1
 -6 52 l 2
 -3 39 0 28 0 28 c 1
 0 28 3 39 6 52 c 2
 12 78 l 1
 28 130 l 2
 37 158 44 182 45 182 c 1
 46 184 48 186 50 186 c 1
 54 188 60 186 62 182 c 1
 62 178 l 1
 36 93 l 2
 22 47 10 9 10 8 c 1
 8 4 l 1
 6 -2 -6 -2 -8 4 c 1
 -10 8 l 1
 -10 9 -22 47 -36 93 c 2
 -62 178 l 1
 -62 180 -61 183 -60 184 c 0
 -59 185 -58 186 -56 186 c 1
EndSplineSet
EndChar
StartChar: scripts.dpedaltoe
Encoding: 57701 57701 130
Width: 62
GlyphClass: 2
Flags: MW
HStem: -186 186<-50 2>
Fore
-5 -1 m 2
 -4 0 -2 0 0 0 c 0
 4 0 7 -2 8 -4 c 2
 10 -8 l 1
 10 -9 22 -47 36 -93 c 2
 62 -178 l 1
 62 -182 l 1
 58 -189 48 -190 45 -182 c 2
 44 -182 37 -158 28 -129 c 2
 12 -78 l 1
 6 -52 l 2
 3 -39 0 -28 0 -28 c 1
 0 -28 -3 -39 -6 -52 c 2
 -12 -78 l 1
 -28 -129 l 2
 -37 -158 -44 -182 -45 -182 c 1
 -46 -184 -48 -186 -50 -186 c 1
 -54 -188 -60 -186 -62 -182 c 1
 -62 -178 l 1
 -36 -93 l 2
 -22 -47 -10 -9 -10 -8 c 0
 -10 -6 -8 -2 -5 -1 c 2
EndSplineSet
EndChar
StartChar: scripts.flageolet
Encoding: 57702 57702 131
Width: 66
GlyphClass: 2
Flags: MW
HStem: 56 10
VStem: -66 10<-4.5 4.5 -4.5 13 -4.5 13>
Fore
-7 66 m 1
 14 66 l 1
 26 62 38 56 47 47 c 0
 56 38 62 26 66 13 c 1
 66 -13 l 1
 62 -26 56 -38 47 -47 c 0
 38 -56 26 -62 13 -66 c 1
 -13 -66 l 1
 -26 -62 -38 -56 -47 -47 c 0
 -56 -38 -62 -26 -66 -13 c 1
 -66 13 l 1
 -62 26 -56 38 -47 47 c 0
 -38 56 -24 64 -12 66 c 1
 -7 66 l 1
8 56 m 0
 -2 57 -14 56 -22 52 c 0
 -35 46 -46 34 -52 22 c 1
 -54 14 -56 9 -56 0 c 0
 -56 -9 -54 -14 -52 -22 c 0
 -46 -37 -31 -50 -15 -54 c 0
 6 -59 26 -54 40 -39 c 0
 48 -32 52 -23 54 -12 c 1
 56 -6 56 6 54 12 c 1
 52 23 48 32 40 39 c 0
 30 48 20 54 8 56 c 0
EndSplineSet
EndChar
StartChar: scripts.segno
Encoding: 57703 57703 132
Width: 125
GlyphClass: 2
Flags: W
Fore
-62 187 m 0
 -56 188 -44 187 -38 186 c 0
 -25 183 -14 177 -4 167 c 0
 6 156 13 144 16 128 c 0
 18 122 18 109 16 104 c 1
 14 93 7 86 -2 84 c 0
 -22 81 -37 92 -38 112 c 0
 -40 127 -32 140 -22 146 c 1
 -20 146 -19 147 -19 147 c 1
 -18 148 -22 154 -24 157 c 0
 -31 168 -45 174 -58 172 c 0
 -62 171 -70 168 -73 164 c 1
 -78 160 -82 153 -84 146 c 0
 -86 140 -86 128 -84 120 c 0
 -79 90 -59 64 -23 40 c 0
 -16 35 -1 26 0 26 c 1
 47 106 l 1
 94 186 l 2
 95 188 96 188 110 188 c 2
 125 188 l 1
 74 100 l 1
 23 14 l 1
 23 14 24 12 25 12 c 1
 32 8 46 0 53 -5 c 0
 95 -32 118 -61 124 -93 c 1
 124 -110 l 1
 124 -126 l 1
 122 -130 122 -134 120 -137 c 1
 109 -169 81 -189 50 -188 c 0
 32 -186 17 -180 4 -167 c 0
 -6 -156 -13 -144 -16 -128 c 0
 -18 -122 -18 -109 -16 -104 c 1
 -14 -93 -7 -86 2 -84 c 0
 22 -81 37 -92 38 -112 c 0
 40 -127 32 -140 22 -146 c 1
 20 -146 19 -147 19 -147 c 1
 18 -148 22 -154 24 -157 c 0
 31 -168 45 -174 58 -172 c 0
 62 -171 70 -168 73 -164 c 1
 78 -160 82 -153 84 -146 c 0
 86 -140 86 -128 84 -120 c 0
 79 -90 59 -64 23 -40 c 0
 16 -35 1 -26 0 -26 c 1
 -47 -106 l 1
 -94 -186 l 2
 -95 -188 -96 -188 -110 -188 c 2
 -125 -187 l 1
 -74 -100 l 1
 -23 -14 l 1
 -23 -14 -24 -12 -25 -12 c 1
 -32 -8 -46 0 -52 5 c 0
 -95 32 -118 61 -124 94 c 1
 -124 110 l 1
 -124 126 l 1
 -121 138 -118 146 -111 156 c 0
 -107 162 -100 170 -94 174 c 0
 -84 180 -73 186 -62 187 c 0
81 39 m 0
 88 42 96 38 100 32 c 1
 101 28 102 22 100 18 c 1
 98 16 96 14 93 12 c 0
 90 10 90 10 86 10 c 0
 82 10 82 10 80 12 c 1
 72 16 68 26 74 33 c 1
 75 36 78 38 81 39 c 0
-91 -11 m 0
 -84 -8 -76 -12 -72 -18 c 1
 -71 -22 -70 -28 -72 -32 c 1
 -74 -34 -76 -36 -79 -38 c 0
 -82 -40 -82 -40 -86 -40 c 0
 -90 -40 -90 -40 -92 -38 c 1
 -100 -34 -104 -24 -98 -17 c 1
 -97 -14 -94 -12 -91 -11 c 0
EndSplineSet
EndChar
StartChar: scripts.coda
Encoding: 57704 57704 133
Width: 127
GlyphClass: 2
Flags: MW
HStem: -8 16<-118.5 -84 -106 -84 -46 -27 -27 -8 8 27 27 46 84 106> 108 16<13 13>
VStem: -82 36<-20 -17 18 20 -20 25.5> -8 16<-148 -124 -110 -58 -58 -8 8 58 58 110 124 148> 46 36<-20 -17 -25 -8 -25 -8 18 20 20 25.5>
CounterMasks: 1 00
Fore
-4 176 m 1
 -2 177 2 176 4 175 c 0
 8 173 8 173 8 148 c 2
 8 124 l 1
 12 124 l 1
 38 119 59 99 72 67 c 0
 78 52 82 33 82 18 c 1
 83 15 83 12 84 10 c 1
 84 8 l 1
 106 8 l 2
 126 8 129 8 130 6 c 1
 133 5 134 4 134 0 c 0
 134 -4 133 -5 130 -6 c 1
 129 -8 126 -8 106 -8 c 2
 84 -8 l 1
 84 -10 l 1
 83 -12 83 -15 82 -17 c 1
 82 -33 78 -52 72 -67 c 0
 59 -99 38 -119 12 -124 c 1
 8 -124 l 1
 8 -148 l 2
 8 -168 8 -171 6 -172 c 1
 5 -175 4 -176 0 -176 c 0
 -4 -176 -5 -175 -6 -172 c 1
 -8 -171 -8 -168 -8 -148 c 2
 -8 -124 l 1
 -12 -124 l 1
 -38 -119 -59 -99 -72 -67 c 0
 -78 -52 -82 -33 -82 -17 c 1
 -83 -15 -83 -12 -84 -10 c 1
 -84 -8 l 1
 -106 -8 l 2
 -131 -8 -131 -8 -133 -4 c 0
 -134 -2 -134 2 -133 4 c 0
 -131 8 -131 8 -106 8 c 2
 -84 8 l 1
 -84 10 l 1
 -83 12 -83 15 -82 18 c 1
 -82 33 -78 52 -72 67 c 0
 -59 99 -38 119 -12 124 c 1
 -8 124 l 1
 -8 148 l 2
 -8 172 -7 172 -6 174 c 1
 -6 174 -4 175 -4 176 c 1
-8 58 m 1
 -8 110 l 1
 -10 110 -16 107 -18 106 c 0
 -37 96 -45 71 -46 20 c 2
 -46 8 l 1
 -27 8 l 1
 -8 8 l 1
 -8 58 l 1
13 108 m 1
 11 108 9 109 8 110 c 1
 8 58 l 1
 8 8 l 1
 27 8 l 1
 46 8 l 1
 46 20 l 2
 46 44 44 59 40 72 c 0
 36 92 26 104 13 108 c 1
-8 -58 m 1
 -8 -8 l 1
 -27 -8 l 1
 -46 -8 l 1
 -46 -20 l 2
 -45 -59 -41 -80 -31 -94 c 0
 -26 -102 -20 -106 -8 -110 c 1
 -8 -58 l 1
46 -20 m 2
 46 -8 l 1
 27 -8 l 1
 8 -8 l 1
 8 -58 l 1
 8 -110 l 1
 20 -106 26 -102 31 -94 c 0
 41 -80 45 -59 46 -20 c 2
EndSplineSet
EndChar
StartChar: scripts.varcoda
Encoding: 57705 57705 134
Width: 127
GlyphClass: 2
Flags: MW
HStem: -125 15<-40 -24 -24 -8 -44 -24 8 24 24 40> -8 16<-118.5 -84 -106 -84 -40 -24 -24 -8 8 24 24 40 84 106> 110 15<-40 -24 -40 -40 -24 -8 8 24 24 40>
VStem: -84 44<-65 -58 -58 -8 8 59 59 65 65 110> -8 16<-148 -125 -110 -58 -58 -8 8 59 59 110 125 148> 40 44<-110 -65 -65 -58 -58 -8 8 59 59 65 65 110 110 110>
CounterMasks: 1 00
Fore
-4 176 m 1
 -2 177 2 176 4 175 c 0
 8 173 8 173 8 148 c 2
 8 125 l 1
 44 125 l 1
 81 125 l 1
 82 124 l 1
 84 122 l 1
 84 65 l 1
 84 8 l 1
 106 8 l 2
 126 8 129 8 130 6 c 1
 133 5 134 4 134 0 c 0
 134 -4 133 -5 130 -6 c 1
 129 -8 126 -8 106 -8 c 2
 84 -8 l 1
 84 -65 l 1
 84 -122 l 1
 82 -124 l 1
 80 -125 l 1
 44 -125 l 1
 8 -125 l 1
 8 -148 l 2
 8 -168 8 -171 6 -172 c 1
 5 -175 4 -176 0 -176 c 0
 -4 -176 -5 -175 -6 -172 c 1
 -8 -171 -8 -168 -8 -148 c 2
 -8 -125 l 1
 -44 -125 l 1
 -81 -124 l 1
 -82 -124 l 1
 -83 -122 l 1
 -84 -65 l 1
 -84 -8 l 1
 -106 -8 l 2
 -131 -8 -131 -8 -133 -4 c 0
 -134 -2 -134 2 -133 4 c 0
 -131 8 -131 8 -106 8 c 2
 -84 8 l 1
 -84 65 l 1
 -84 122 l 1
 -82 124 l 1
 -80 125 l 1
 -44 125 l 1
 -8 125 l 1
 -8 148 l 2
 -8 172 -7 172 -6 174 c 1
 -6 174 -4 175 -4 176 c 1
-8 59 m 1
 -8 110 l 1
 -24 110 l 1
 -40 110 l 1
 -40 59 l 1
 -40 8 l 1
 -24 8 l 1
 -8 8 l 1
 -8 59 l 1
40 59 m 1
 40 110 l 1
 24 110 l 1
 8 110 l 1
 8 59 l 1
 8 8 l 1
 24 8 l 1
 40 8 l 1
 40 59 l 1
-8 -58 m 1
 -8 -8 l 1
 -24 -8 l 1
 -40 -8 l 1
 -40 -58 l 1
 -40 -110 l 1
 -24 -110 l 1
 -8 -110 l 1
 -8 -58 l 1
40 -58 m 1
 40 -8 l 1
 24 -8 l 1
 8 -8 l 1
 8 -58 l 1
 8 -110 l 1
 24 -110 l 1
 40 -110 l 1
 40 -58 l 1
EndSplineSet
EndChar
StartChar: scripts.rcomma
Encoding: 57706 57706 135
Width: 62
GlyphClass: 2
Flags: MW
HStem: -76 154
VStem: -1 57
Fore
24 78 m 1
 26 78 32 78 35 77 c 0
 46 73 56 50 56 30 c 0
 56 4 44 -26 18 -64 c 0
 15 -70 11 -74 10 -75 c 1
 8 -76 4 -77 2 -76 c 1
 0 -74 -2 -72 -1 -69 c 1
 -1 -66 -1 -66 3 -60 c 0
 11 -48 18 -31 22 -18 c 0
 28 7 25 29 13 48 c 0
 10 53 9 56 9 61 c 0
 10 69 16 76 24 78 c 1
EndSplineSet
EndChar
StartChar: scripts.lcomma
Encoding: 57707 57707 136
Width: 0
GlyphClass: 2
Flags: MW
HStem: -78 154<-31 -9>
VStem: -54 56
Fore
-10 76 m 1
 -8 76 -4 76 -2 75 c 0
 0 74 2 71 2 68 c 1
 1 66 0 65 -3 60 c 0
 -11 48 -18 31 -22 18 c 0
 -28 -7 -25 -29 -13 -48 c 0
 -10 -53 -9 -56 -9 -61 c 1
 -10 -68 -14 -74 -20 -77 c 0
 -23 -78 -24 -78 -28 -78 c 0
 -34 -78 -37 -77 -41 -73 c 0
 -46 -68 -51 -58 -54 -49 c 0
 -62 -20 -51 14 -21 60 c 0
 -13 72 -11 75 -10 76 c 1
EndSplineSet
EndChar
StartChar: scripts.rvarcomma
Encoding: 57708 57708 137
Width: 31
GlyphClass: 2
Flags: MW
HStem: -81 175
VStem: -37 87
Fore
26 94 m 1
 32 94 l 2
 39 94 45 90 48 83 c 0
 50 80 50 80 50 76 c 2
 50 71 l 1
 36 44 l 2
 -12 -54 -25 -80 -27 -81 c 1
 -30 -84 -35 -82 -37 -80 c 0
 -40 -76 -40 -80 -12 5 c 0
 2 48 14 84 15 86 c 0
 18 90 22 92 26 94 c 1
EndSplineSet
EndChar
StartChar: scripts.lvarcomma
Encoding: 57709 57709 138
Width: 31
GlyphClass: 2
Flags: MW
HStem: -94 176<-32.5 28>
VStem: -50 87
Fore
28 82 m 1
 31 83 35 82 37 80 c 0
 40 76 40 80 12 -5 c 0
 -2 -48 -14 -84 -15 -86 c 1
 -17 -88 -20 -91 -23 -92 c 2
 -26 -94 -26 -94 -30 -94 c 0
 -35 -94 -36 -94 -38 -92 c 1
 -40 -92 -43 -90 -44 -88 c 2
 -48 -84 -51 -77 -50 -72 c 1
 -49 -70 24 77 26 80 c 2
 28 82 l 1
EndSplineSet
EndChar
StartChar: scripts.arpeggio
Encoding: 57710 57710 139
Width: 100
GlyphClass: 2
Flags: MW
HStem: -28 180<22 76>
VStem: -1 101
Fore
22 152 m 0
 25 154 28 153 30 152 c 1
 31 150 47 138 65 122 c 0
 102 92 101 93 100 87 c 1
 100 80 l 1
 96 74 92 70 78 58 c 0
 66 48 62 44 60 38 c 1
 54 28 54 16 60 5 c 0
 62 0 64 -1 72 -8 c 0
 82 -16 82 -17 82 -21 c 0
 82 -24 78 -28 74 -28 c 0
 73 -28 72 -28 70 -26 c 1
 69 -26 53 -13 35 2 c 0
 0 32 0 32 -1 37 c 0
 -2 44 3 50 22 66 c 0
 28 72 34 78 36 79 c 1
 39 83 43 90 44 96 c 0
 46 104 44 112 40 120 c 0
 38 125 36 126 28 134 c 1
 22 138 19 140 18 142 c 1
 17 146 19 150 22 152 c 0
EndSplineSet
EndChar
StartChar: scripts.trill_element
Encoding: 57711 57711 140
Width: 125
GlyphClass: 3
Flags: MW
VStem: -27 180
Fore
34 100 m 2
 36 102 41 101 44 100 c 1
 50 96 55 92 66 78 c 0
 77 66 80 62 86 60 c 1
 98 54 109 54 120 60 c 0
 125 62 126 64 134 72 c 1
 141 82 142 82 146 82 c 0
 150 82 153 78 153 74 c 0
 153 73 152 72 152 70 c 1
 150 69 138 53 122 35 c 0
 93 0 93 0 88 -1 c 0
 81 -2 75 3 58 22 c 0
 53 28 48 34 46 36 c 0
 42 39 34 43 29 44 c 0
 21 46 12 44 5 40 c 0
 0 38 -1 36 -8 28 c 0
 -14 22 -16 19 -17 18 c 1
 -24 16 -30 24 -27 30 c 0
 -26 32 30 98 31 98 c 1
 32 99 33 100 34 100 c 2
EndSplineSet
EndChar
StartChar: scripts.arpeggio.arrow.M1
Encoding: 57712 57712 141
Width: 100
GlyphClass: 2
Flags: MW
HStem: 0 21G<49 51>
VStem: -30 160<98 101>
Fore
22 152 m 1
 24 154 27 154 29 153 c 1
 30 152 76 104 78 100 c 2
 84 88 l 1
 84 84 l 1
 91 87 l 1
 112 98 l 2
 126 104 126 104 128 104 c 1
 130 102 130 100 130 98 c 1
 128 96 120 88 104 70 c 0
 86 52 82 47 75 39 c 0
 66 28 58 14 54 4 c 0
 52 0 52 0 50 0 c 0
 48 0 48 0 46 6 c 0
 37 26 27 39 -6 72 c 0
 -18 85 -27 95 -29 98 c 1
 -30 98 -30 100 -30 100 c 1
 -30 102 -28 104 -26 104 c 1
 -26 104 -16 100 -4 94 c 2
 20 82 l 1
 22 81 l 1
 29 89 l 2
 37 98 40 102 42 106 c 0
 44 110 44 114 43 118 c 1
 42 120 35 128 26 135 c 0
 22 138 20 141 19 142 c 1
 17 146 19 151 22 152 c 1
EndSplineSet
EndChar
StartChar: scripts.arpeggio.arrow.1
Encoding: 57713 57713 142
Width: 100
GlyphClass: 2
Flags: MW
VStem: -30 160<23.5 26>
Fore
48 124 m 1
 48 125 50 125 50 125 c 1
 52 125 52 124 54 119 c 0
 63 99 73 86 106 53 c 0
 118 40 127 30 129 27 c 0
 130 26 130 26 130 24 c 0
 130 23 128 21 126 21 c 1
 104 32 l 2
 92 37 82 42 80 43 c 2
 78 44 l 1
 71 36 l 2
 63 27 60 23 58 18 c 1
 56 15 56 10 57 8 c 1
 58 4 65 -3 74 -10 c 0
 80 -16 82 -18 82 -20 c 0
 82 -26 76 -30 72 -28 c 1
 70 -28 25 21 22 25 c 0
 20 28 18 32 16 38 c 1
 16 41 l 1
 9 38 l 1
 -12 28 l 2
 -26 21 -26 21 -28 22 c 1
 -30 22 -30 24 -30 26 c 1
 -28 29 -20 38 -4 55 c 0
 14 72 18 78 25 86 c 0
 34 97 42 110 46 120 c 1
 46 122 48 124 48 124 c 1
EndSplineSet
EndChar
StartChar: scripts.trilelement
Encoding: 57714 57714 143
Width: 52
GlyphClass: 2
Flags: MW
HStem: -62 124<-21 18>
VStem: -60 120<-6 6>
Fore
-21 62 m 2
 -17 62 l 2
 -12 62 -12 63 14 30 c 2
 40 0 l 1
 42 2 l 1
 44 6 l 1
 45 4 l 1
 60 -6 l 1
 60 -6 24 -59 24 -60 c 1
 22 -62 19 -62 17 -62 c 0
 12 -62 12 -63 -14 -30 c 2
 -40 0 l 1
 -42 -2 l 1
 -44 -6 l 1
 -45 -4 l 1
 -60 6 l 1
 -60 6 -24 59 -24 60 c 1
 -23 60 -22 62 -21 62 c 2
EndSplineSet
EndChar
StartChar: scripts.prall
Encoding: 57715 57715 144
Width: 104
GlyphClass: 2
Flags: MW
HStem: -62 124<-73 -33.5>
Fore
-73 62 m 1
 -69 62 l 2
 -64 62 -64 63 -38 30 c 2
 -12 0 l 1
 8 29 l 2
 18 46 28 59 28 60 c 1
 29 61 32 62 35 62 c 0
 40 62 40 63 66 30 c 2
 92 0 l 1
 99 10 l 1
 102 16 106 22 108 24 c 0
 112 30 122 28 124 22 c 1
 126 19 126 16 125 14 c 0
 124 12 78 -58 76 -60 c 0
 75 -61 72 -62 69 -62 c 0
 64 -62 64 -63 38 -30 c 2
 12 0 l 1
 -8 -29 l 2
 -18 -46 -28 -59 -28 -60 c 1
 -29 -61 -32 -62 -35 -62 c 0
 -40 -62 -40 -63 -66 -30 c 2
 -92 0 l 1
 -99 -10 l 1
 -102 -16 -106 -22 -108 -23 c 1
 -111 -28 -118 -29 -122 -25 c 0
 -125 -22 -126 -18 -125 -14 c 1
 -124 -12 -78 58 -76 60 c 2
 -76 60 -74 61 -73 62 c 1
EndSplineSet
EndChar
StartChar: scripts.mordent
Encoding: 57716 57716 145
Width: 104
GlyphClass: 2
Flags: MW
HStem: -83 165
VStem: -10 20<-76 -55 -55 -39 -76 -34 -76 -34 34 38 38 55 55 76>
Fore
-4 82 m 0
 0 84 6 83 9 78 c 2
 10 76 l 1
 10 55 l 1
 10 34 l 1
 19 46 l 1
 28 60 l 1
 30 62 33 62 35 62 c 0
 40 62 40 63 66 30 c 2
 92 0 l 1
 99 10 l 1
 102 16 106 22 108 24 c 0
 111 28 118 29 122 25 c 0
 125 22 126 18 125 14 c 1
 124 12 78 -58 76 -60 c 0
 75 -61 72 -62 69 -62 c 0
 64 -62 64 -63 38 -30 c 2
 12 0 l 1
 11 -2 10 -6 10 -39 c 2
 10 -76 l 1
 9 -78 l 1
 6 -82 4 -83 0 -83 c 0
 -4 -83 -6 -82 -8 -78 c 1
 -10 -76 l 1
 -10 -55 l 1
 -10 -34 l 1
 -18 -46 l 1
 -28 -60 l 2
 -30 -62 -32 -62 -35 -62 c 0
 -40 -62 -40 -63 -66 -30 c 2
 -92 0 l 1
 -99 -10 l 1
 -102 -16 -106 -22 -108 -23 c 1
 -111 -28 -118 -29 -122 -25 c 0
 -125 -22 -126 -18 -125 -14 c 1
 -124 -12 -78 58 -76 60 c 0
 -75 61 -72 62 -69 62 c 0
 -64 62 -64 63 -38 30 c 2
 -12 0 l 1
 -11 2 l 1
 -10 3 l 1
 -10 38 l 1
 -10 76 l 1
 -9 78 -6 81 -4 82 c 0
EndSplineSet
EndChar
StartChar: scripts.prallprall
Encoding: 57717 57717 146
Width: 156
GlyphClass: 2
Flags: MW
HStem: -62 124<-125 -85.5>
Fore
-125 62 m 1
 -121 62 l 2
 -116 62 -116 63 -90 30 c 2
 -64 0 l 1
 -44 29 l 2
 -34 46 -24 59 -24 60 c 1
 -23 61 -20 62 -17 62 c 0
 -12 62 -12 63 14 30 c 2
 40 0 l 1
 60 29 l 2
 70 46 80 59 80 60 c 1
 81 61 84 62 87 62 c 0
 92 62 92 63 118 30 c 2
 144 0 l 1
 151 10 l 1
 154 16 158 22 160 24 c 0
 164 30 174 28 176 22 c 1
 178 19 178 16 177 14 c 0
 176 12 130 -58 128 -60 c 0
 127 -61 124 -62 121 -62 c 0
 116 -62 116 -63 90 -30 c 2
 64 0 l 1
 44 -29 l 2
 34 -46 24 -59 24 -60 c 1
 23 -61 20 -62 17 -62 c 0
 12 -62 12 -63 -14 -30 c 2
 -40 0 l 1
 -60 -29 l 2
 -70 -46 -80 -59 -80 -60 c 1
 -81 -61 -84 -62 -87 -62 c 0
 -92 -62 -92 -63 -118 -30 c 2
 -144 0 l 1
 -151 -10 l 1
 -154 -16 -158 -22 -160 -23 c 1
 -163 -28 -170 -29 -174 -25 c 0
 -177 -22 -178 -18 -177 -14 c 1
 -176 -12 -130 58 -128 60 c 2
 -128 60 -126 61 -125 62 c 1
EndSplineSet
EndChar
StartChar: scripts.prallmordent
Encoding: 57718 57718 147
Width: 156
GlyphClass: 2
Flags: MW
HStem: -83 165
VStem: 42 20<-76 -55 -55 -39 -76 -34 -76 -34 34 38 38 55 55 76>
Fore
48 82 m 0
 52 84 58 83 61 78 c 2
 62 76 l 1
 62 55 l 1
 62 34 l 1
 71 46 l 1
 80 60 l 1
 82 62 85 62 87 62 c 0
 92 62 92 63 118 30 c 2
 144 0 l 1
 151 10 l 1
 154 16 158 22 160 24 c 0
 163 28 170 29 174 25 c 0
 177 22 178 18 177 14 c 1
 176 12 130 -58 128 -60 c 0
 127 -61 124 -62 121 -62 c 0
 116 -62 116 -63 90 -30 c 2
 64 0 l 1
 63 -2 62 -6 62 -39 c 2
 62 -76 l 1
 61 -78 l 1
 58 -82 56 -83 52 -83 c 0
 48 -83 46 -82 44 -78 c 1
 42 -76 l 1
 42 -55 l 1
 42 -34 l 1
 34 -46 l 1
 24 -60 l 2
 22 -62 20 -62 17 -62 c 0
 12 -62 12 -63 -14 -30 c 2
 -40 0 l 1
 -60 -29 l 2
 -70 -46 -80 -59 -80 -60 c 1
 -81 -61 -84 -62 -87 -62 c 0
 -92 -62 -92 -63 -118 -30 c 2
 -144 0 l 1
 -151 -10 l 1
 -154 -16 -158 -22 -160 -23 c 1
 -164 -30 -174 -28 -176 -22 c 1
 -178 -19 -178 -16 -177 -14 c 0
 -176 -12 -130 58 -128 60 c 0
 -127 61 -124 62 -121 62 c 0
 -116 62 -116 63 -90 30 c 2
 -64 0 l 1
 -44 29 l 2
 -34 46 -24 59 -24 60 c 1
 -23 61 -20 62 -17 62 c 0
 -12 62 -12 63 14 30 c 2
 40 0 l 1
 41 2 l 1
 42 3 l 1
 42 38 l 1
 42 76 l 1
 43 78 46 81 48 82 c 0
EndSplineSet
EndChar
StartChar: scripts.upprall
Encoding: 57719 57719 148
Width: 156
GlyphClass: 2
Flags: MW
HStem: -152 214<-169.5 -121>
VStem: -196 20<-95 -73.5>
Fore
-125 62 m 1
 -121 62 l 2
 -116 62 -116 63 -90 30 c 2
 -64 0 l 1
 -44 29 l 2
 -34 46 -24 59 -24 60 c 1
 -23 61 -20 62 -17 62 c 0
 -12 62 -12 63 14 30 c 2
 40 0 l 1
 60 29 l 2
 70 46 80 59 80 60 c 1
 81 61 84 62 87 62 c 0
 92 62 92 63 118 30 c 2
 144 0 l 1
 151 10 l 1
 154 16 158 22 160 24 c 0
 164 30 174 28 176 22 c 1
 178 19 178 16 177 14 c 0
 176 12 130 -58 128 -60 c 0
 127 -61 124 -62 121 -62 c 0
 116 -62 116 -63 90 -30 c 2
 64 0 l 1
 44 -29 l 2
 34 -46 24 -59 24 -60 c 1
 23 -61 20 -62 17 -62 c 0
 12 -62 12 -63 -14 -30 c 2
 -40 0 l 1
 -60 -29 l 2
 -70 -46 -80 -59 -80 -60 c 1
 -81 -61 -84 -62 -87 -62 c 0
 -92 -62 -92 -63 -118 -30 c 2
 -144 0 l 1
 -146 -4 l 1
 -148 -6 -152 -13 -156 -18 c 0
 -164 -30 -166 -34 -168 -40 c 2
 -172 -48 -174 -55 -175 -63 c 0
 -176 -71 -176 -88 -176 -95 c 1
 -173 -110 -168 -121 -160 -134 c 0
 -158 -138 -158 -140 -157 -142 c 1
 -157 -146 -158 -148 -162 -150 c 1
 -164 -152 -164 -152 -167 -152 c 0
 -172 -152 -174 -151 -178 -145 c 0
 -184 -136 -190 -122 -193 -110 c 0
 -196 -99 -196 -92 -196 -80 c 0
 -196 -67 -196 -61 -192 -49 c 0
 -188 -32 -184 -24 -163 8 c 2
 -138 46 l 2
 -133 52 -129 59 -128 60 c 2
 -128 60 -126 61 -125 62 c 1
EndSplineSet
EndChar
StartChar: scripts.upmordent
Encoding: 57720 57720 149
Width: 156
GlyphClass: 2
Flags: MW
HStem: -152 234
VStem: -196 20<-95 -73.5> 42 20<-76 -55 -55 -39 -76 -34 -76 -34 34 38 38 55 55 76>
Fore
48 82 m 0
 52 84 58 83 61 78 c 2
 62 76 l 1
 62 55 l 1
 62 34 l 1
 71 46 l 1
 80 60 l 1
 82 62 85 62 87 62 c 0
 92 62 92 63 118 30 c 2
 144 0 l 1
 151 10 l 1
 154 16 158 22 160 24 c 0
 163 28 170 29 174 25 c 0
 177 22 178 18 177 14 c 1
 176 12 130 -58 128 -60 c 0
 127 -61 124 -62 121 -62 c 0
 116 -62 116 -63 90 -30 c 2
 64 0 l 1
 63 -2 62 -6 62 -39 c 2
 62 -76 l 1
 61 -78 l 1
 58 -82 56 -83 52 -83 c 0
 48 -83 46 -82 44 -78 c 1
 42 -76 l 1
 42 -55 l 1
 42 -34 l 1
 34 -46 l 1
 24 -60 l 2
 22 -62 20 -62 17 -62 c 0
 12 -62 12 -63 -14 -30 c 2
 -40 0 l 1
 -60 -29 l 2
 -70 -46 -80 -59 -80 -60 c 1
 -81 -61 -84 -62 -87 -62 c 0
 -92 -62 -92 -63 -118 -30 c 2
 -144 0 l 1
 -146 -4 l 1
 -148 -6 -152 -13 -156 -18 c 0
 -164 -30 -166 -34 -168 -40 c 2
 -172 -48 -174 -55 -175 -63 c 0
 -176 -71 -176 -88 -176 -95 c 1
 -173 -110 -168 -121 -160 -134 c 0
 -158 -138 -158 -140 -157 -142 c 1
 -157 -146 -158 -148 -162 -150 c 1
 -164 -152 -164 -152 -167 -152 c 0
 -172 -152 -174 -151 -178 -145 c 0
 -184 -136 -190 -122 -193 -110 c 0
 -196 -99 -196 -92 -196 -80 c 0
 -196 -67 -196 -61 -192 -49 c 0
 -188 -32 -184 -24 -163 8 c 0
 -154 22 -142 39 -138 46 c 2
 -128 60 l 2
 -126 62 -123 62 -121 62 c 0
 -116 62 -116 63 -90 30 c 2
 -64 0 l 1
 -44 29 l 2
 -34 46 -24 59 -24 60 c 1
 -23 61 -20 62 -17 62 c 0
 -12 62 -12 63 14 30 c 2
 40 0 l 1
 41 2 l 1
 42 3 l 1
 42 38 l 1
 42 76 l 1
 43 78 46 81 48 82 c 0
EndSplineSet
EndChar
StartChar: scripts.pralldown
Encoding: 57721 57721 150
Width: 156
GlyphClass: 2
Flags: MW
VStem: 176 20<-95 -73.5>
Fore
-92 62 m 1
 -88 63 -82 62 -80 60 c 1
 -80 59 -70 46 -60 29 c 2
 -40 0 l 1
 -14 30 l 2
 12 63 12 62 17 62 c 0
 20 62 23 61 24 60 c 1
 24 59 34 46 44 29 c 2
 64 0 l 1
 90 30 l 2
 116 63 116 62 121 62 c 0
 123 62 126 62 128 60 c 2
 138 46 l 2
 142 39 154 22 163 8 c 0
 184 -24 188 -32 192 -49 c 0
 196 -61 196 -67 196 -80 c 0
 196 -92 196 -99 193 -110 c 0
 190 -122 184 -136 178 -145 c 0
 174 -151 172 -152 167 -152 c 0
 164 -152 164 -152 162 -150 c 1
 158 -148 157 -146 157 -142 c 1
 158 -140 158 -138 160 -134 c 0
 168 -121 173 -110 176 -95 c 1
 176 -88 176 -71 175 -63 c 0
 174 -55 172 -48 168 -40 c 2
 166 -34 164 -30 156 -18 c 0
 152 -13 148 -6 146 -4 c 1
 144 0 l 1
 118 -30 l 2
 92 -63 92 -62 87 -62 c 0
 84 -62 81 -61 80 -60 c 1
 80 -59 70 -46 60 -29 c 2
 40 0 l 1
 14 -30 l 2
 -12 -63 -12 -62 -17 -62 c 0
 -20 -62 -23 -61 -24 -60 c 1
 -24 -59 -34 -46 -44 -29 c 2
 -64 0 l 1
 -90 -30 l 2
 -116 -63 -116 -62 -121 -62 c 0
 -124 -62 -127 -61 -128 -60 c 0
 -130 -58 -176 12 -177 14 c 0
 -178 16 -178 19 -176 22 c 1
 -174 28 -164 30 -160 24 c 0
 -158 22 -154 16 -151 10 c 1
 -144 0 l 1
 -118 30 l 2
 -98 56 -93 61 -92 62 c 1
EndSplineSet
EndChar
StartChar: scripts.downprall
Encoding: 57722 57722 151
Width: 156
GlyphClass: 2
Flags: MW
HStem: -62 179
Fore
-172 117 m 0
 -167 120 -160 118 -158 112 c 0
 -156 108 -156 106 -160 100 c 0
 -162 96 -165 92 -166 90 c 0
 -176 70 -179 46 -174 24 c 0
 -172 15 -168 2 -166 2 c 1
 -148 31 l 2
 -137 46 -128 60 -128 60 c 2
 -126 62 -123 62 -121 62 c 0
 -116 62 -116 63 -90 30 c 2
 -64 0 l 1
 -44 29 l 2
 -34 46 -24 59 -24 60 c 1
 -23 61 -20 62 -17 62 c 0
 -12 62 -12 63 14 30 c 2
 40 0 l 1
 60 29 l 2
 70 46 80 59 80 60 c 1
 81 61 84 62 87 62 c 0
 92 62 92 63 118 30 c 2
 144 0 l 1
 151 10 l 1
 154 16 158 22 160 24 c 0
 163 28 170 29 174 25 c 0
 177 22 178 18 177 14 c 1
 176 12 130 -58 128 -60 c 0
 127 -61 124 -62 121 -62 c 0
 116 -62 116 -63 90 -30 c 2
 64 0 l 1
 44 -29 l 2
 34 -46 24 -59 24 -60 c 1
 23 -61 20 -62 17 -62 c 0
 12 -62 12 -63 -14 -30 c 2
 -40 0 l 1
 -60 -29 l 2
 -70 -46 -80 -59 -80 -60 c 1
 -81 -61 -84 -62 -87 -62 c 0
 -92 -62 -92 -63 -118 -30 c 2
 -144 0 l 1
 -151 -10 l 2
 -160 -24 -160 -25 -163 -26 c 0
 -167 -28 -172 -28 -175 -24 c 0
 -176 -22 -181 -14 -184 -8 c 0
 -202 28 -200 71 -180 106 c 0
 -176 112 -174 116 -172 117 c 0
EndSplineSet
EndChar
StartChar: scripts.downmordent
Encoding: 57723 57723 152
Width: 156
GlyphClass: 2
Flags: MW
VStem: 42 20<-76 -55 -55 -39 -76 -34 -76 -34 34 40 40 55 55 76>
Fore
-172 117 m 0
 -167 120 -160 118 -158 112 c 0
 -156 108 -156 106 -160 100 c 0
 -162 96 -165 92 -166 90 c 0
 -176 70 -179 46 -174 24 c 0
 -172 15 -168 2 -166 2 c 1
 -148 31 l 2
 -137 46 -128 60 -128 60 c 2
 -126 62 -123 62 -121 62 c 0
 -116 62 -116 63 -90 30 c 2
 -64 0 l 1
 -44 29 l 2
 -34 46 -24 59 -24 60 c 1
 -23 61 -20 62 -17 62 c 0
 -12 62 -12 63 14 30 c 2
 40 0 l 1
 41 1 l 1
 42 3 l 1
 42 40 l 1
 42 76 l 1
 44 78 l 1
 46 82 48 84 52 84 c 0
 56 84 58 82 61 78 c 1
 62 76 l 1
 62 55 l 1
 62 34 l 1
 71 46 l 1
 80 60 l 1
 82 62 85 62 87 62 c 0
 92 62 92 63 118 30 c 2
 144 0 l 1
 151 10 l 1
 154 16 158 22 160 24 c 0
 163 28 170 29 174 25 c 0
 177 22 178 18 177 14 c 1
 176 12 130 -58 128 -60 c 0
 127 -61 124 -62 121 -62 c 0
 116 -62 116 -63 90 -30 c 2
 64 0 l 1
 63 -2 62 -6 62 -39 c 2
 62 -76 l 1
 61 -78 l 1
 58 -82 56 -83 52 -83 c 0
 48 -83 46 -82 44 -78 c 1
 42 -76 l 1
 42 -55 l 1
 42 -34 l 1
 34 -46 l 1
 24 -60 l 2
 22 -62 20 -62 17 -62 c 0
 12 -62 12 -63 -14 -30 c 2
 -40 0 l 1
 -60 -29 l 2
 -70 -46 -80 -59 -80 -60 c 1
 -81 -61 -84 -62 -87 -62 c 0
 -92 -62 -92 -63 -118 -30 c 2
 -144 0 l 1
 -151 -10 l 2
 -160 -24 -160 -25 -163 -26 c 0
 -167 -28 -172 -28 -175 -24 c 0
 -176 -22 -181 -14 -184 -8 c 0
 -202 28 -200 71 -180 106 c 0
 -176 112 -174 116 -172 117 c 0
EndSplineSet
EndChar
StartChar: scripts.prallup
Encoding: 57724 57724 153
Width: 156
GlyphClass: 2
Flags: MW
HStem: -62 180
Fore
164 118 m 1
 168 119 172 118 176 114 c 1
 180 107 186 95 190 84 c 0
 200 54 198 21 184 -8 c 0
 181 -14 176 -22 175 -24 c 0
 172 -28 167 -28 163 -26 c 0
 160 -25 160 -24 151 -10 c 2
 144 0 l 1
 118 -30 l 2
 92 -63 92 -62 87 -62 c 0
 84 -62 81 -61 80 -60 c 1
 80 -59 70 -46 60 -29 c 2
 40 0 l 1
 14 -30 l 2
 -12 -63 -12 -62 -17 -62 c 0
 -20 -62 -23 -61 -24 -60 c 1
 -24 -59 -34 -46 -44 -29 c 2
 -64 0 l 1
 -90 -30 l 2
 -116 -63 -116 -62 -121 -62 c 0
 -124 -62 -127 -61 -128 -60 c 0
 -130 -58 -176 12 -177 14 c 0
 -178 16 -178 19 -176 22 c 1
 -174 28 -164 30 -160 24 c 0
 -158 22 -154 16 -151 10 c 1
 -144 0 l 1
 -118 30 l 2
 -92 63 -92 62 -87 62 c 0
 -84 62 -81 61 -80 60 c 1
 -80 59 -70 46 -60 29 c 2
 -40 0 l 1
 -14 30 l 2
 12 63 12 62 17 62 c 0
 20 62 23 61 24 60 c 1
 24 59 34 46 44 29 c 2
 64 0 l 1
 90 30 l 2
 116 63 116 62 121 62 c 0
 123 62 126 62 128 60 c 2
 128 60 137 46 148 31 c 2
 166 2 l 1
 168 2 172 15 174 24 c 0
 180 50 175 76 160 100 c 0
 157 106 156 108 158 112 c 0
 159 114 162 117 164 118 c 1
EndSplineSet
EndChar
StartChar: scripts.lineprall
Encoding: 57725 57725 154
Width: 156
GlyphClass: 2
Flags: MW
VStem: -178 21<126 147.5>
Fore
-172 242 m 1
 -167 244 -162 242 -158 238 c 1
 -157 236 l 1
 -157 126 l 1
 -156 17 l 1
 -143 38 l 2
 -136 49 -129 59 -128 60 c 0
 -127 61 -124 62 -121 62 c 0
 -116 62 -116 63 -90 30 c 2
 -64 0 l 1
 -44 29 l 2
 -34 46 -24 59 -24 60 c 1
 -23 61 -20 62 -17 62 c 0
 -12 62 -12 63 14 30 c 2
 40 0 l 1
 60 29 l 2
 70 46 80 59 80 60 c 1
 81 61 84 62 87 62 c 0
 92 62 92 63 118 30 c 2
 144 0 l 1
 151 10 l 1
 154 16 158 22 160 24 c 0
 163 28 170 29 174 25 c 0
 177 22 178 18 177 14 c 1
 176 12 130 -58 128 -60 c 0
 127 -61 124 -62 121 -62 c 0
 116 -62 116 -63 90 -30 c 2
 64 0 l 1
 44 -29 l 2
 34 -46 24 -59 24 -60 c 1
 23 -61 20 -62 17 -62 c 0
 12 -62 12 -63 -14 -30 c 2
 -40 0 l 1
 -60 -29 l 2
 -70 -46 -80 -59 -80 -60 c 1
 -81 -61 -84 -62 -87 -62 c 0
 -92 -62 -92 -63 -118 -30 c 2
 -144 0 l 1
 -151 -10 l 1
 -154 -16 -158 -22 -160 -23 c 1
 -164 -30 -174 -28 -176 -22 c 1
 -178 -20 -178 -15 -178 107 c 0
 -178 188 -178 234 -177 236 c 0
 -176 238 -174 240 -172 242 c 1
EndSplineSet
EndChar
StartChar: scripts.caesura
Encoding: 57726 57726 155
Width: 250
GlyphClass: 2
Flags: MW
VStem: 50 31<134 138.5>
Fore
61 156 m 1
 64 156 69 156 72 154 c 2
 76 153 78 150 80 147 c 1
 81 144 81 144 81 138 c 0
 81 128 78 102 74 84 c 0
 66 32 48 -24 22 -84 c 0
 17 -97 16 -98 13 -99 c 0
 10 -100 8 -100 6 -99 c 0
 3 -98 2 -97 1 -94 c 0
 0 -92 0 -90 4 -80 c 0
 29 -18 43 46 50 134 c 0
 50 143 50 144 52 147 c 1
 54 152 56 154 61 156 c 1
136 156 m 1
 139 156 144 156 147 154 c 2
 150 153 153 150 155 147 c 1
 156 144 156 144 156 138 c 0
 156 128 153 102 150 84 c 0
 140 32 123 -24 98 -84 c 0
 92 -97 92 -98 88 -99 c 1
 86 -100 83 -100 80 -99 c 0
 78 -98 77 -97 76 -94 c 1
 74 -92 74 -90 78 -80 c 0
 104 -18 118 46 124 134 c 2
 126 143 126 144 126 147 c 1
 128 152 132 154 136 156 c 1
EndSplineSet
EndChar
StartChar: flags.u3
Encoding: 57727 57727 156
Width: 112
GlyphClass: 2
Flags: MW
HStem: -20 20G<-17 -8 -8 0 0 0>
VStem: -17 17<-125 -62 -9.5 -3 -3 0>
Fore
-17 -62 m 1
 -17 0 l 1
 -8 0 l 1
 0 0 l 1
 0 -3 l 2
 0 -16 4 -34 8 -49 c 0
 16 -72 26 -90 50 -130 c 0
 69 -160 76 -172 83 -186 c 0
 93 -207 100 -225 102 -243 c 0
 108 -274 102 -314 90 -354 c 0
 86 -366 84 -371 82 -372 c 1
 80 -374 76 -376 74 -376 c 0
 72 -376 67 -374 66 -372 c 2
 64 -371 62 -367 62 -365 c 0
 62 -364 63 -361 64 -358 c 0
 74 -336 80 -310 82 -287 c 0
 84 -278 84 -264 83 -258 c 0
 79 -222 56 -184 8 -133 c 2
 0 -125 l 1
 -8 -125 l 1
 -17 -125 l 1
 -17 -62 l 1
EndSplineSet
EndChar
StartChar: flags.u4
Encoding: 57728 57728 157
Width: 112
GlyphClass: 2
Flags: MW
HStem: -20 20G<-17 -8 -8 0 0 0>
VStem: -17 17<-250 -232 -232 -213 -111.5 -109 -109 -106 -6 0> 80 22<-234 -230 -238 -221 -238 -221> 82.8425 20.1575
Fore
-17 -125 m 1xd0
 -17 0 l 1
 -8 0 l 1
 0 0 l 1
 0 -6 l 2
 2 -26 7 -45 18 -66 c 0
 26 -80 32 -90 51 -118 c 2
 69 -144 l 2
 90 -178 100 -204 102 -230 c 0xe0
 102 -246 99 -262 92 -276 c 1
 92 -279 90 -282 90 -282 c 1
 90 -284 92 -287 93 -290 c 0
 98 -302 102 -318 104 -332 c 0
 105 -339 104 -354 103 -364 c 0
 101 -384 95 -406 86 -428 c 0
 83 -434 82 -436 78 -438 c 0
 75 -439 73 -439 70 -438 c 0
 66 -436 64 -434 63 -432 c 1
 62 -428 62 -426 65 -420 c 0
 75 -398 81 -376 83 -354 c 0
 84 -333 82 -318 72 -299 c 0
 65 -284 56 -271 40 -253 c 0
 34 -246 10 -222 4 -216 c 1
 0 -213 l 1
 0 -232 l 1
 0 -250 l 1
 -8 -250 l 1
 -17 -250 l 1
 -17 -125 l 1xd0
34 -142 m 2
 32 -138 22 -128 14 -120 c 2
 0 -106 l 1
 0 -109 l 2
 0 -114 1 -122 2 -129 c 0
 4 -142 9 -153 16 -167 c 0
 24 -182 32 -194 54 -226 c 0
 60 -236 68 -248 72 -252 c 1
 76 -259 l 1
 78 -256 l 1
 80 -248 80 -244 80 -234 c 2
 80 -221 l 1
 74 -196 61 -172 34 -142 c 2
EndSplineSet
EndChar
StartChar: flags.u5
Encoding: 57729 57729 158
Width: 104
GlyphClass: 2
Flags: MW
HStem: -20 20G<-17 -8 -8 0 0 0>
VStem: -17 17<-375 -349 -349 -324 -226.5 -219 -219 -215 -113 -109.5 -6 0> 74 22<-254 -220> 76 20<-240 -231.5> 83 21
Fore
-17 -188 m 1xe0
 -17 0 l 1
 -8 0 l 1
 0 0 l 1
 0 -6 l 2
 2 -34 12 -60 34 -97 c 2
 49 -120 l 2
 66 -146 74 -158 80 -172 c 0
 88 -190 93 -204 96 -220 c 1xd0
 96 -252 l 1xe0
 94 -259 92 -266 90 -272 c 2
 88 -278 l 1
 90 -284 l 1
 96 -296 98 -306 100 -318 c 0
 102 -326 102 -344 100 -352 c 0
 98 -363 95 -374 92 -382 c 1
 90 -384 90 -386 90 -386 c 1
 93 -392 l 2
 102 -411 105 -428 104 -448 c 0
 104 -474 98 -500 86 -525 c 0
 82 -532 82 -534 78 -536 c 0
 75 -537 73 -537 70 -536 c 0
 66 -534 64 -532 63 -530 c 1
 62 -526 62 -524 64 -518 c 1
 75 -498 81 -476 83 -454 c 0xc8
 84 -436 82 -422 74 -406 c 0
 66 -389 54 -374 36 -356 c 2
 6 -328 l 1
 0 -324 l 1
 0 -349 l 1
 0 -375 l 1
 -8 -375 l 1
 -17 -375 l 1
 -17 -188 l 1xe0
8 -115 m 1
 4 -112 2 -108 1 -107 c 0
 0 -106 0 -106 0 -113 c 0
 1 -135 8 -156 24 -182 c 0
 28 -190 36 -202 52 -222 c 2
 69 -247 l 2
 71 -250 73 -254 74 -254 c 1xe0
 74 -253 75 -245 76 -240 c 1
 76 -223 70 -202 58 -181 c 0
 48 -162 32 -142 8 -115 c 1
10 -224 m 0
 6 -220 2 -216 1 -216 c 1
 0 -215 l 1
 0 -219 l 2
 0 -234 5 -253 14 -270 c 0
 22 -288 30 -300 54 -332 c 0
 64 -345 70 -354 74 -360 c 0xe0
 76 -363 76 -364 78 -354 c 0
 82 -339 81 -324 76 -310 c 0xd0
 72 -298 62 -280 52 -268 c 0
 42 -255 26 -238 10 -224 c 0
EndSplineSet
EndChar
StartChar: flags.u6
Encoding: 57730 57730 159
Width: 104
GlyphClass: 2
Flags: MW
HStem: -20 20G<-17 -8 -8 0 0 0>
VStem: -17 17<-500 -472 -472 -444 -348.5 -337 -337 -332 -238.5 -224 -224 -219 -122 -112 -112 -106 -6 0>
Fore
-17 -250 m 1
 -17 0 l 1
 -8 0 l 1
 0 0 l 1
 0 -6 l 2
 2 -34 12 -60 34 -96 c 0
 36 -100 42 -110 48 -119 c 2
 70 -156 l 2
 84 -181 92 -202 96 -224 c 1
 96 -232 96 -250 95 -258 c 0
 94 -265 92 -274 89 -280 c 2
 87 -284 l 1
 89 -289 l 2
 92 -296 96 -306 98 -313 c 0
 104 -340 102 -364 90 -390 c 1
 88 -398 l 1
 90 -403 l 2
 95 -414 98 -426 100 -438 c 0
 102 -445 102 -456 101 -462 c 0
 100 -474 94 -486 87 -496 c 1
 84 -499 l 1
 88 -506 l 2
 102 -534 107 -558 103 -588 c 0
 101 -609 94 -632 86 -651 c 0
 82 -658 82 -659 78 -661 c 0
 75 -662 73 -662 70 -661 c 0
 66 -660 64 -658 63 -655 c 0
 62 -652 62 -650 64 -644 c 1
 70 -634 76 -617 78 -606 c 0
 84 -586 84 -566 82 -552 c 0
 78 -532 66 -512 46 -488 c 0
 38 -480 22 -462 10 -452 c 2
 0 -444 l 1
 0 -472 l 1
 0 -500 l 1
 -8 -500 l 1
 -17 -500 l 1
 -17 -250 l 1
14 -122 m 0
 10 -118 5 -112 4 -110 c 1
 0 -106 l 1
 0 -112 l 2
 0 -132 5 -151 16 -172 c 0
 23 -187 32 -200 52 -230 c 2
 68 -252 l 2
 70 -256 73 -259 73 -258 c 1
 74 -258 75 -250 76 -244 c 1
 76 -228 71 -208 61 -188 c 0
 51 -168 36 -148 14 -122 c 0
15 -233 m 0
 9 -228 4 -222 2 -221 c 1
 0 -219 l 1
 0 -224 l 2
 0 -253 10 -280 34 -315 c 2
 49 -338 l 2
 55 -346 63 -357 67 -363 c 2
 74 -374 l 1
 74 -374 75 -372 76 -369 c 0
 80 -358 81 -344 80 -334 c 0
 76 -304 56 -273 15 -233 c 0
20 -350 m 0
 13 -344 6 -336 4 -334 c 1
 0 -332 l 1
 0 -337 l 2
 0 -360 8 -384 23 -410 c 0
 30 -422 36 -430 53 -453 c 0
 58 -460 64 -468 67 -473 c 0
 70 -477 72 -480 73 -480 c 0
 74 -480 78 -470 79 -466 c 0
 84 -448 78 -425 63 -402 c 0
 52 -385 42 -372 20 -350 c 0
EndSplineSet
EndChar
StartChar: flags.d3
Encoding: 57731 57731 160
Width: 134
GlyphClass: 2
Flags: MW
HStem: 0 21G<-17 -8 -17 -17 -8 0>
VStem: -17 17<0 2 0 62 123.5 124.5> 114 20<262 268>
Fore
94 361 m 2
 95 362 97 362 98 362 c 0
 101 362 105 360 106 358 c 1
 108 356 116 340 120 331 c 0
 129 308 134 286 134 262 c 0
 135 240 130 220 120 199 c 0
 110 180 98 164 69 130 c 0
 48 106 40 96 31 84 c 0
 18 67 10 48 4 32 c 0
 2 24 0 10 0 2 c 2
 0 0 l 1
 -8 0 l 1
 -17 0 l 1
 -17 62 l 1
 -17 125 l 1
 -8 125 l 2
 -3 125 0 125 0 124 c 0
 0 123 34 145 49 158 c 0
 91 190 112 222 114 254 c 0
 114 282 105 316 88 345 c 1
 86 350 86 352 88 356 c 0
 89 358 90 360 94 361 c 2
EndSplineSet
EndChar
StartChar: flags.ugrace
Encoding: 57732 57732 161
Width: 104
GlyphClass: 2
Flags: MW
HStem: -282 168
VStem: -86 202
Fore
100 -114 m 1
 110 -109 121 -120 116 -130 c 1
 114 -132 110 -136 22 -207 c 0
 -40 -258 -70 -281 -72 -282 c 0
 -76 -284 -82 -282 -85 -278 c 0
 -88 -274 -88 -269 -86 -265 c 0
 -85 -262 -80 -258 6 -188 c 0
 58 -147 98 -114 100 -114 c 1
EndSplineSet
EndChar
StartChar: flags.dgrace
Encoding: 57733 57733 162
Width: 134
GlyphClass: 2
Flags: W
Fore
-101 268 m 0
 -98 269 -96 269 -94 268 c 2
 -91 268 140 134 142 133 c 0
 145 131 147 127 147 124 c 0
 147 118 142 112 136 112 c 2
 131 112 l 1
 128 113 -103 246 -105 248 c 1
 -106 248 -108 250 -108 252 c 1
 -110 254 -110 254 -110 258 c 1
 -109 262 -106 266 -101 268 c 0
EndSplineSet
EndChar
StartChar: flags.d4
Encoding: 57734 57734 163
Width: 134
GlyphClass: 2
Flags: MW
HStem: 0 21G<-17 -8 -17 -17 -8 0> 230 20G<-17 -8 -8 0 0 0>
VStem: -17 17<0 2 100 109 109 122 212 231 231 250> 106 22<214.5 220 220 223 214.5 225>
Fore
114 375 m 0
 117 376 120 376 122 375 c 0
 126 373 128 372 130 363 c 0
 132 355 134 344 134 336 c 0
 135 316 130 298 118 280 c 1
 117 276 116 274 116 274 c 1
 116 274 116 270 118 267 c 1
 124 252 127 238 128 223 c 0
 128 206 125 190 117 175 c 0
 108 157 98 144 72 118 c 0
 40 86 35 80 26 68 c 0
 14 52 6 36 2 20 c 0
 1 14 0 7 0 2 c 2
 0 0 l 1
 -8 0 l 1
 -17 0 l 1
 -17 125 l 1
 -17 250 l 1
 -8 250 l 1
 0 250 l 1
 0 231 l 1
 0 212 l 1
 4 215 l 1
 42 234 64 250 82 268 c 0
 112 298 120 328 108 358 c 0
 106 364 106 366 108 370 c 0
 109 372 110 374 114 375 c 0
103 244 m 0
 102 248 101 251 100 252 c 1
 100 254 l 1
 94 248 l 2
 90 244 78 232 67 222 c 0
 46 202 37 193 30 184 c 0
 12 163 3 144 0 122 c 2
 0 109 l 1
 0 100 l 1
 6 104 l 2
 35 120 58 137 74 153 c 0
 92 171 102 188 106 206 c 1
 106 220 l 2
 106 230 106 235 103 244 c 0
EndSplineSet
EndChar
StartChar: flags.d5
Encoding: 57735 57735 164
Width: 134
GlyphClass: 2
Flags: MW
HStem: 0 21G<-17 -8 -17 -17 -8 0>
VStem: -17 17<0 6 105 114 218 226 330 352 352 375>
Fore
114 486 m 1
 117 488 120 487 123 486 c 0
 127 484 128 482 131 470 c 0
 134 460 134 454 134 443 c 0
 134 434 134 432 133 427 c 0
 131 415 126 402 118 390 c 2
 116 386 l 1
 116 384 l 1
 120 376 126 363 128 354 c 0
 134 327 130 302 115 278 c 2
 112 274 l 1
 114 269 l 2
 130 238 126 202 105 168 c 0
 96 154 87 142 64 118 c 2
 38 86 l 2
 13 56 2 32 0 6 c 2
 0 0 l 1
 -8 0 l 1
 -17 0 l 1
 -17 188 l 1
 -17 375 l 1
 -8 375 l 1
 0 375 l 1
 0 352 l 1
 0 330 l 1
 11 335 l 2
 61 360 92 386 106 412 c 0
 115 430 116 450 108 470 c 0
 106 475 106 477 108 480 c 1
 109 484 110 485 114 486 c 1
104 359 m 0
 103 362 102 364 102 366 c 1
 100 367 l 1
 94 360 l 1
 68 334 l 2
 48 316 40 308 33 300 c 0
 19 284 10 269 5 254 c 0
 2 244 0 238 0 226 c 2
 0 218 l 1
 8 222 l 2
 40 238 63 254 80 270 c 0
 90 282 98 290 102 301 c 2
 107 310 109 318 110 328 c 0
 110 338 108 348 104 359 c 0
99 250 m 0
 98 252 98 254 98 254 c 1
 94 250 l 1
 64 221 l 2
 50 206 36 192 33 188 c 0
 15 167 6 150 2 130 c 2
 0 125 0 122 0 114 c 2
 0 105 l 1
 9 111 l 2
 63 147 92 180 100 212 c 0
 104 225 104 237 99 250 c 0
EndSplineSet
EndChar
StartChar: flags.d6
Encoding: 57736 57736 165
Width: 134
GlyphClass: 2
Flags: MW
HStem: 0 21G<-17 -8 -17 -17 -8 0>
VStem: -17 17<0 7 102 113 212 222 325 336 438 468 468 500> 94 20<234 251 251 256 256 262 262 262>
Fore
118 548 m 2
 121 550 124 550 127 548 c 0
 130 546 132 545 132 540 c 1
 134 526 135 508 134 500 c 1
 132 494 130 487 127 482 c 2
 124 477 l 1
 126 472 l 1
 126 470 128 465 128 461 c 0
 132 436 131 418 123 401 c 2
 121 396 l 1
 122 387 l 2
 126 364 128 342 126 328 c 0
 124 318 120 308 116 298 c 2
 114 294 l 1
 114 286 l 1
 114 256 l 1
 114 228 l 1
 110 204 102 186 85 162 c 0
 78 151 71 142 54 120 c 0
 37 97 28 84 20 71 c 0
 8 49 1 28 0 7 c 2
 0 0 l 1
 -8 0 l 1
 -17 0 l 1
 -17 250 l 1
 -17 500 l 1
 -8 500 l 1
 0 500 l 1
 0 468 l 1
 0 438 l 1
 2 438 l 1
 38 444 70 456 89 470 c 0
 101 479 109 490 112 502 c 0
 114 507 114 520 112 530 c 0
 110 538 110 540 112 542 c 1
 113 546 114 548 118 548 c 2
109 444 m 0
 108 448 108 452 108 454 c 2
 108 456 l 1
 103 452 l 2
 96 446 88 440 76 431 c 0
 42 408 38 404 28 395 c 0
 16 384 8 371 4 358 c 0
 1 351 0 348 0 336 c 2
 0 325 l 1
 8 329 l 2
 40 345 64 361 81 378 c 0
 92 388 98 397 102 407 c 0
 108 419 110 430 109 444 c 0
104 362 m 1
 104 368 l 2
 104 369 102 368 100 365 c 0
 94 358 84 348 65 330 c 0
 40 307 33 300 24 288 c 0
 13 274 6 260 2 246 c 1
 1 238 0 231 0 222 c 2
 0 212 l 1
 6 216 l 2
 16 223 24 230 32 236 c 0
 78 271 102 304 105 336 c 0
 106 342 106 354 104 362 c 1
94 234 m 1
 94 251 l 1
 94 262 l 1
 94 262 92 262 91 260 c 0
 87 254 78 244 64 229 c 0
 46 210 42 205 35 196 c 0
 16 172 6 152 2 130 c 2
 0 126 0 120 0 113 c 2
 0 102 l 1
 2 104 l 2
 6 108 26 126 33 134 c 0
 70 172 89 204 94 234 c 1
EndSplineSet
EndChar
StartChar: clefs.C
Encoding: 57737 57737 166
Width: 340
GlyphClass: 2
Flags: MW
HStem: -36 16 20 16 230 20G<3 35 35 67 67 67 94 102 102 106>
VStem: 0 70<-247 0 -247 0 0 247 247 247> 92 22<-247 -128 -128 -10 10 128 128 247 247 247> 278 62
Fore
2 248 m 1
 3 250 l 1
 35 250 l 1
 67 250 l 1
 68 248 l 1
 70 248 l 1
 70 0 l 1
 70 -247 l 1
 68 -248 l 1
 66 -250 l 1
 34 -250 l 1
 2 -250 l 1
 2 -248 l 1
 0 -248 l 1
 0 0 l 1
 0 247 l 1
 2 248 l 1
93 248 m 1
 94 250 l 1
 102 250 l 2
 110 250 111 250 112 248 c 1
 114 248 l 1
 114 128 l 1
 114 10 l 1
 117 14 l 2
 140 38 153 69 155 104 c 0
 155 111 156 112 156 114 c 1
 158 116 162 118 166 116 c 0
 169 114 170 113 170 106 c 0
 172 85 177 68 188 55 c 0
 194 46 204 40 215 36 c 1
 228 36 l 1
 242 36 l 1
 253 40 260 44 266 54 c 0
 275 68 278 90 278 132 c 0
 277 168 274 189 266 206 c 0
 259 218 249 227 236 232 c 1
 227 234 212 236 205 234 c 0
 195 232 189 226 188 218 c 0
 188 212 190 206 198 200 c 0
 208 191 211 188 212 180 c 0
 212 174 210 166 206 160 c 0
 204 156 196 148 193 146 c 0
 180 139 166 139 154 146 c 0
 150 148 142 156 140 160 c 0
 136 168 134 177 136 189 c 0
 139 211 154 230 176 242 c 0
 190 249 204 251 226 250 c 0
 287 246 323 218 336 167 c 0
 339 152 341 129 340 115 c 0
 336 84 320 58 293 40 c 0
 276 29 258 22 238 20 c 0
 223 19 219 20 206 28 c 0
 192 36 186 38 178 35 c 0
 171 32 166 26 164 16 c 0
 163 10 163 -10 164 -16 c 0
 166 -26 171 -32 178 -35 c 0
 186 -38 192 -36 206 -28 c 0
 219 -20 223 -19 238 -20 c 0
 284 -24 322 -54 335 -94 c 0
 340 -108 341 -121 340 -140 c 0
 338 -170 330 -192 315 -210 c 0
 296 -234 266 -247 226 -250 c 0
 204 -251 190 -249 176 -242 c 0
 154 -230 139 -211 136 -189 c 0
 134 -173 136 -162 146 -152 c 0
 152 -146 158 -143 166 -142 c 0
 176 -140 184 -142 193 -146 c 0
 196 -148 204 -156 206 -160 c 0
 210 -166 212 -174 212 -180 c 0
 211 -188 208 -191 198 -200 c 0
 190 -206 188 -212 188 -218 c 0
 189 -226 195 -232 205 -234 c 0
 212 -236 227 -234 236 -232 c 0
 244 -229 252 -224 256 -219 c 0
 268 -206 274 -188 277 -158 c 0
 278 -140 278 -104 276 -88 c 0
 272 -57 262 -42 242 -36 c 1
 228 -36 l 1
 215 -36 l 1
 195 -42 180 -60 174 -84 c 0
 172 -92 170 -97 170 -106 c 0
 170 -112 170 -113 168 -114 c 1
 166 -118 160 -118 156 -114 c 1
 156 -112 155 -112 155 -104 c 0
 153 -70 140 -38 117 -14 c 2
 114 -10 l 1
 114 -128 l 1
 114 -247 l 1
 112 -248 l 1
 110 -250 l 1
 102 -250 l 2
 94 -250 94 -250 93 -248 c 1
 92 -248 l 1
 92 0 l 1
 92 247 l 1
 93 248 l 1
EndSplineSet
EndChar
StartChar: clefs.C_change
Encoding: 57738 57738 167
Width: 274
GlyphClass: 3
Flags: MW
HStem: -200 14<166 179> 14 14 186 14
VStem: 0 56<-197 0 -197 0 0 197 197 197> 76 20<-197 -102 -102 -8 8 103 103 197 197 197> 76 60<-15 0 0 15 -15 197> 128 14<-82 -80 -82 -74 -82 -74 80 82> 226 48<-108.5 -96 -108.5 -74 86 120>
Fore
2 198 m 1xf1
 3 200 l 1
 28 200 l 1
 54 200 l 1
 55 198 l 1
 56 198 l 1
 56 0 l 1
 56 -197 l 1
 55 -198 l 1
 54 -200 l 1
 28 -200 l 1
 2 -200 l 1
 2 -198 l 1
 0 -198 l 1
 0 0 l 1
 0 197 l 1
 2 198 l 1xf1
78 198 m 1
 79 200 l 1
 86 200 l 2
 92 200 93 200 94 198 c 1
 96 198 l 1
 96 103 l 1
 96 8 l 1
 100 13 l 2
 108 22 113 29 118 40 c 0
 124 53 128 70 128 82 c 0
 128 86 130 89 132 90 c 0
 136 92 140 90 141 88 c 0
 142 86 142 84 142 80 c 0xfb
 144 52 158 32 178 28 c 1
 188 28 l 2
 212 29 222 42 226 74 c 0
 227 83 227 118 226 127 c 0
 224 147 220 159 214 168 c 0
 207 180 196 186 179 186 c 2
 170 186 l 1
 166 185 162 183 160 180 c 0
 158 178 158 178 158 174 c 0
 158 168 160 167 166 159 c 1
 174 152 174 150 175 145 c 0
 176 132 165 118 151 114 c 0
 141 112 131 116 124 123 c 0
 117 130 114 137 114 147 c 0
 116 173 138 195 166 200 c 1
 173 200 186 200 196 199 c 0
 228 194 251 180 264 156 c 1
 268 145 272 134 274 120 c 1
 274 86 l 1
 272 76 268 66 263 58 c 0
 249 34 224 18 194 14 c 0
 182 14 178 14 168 21 c 0
 165 23 160 26 159 26 c 2
 156 28 154 28 152 28 c 0
 148 28 147 28 144 27 c 1
 140 24 138 22 136 15 c 1
 136 -15 l 1xf5
 138 -22 140 -24 144 -27 c 1
 147 -28 148 -28 152 -28 c 0
 154 -28 156 -28 159 -26 c 2
 160 -26 165 -23 168 -21 c 0
 178 -14 182 -14 194 -14 c 1
 206 -16 216 -18 226 -24 c 0
 248 -34 264 -54 271 -76 c 0
 274 -86 274 -90 274 -102 c 0
 274 -115 274 -122 271 -132 c 0
 262 -171 238 -194 196 -199 c 0
 186 -200 173 -200 166 -200 c 1
 142 -196 122 -178 116 -156 c 0
 114 -150 114 -142 115 -138 c 0
 118 -122 135 -112 151 -114 c 1
 165 -118 176 -132 175 -145 c 0
 174 -150 174 -152 166 -159 c 1
 160 -167 158 -168 158 -174 c 0
 158 -178 158 -178 160 -180 c 0
 162 -183 166 -185 170 -186 c 1
 179 -186 l 2
 196 -186 207 -180 214 -168 c 0
 220 -159 224 -147 226 -127 c 0
 227 -118 227 -83 226 -74 c 0
 222 -42 212 -29 188 -28 c 2
 178 -28 l 1
 158 -32 144 -52 142 -80 c 0
 142 -84 142 -86 141 -88 c 0
 140 -90 136 -92 132 -90 c 0
 130 -89 128 -86 128 -82 c 2
 128 -74 l 2
 126 -51 116 -30 100 -12 c 2
 96 -8 l 1
 96 -102 l 1
 96 -197 l 1
 94 -198 l 1
 92 -200 l 1
 86 -200 l 2
 79 -200 78 -200 78 -198 c 1
 76 -198 l 1xfb
 76 0 l 1xf5
 76 197 l 1xf9
 78 198 l 1
EndSplineSet
EndChar
StartChar: clefs.F
Encoding: 57739 57739 168
Width: 335
GlyphClass: 2
Flags: W
Fore
104 131 m 0
 116 132 133 132 148 129 c 0
 220 119 262 74 262 6 c 0
 262 -32 250 -70 228 -103 c 0
 189 -158 122 -204 14 -250 c 0
 9 -252 4 -255 3 -256 c 1
 0 -256 l 2
 -4 -256 -6 -254 -6 -250 c 0
 -6 -248 -6 -246 5 -240 c 0
 61 -207 100 -178 131 -148 c 0
 154 -124 169 -104 181 -80 c 0
 187 -68 190 -60 194 -49 c 0
 210 6 197 68 164 100 c 0
 146 116 122 123 98 117 c 0
 73 110 52 88 40 58 c 2
 39 56 l 1
 43 57 l 2
 64 64 90 53 101 31 c 0
 105 23 107 12 106 3 c 0
 102 -22 83 -42 59 -44 c 0
 34 -45 10 -28 2 -5 c 0
 0 1 0 6 0 14 c 0
 1 32 5 49 13 66 c 0
 31 102 66 127 104 131 c 0
298 87 m 0
 314 91 330 79 330 62 c 0
 330 46 314 34 298 38 c 0
 284 40 276 54 280 68 c 0
 282 78 289 85 298 87 c 0
298 -38 m 0
 314 -34 330 -46 330 -62 c 0
 330 -79 314 -91 298 -87 c 0
 284 -84 276 -70 280 -56 c 0
 282 -47 289 -40 298 -38 c 0
EndSplineSet
EndChar
StartChar: clefs.F_change
Encoding: 57740 57740 169
Width: 268
GlyphClass: 3
Flags: MW
HStem: 94 12<86 94>
VStem: 223 41<-52 -47.5 47.5 52>
Fore
82 106 m 2
 112 106 l 2
 144 102 170 90 186 72 c 0
 204 52 212 26 210 -6 c 0
 205 -61 172 -107 110 -149 c 0
 84 -166 52 -184 14 -200 c 0
 8 -202 4 -205 3 -206 c 1
 0 -206 l 2
 -4 -206 -6 -204 -6 -200 c 0
 -6 -198 -6 -196 6 -189 c 0
 44 -162 68 -144 89 -124 c 0
 99 -113 106 -104 114 -95 c 0
 140 -60 150 -25 148 14 c 0
 146 32 142 48 136 61 c 0
 129 75 120 84 110 89 c 0
 102 93 98 94 90 94 c 0
 82 94 82 94 78 92 c 2
 68 90 60 85 54 78 c 0
 48 72 42 61 39 52 c 2
 38 48 l 1
 39 49 l 1
 42 50 52 49 56 48 c 0
 70 44 80 34 84 20 c 0
 85 14 85 4 84 -2 c 1
 80 -14 71 -25 60 -30 c 0
 43 -37 20 -30 9 -16 c 0
 2 -7 0 2 0 14 c 0
 2 60 32 98 74 105 c 0
 77 106 80 106 82 106 c 2
238 70 m 1
 244 70 l 2
 256 70 264 60 264 48 c 0
 264 40 258 34 252 31 c 1
 248 30 248 30 243 30 c 0
 238 30 238 30 234 31 c 1
 230 34 226 36 224 42 c 0
 223 44 223 45 223 50 c 0
 223 54 223 55 224 58 c 0
 227 64 232 68 238 70 c 1
238 -30 m 0
 240 -30 242 -29 244 -29 c 0
 256 -30 264 -40 264 -52 c 0
 264 -59 258 -66 252 -68 c 0
 248 -70 248 -70 243 -70 c 0
 238 -70 238 -70 234 -68 c 0
 230 -66 226 -63 224 -58 c 0
 223 -55 223 -54 223 -50 c 0
 223 -45 223 -44 224 -42 c 0
 227 -36 232 -31 238 -30 c 0
EndSplineSet
EndChar
StartChar: clefs.G
Encoding: 57741 57741 170
Width: 320
GlyphClass: 2
Flags: MW
HStem: -328 22<124 136 119.5 140.5> -130 21.2845
VStem: 0 36 86 26<392 486> 206 22.9528 212 22<-152 -129 -129 -128.5>
Fore
158 624 m 1xf4
 162 626 165 624 171 618 c 0
 205 582 236 514 242 460 c 0
 246 430 242 396 231 365 c 0
 218 332 199 298 164 252 c 2
 155 241 l 1
 158 234 l 2
 169 198 180 162 186 140 c 2
 188 132 l 1
 197 131 l 2
 216 130 231 126 247 118 c 0
 280 102 306 70 315 32 c 0
 326 -8 317 -50 292 -82 c 0
 276 -100 259 -113 238 -121 c 2
 234 -123 l 1
 234 -152 l 2
 233 -180 233 -188 231 -208 c 0
 229 -237 221 -261 207 -282 c 0
 186 -313 157 -328 124 -328 c 0
 106 -326 87 -321 72 -312 c 0
 48 -298 30 -274 25 -248 c 0
 20 -229 22 -214 30 -202 c 0
 41 -185 61 -176 80 -176 c 0
 101 -177 118 -191 124 -212 c 0
 128 -228 126 -244 116 -256 c 0
 105 -272 83 -280 66 -274 c 1
 64 -272 l 1
 66 -276 l 1
 70 -280 77 -288 82 -290 c 2
 96 -301 111 -306 128 -306 c 0
 144 -306 156 -302 169 -292 c 0
 180 -284 189 -273 196 -258 c 0
 208 -233 212 -210 212 -154 c 2
 212 -129 l 2
 212 -128 208 -129 204 -130 c 0
 155 -136 109 -125 71 -96 c 0
 24 -62 -2 -7 0 52 c 0
 1 84 8 112 24 144 c 0
 40 176 58 203 104 262 c 2
 119 281 l 1
 116 290 l 2
 96 354 88 392 86 443 c 2
 86 486 l 2
 92 536 114 580 150 616 c 2
 158 624 l 1xf4
189 551 m 1
 188 551 188 552 188 552 c 1
 188 552 177 544 172 540 c 0
 166 535 154 523 148 516 c 0
 128 491 116 464 112 430 c 0
 111 420 111 402 112 392 c 0
 116 371 124 336 134 308 c 1
 135 302 l 1
 138 305 l 1
 139 307 142 312 146 317 c 0
 184 370 202 411 207 458 c 0
 208 466 208 494 207 503 c 0
 206 511 203 521 200 528 c 0
 198 534 190 550 189 551 c 1
144 204 m 2
 139 220 l 1
 138 220 108 182 98 167 c 0
 60 115 42 74 37 29 c 0
 36 20 36 4 36 -2 c 0
 39 -26 50 -46 68 -66 c 1
 80 -76 92 -86 106 -93 c 0
 133 -106 160 -112 190 -110 c 0
 200 -109 210 -108 210 -107 c 2
 212 -106 209 -76 206 -54 c 0xf8
 202 -20 196 17 186 56 c 0
 183 70 181 77 181 77 c 1
 180 78 171 76 166 75 c 0
 140 70 122 54 116 32 c 0
 108 3 122 -26 154 -44 c 0
 160 -48 162 -49 162 -54 c 0
 162 -57 160 -61 157 -63 c 0
 155 -64 154 -64 152 -64 c 0
 148 -64 148 -64 142 -62 c 0
 129 -56 120 -49 111 -40 c 0
 100 -28 91 -15 86 0 c 0
 75 36 84 75 110 102 c 0
 119 110 128 116 138 121 c 0
 144 124 156 128 162 129 c 0
 164 129 166 130 166 130 c 2
 167 130 156 169 144 204 c 2
212 74 m 1xf4
 208 76 206 76 204 76 c 2
 203 76 l 1
 204 74 l 1
 208 56 217 14 221 -11 c 0
 226 -38 230 -75 232 -94 c 2
 232 -101 l 2
 232 -102 243 -96 248 -92 c 0
 264 -82 276 -65 282 -48 c 2
 284 -46 284 -40 286 -36 c 1
 286 -20 l 1
 286 -5 l 1
 279 35 250 66 212 74 c 1xf4
EndSplineSet
EndChar
StartChar: clefs.G_change
Encoding: 57742 57742 171
Width: 256
GlyphClass: 3
Flags: MW
HStem: -104 19.6048 -104 21<166 167 166 168 166 167>
VStem: 1 30.8267 168 21<-116 -104 -104 -104>
Fore
120 498 m 0xb0
 124 500 128 499 134 493 c 0
 147 479 158 462 170 440 c 0
 182 412 191 386 193 363 c 0
 196 343 192 320 186 298 c 0
 176 270 160 241 132 203 c 2
 126 194 l 1
 130 184 l 2
 136 168 147 134 152 119 c 2
 155 106 l 1
 161 106 l 2
 198 102 229 81 246 48 c 0
 259 20 260 -12 250 -38 c 0
 240 -64 218 -88 194 -97 c 1
 189 -98 l 1
 189 -120 l 2
 188 -142 188 -152 186 -168 c 0
 182 -218 154 -256 116 -262 c 1
 110 -264 100 -264 93 -264 c 0
 54 -260 24 -234 17 -198 c 0
 16 -194 16 -191 16 -184 c 0
 16 -178 16 -176 17 -173 c 0
 22 -157 36 -146 53 -142 c 0
 62 -140 71 -142 79 -146 c 1
 83 -149 90 -156 92 -160 c 0
 98 -170 100 -181 98 -190 c 0
 95 -203 87 -213 76 -218 c 0
 70 -220 64 -221 60 -221 c 1
 56 -220 l 1
 58 -223 l 2
 64 -231 76 -238 86 -240 c 0
 102 -245 118 -242 131 -234 c 0
 148 -222 160 -200 164 -175 c 0
 166 -164 168 -136 168 -116 c 2
 168 -104 l 1
 166 -104 l 1x70
 156 -106 152 -106 141 -106 c 0
 128 -106 124 -106 113 -104 c 0
 92 -100 71 -90 54 -76 c 0
 48 -71 37 -60 32 -54 c 0
 16 -33 6 -10 2 17 c 0
 0 26 0 47 1 56 c 0
 4 80 10 99 22 123 c 0
 34 146 48 166 78 206 c 2
 92 224 l 1
 92 224 90 228 88 234 c 0
 70 276 64 302 60 334 c 0
 58 350 58 374 59 386 c 0
 62 418 74 448 94 473 c 0
 101 482 116 496 120 498 c 0xb0
151 431 m 2
 150 434 148 436 147 436 c 1
 146 438 l 1
 144 436 l 1
 122 423 106 405 95 383 c 0
 87 366 83 350 82 332 c 0
 82 318 84 308 96 276 c 0
 99 265 106 246 107 245 c 1
 107 244 110 248 118 260 c 0
 150 308 164 348 163 389 c 0
 162 408 160 416 151 431 c 2
114 166 m 2
 111 174 l 1
 110 174 90 148 83 138 c 0
 50 91 34 54 31 15 c 0
 30 -3 32 -15 38 -28 c 0
 42 -36 47 -42 54 -50 c 0
 64 -59 72 -66 86 -72 c 0
 98 -78 110 -82 124 -84 c 0
 133 -86 158 -85 166 -83 c 1
 167 -83 l 1
 167 -76 l 2
 165 -46 160 -8 153 28 c 0
 150 40 146 60 146 60 c 1
 146 60 136 60 132 58 c 1
 111 53 98 40 94 21 c 0
 90 0 102 -21 124 -34 c 1
 130 -36 131 -38 132 -42 c 1
 132 -46 130 -50 126 -52 c 1
 124 -54 124 -54 121 -54 c 0
 118 -54 117 -54 112 -51 c 0
 94 -42 80 -28 72 -12 c 0
 62 8 61 30 68 52 c 0
 78 79 102 99 130 104 c 1
 134 106 l 1
 134 106 121 147 114 166 c 2
176 56 m 0
 170 58 168 59 168 58 c 2
 170 48 l 2
 178 11 184 -28 186 -60 c 0
 188 -74 188 -76 188 -76 c 1
 188 -76 190 -76 192 -74 c 2
 210 -64 222 -48 226 -28 c 0
 227 -21 227 -8 226 0 c 0
 220 26 202 48 176 56 c 0
EndSplineSet
EndChar
StartChar: clefs.percussion
Encoding: 57743 57743 172
Width: 250
GlyphClass: 2
Flags: MW
VStem: 84 56<-122 0 0 122> 194 56<-122 0 0 122>
Fore
85 124 m 1
 86 125 l 1
 112 125 l 1
 137 125 l 1
 138 124 l 1
 140 122 l 1
 140 0 l 1
 140 -122 l 1
 138 -124 l 1
 136 -125 l 1
 112 -125 l 1
 86 -124 l 1
 85 -124 l 1
 84 -122 l 1
 84 0 l 1
 84 122 l 1
 85 124 l 1
196 124 m 1
 197 125 l 1
 222 125 l 1
 248 125 l 1
 248 124 l 1
 250 122 l 1
 250 0 l 1
 250 -122 l 1
 248 -124 l 1
 247 -125 l 1
 222 -125 l 1
 196 -124 l 1
 194 -122 l 1
 194 0 l 1
 194 122 l 1
 196 124 l 1
EndSplineSet
EndChar
StartChar: clefs.percussion_change
Encoding: 57744 57744 173
Width: 200
GlyphClass: 3
Flags: MW
VStem: 67 45<0 97 97 97> 155 45<0 97 97 97>
Fore
68 98 m 1
 70 100 l 1
 90 100 l 1
 110 100 l 1
 110 98 l 1
 112 98 l 1
 112 0 l 1
 112 -97 l 1
 110 -98 l 1
 109 -100 l 1
 90 -100 l 1
 70 -100 l 1
 68 -98 l 1
 67 0 l 1
 67 97 l 1
 68 98 l 1
156 98 m 1
 158 100 l 1
 178 100 l 1
 198 100 l 1
 198 98 l 1
 200 98 l 1
 200 0 l 1
 200 -97 l 1
 198 -98 l 1
 197 -100 l 1
 178 -100 l 1
 158 -100 l 1
 156 -98 l 1
 155 0 l 1
 155 97 l 1
 156 98 l 1
EndSplineSet
EndChar
StartChar: clefs.tab
Encoding: 57745 57745 174
Width: 350
GlyphClass: 2
Flags: MW
HStem: -354 30 336 24<179 185.5>
Fore
336 361 m 1
 340 362 347 360 349 355 c 0
 350 352 350 351 346 346 c 0
 333 332 315 322 297 318 c 0
 282 314 268 314 254 317 c 1
 254 318 l 1
 250 301 l 2
 245 268 238 230 234 217 c 0
 228 190 214 164 196 148 c 0
 187 138 177 133 166 130 c 0
 162 129 160 129 154 129 c 0
 146 129 142 130 134 134 c 1
 128 136 123 140 111 150 c 0
 106 154 100 158 98 160 c 0
 95 162 94 164 94 167 c 1
 96 172 100 177 104 178 c 1
 108 178 110 177 120 168 c 0
 128 162 132 159 135 157 c 0
 146 152 158 154 168 163 c 0
 178 173 185 190 188 213 c 0
 188 216 190 224 190 232 c 0
 191 258 195 295 199 323 c 0
 200 328 200 334 200 334 c 1
 200 334 187 336 184 336 c 0
 174 336 162 334 154 330 c 1
 139 325 131 317 128 306 c 0
 126 296 130 286 140 279 c 0
 142 278 142 277 142 275 c 2
 144 270 144 266 141 262 c 1
 140 262 139 261 136 260 c 0
 124 256 112 258 102 263 c 0
 92 268 86 274 82 282 c 0
 75 294 76 311 84 324 c 0
 88 331 98 340 108 344 c 0
 127 354 156 360 188 360 c 0
 199 360 200 360 206 358 c 2
 213 357 224 354 240 348 c 0
 264 340 270 339 282 340 c 0
 300 340 316 347 332 358 c 0
 334 360 336 361 336 361 c 1
238 144 m 1
 242 144 252 144 256 142 c 2
 264 140 271 136 272 131 c 2
 273 130 273 128 272 126 c 1
 272 108 l 2
 270 72 268 12 265 -30 c 0
 264 -55 264 -59 266 -63 c 0
 267 -66 268 -67 270 -68 c 0
 274 -70 280 -69 291 -64 c 0
 300 -59 302 -58 304 -60 c 1
 305 -60 306 -64 306 -67 c 0
 306 -72 304 -76 299 -78 c 1
 297 -78 292 -80 289 -82 c 0
 270 -92 266 -94 259 -94 c 0
 252 -94 246 -92 241 -88 c 1
 234 -80 230 -68 224 -36 c 0
 220 -15 218 -1 215 27 c 2
 215 30 l 1
 209 22 l 2
 199 10 187 -4 176 -15 c 0
 174 -18 172 -20 172 -20 c 1
 174 -24 l 1
 178 -29 184 -33 192 -35 c 0
 195 -36 197 -36 204 -36 c 2
 212 -36 l 1
 212 -38 l 1
 215 -43 213 -50 209 -54 c 0
 206 -56 194 -58 186 -58 c 0
 172 -58 159 -53 152 -44 c 2
 150 -42 l 1
 143 -48 l 2
 126 -63 118 -70 107 -78 c 0
 94 -86 82 -92 72 -93 c 0
 60 -95 52 -94 40 -86 c 0
 36 -84 31 -82 28 -80 c 0
 24 -78 24 -77 23 -76 c 1
 21 -72 26 -63 30 -60 c 0
 34 -58 36 -59 46 -64 c 0
 56 -68 60 -70 66 -70 c 1
 80 -68 95 -58 120 -31 c 0
 164 16 196 68 214 122 c 0
 217 129 218 132 222 135 c 2
 225 139 232 142 238 144 c 1
172 -124 m 2
 191 -124 l 2
 246 -124 280 -136 291 -158 c 0
 298 -175 293 -198 278 -216 c 0
 274 -220 268 -225 264 -228 c 1
 260 -230 l 1
 260 -230 264 -230 268 -232 c 2
 288 -236 301 -245 307 -258 c 0
 312 -267 312 -280 308 -293 c 0
 306 -299 301 -310 297 -316 c 0
 282 -335 262 -348 238 -353 c 0
 232 -354 230 -354 222 -354 c 0
 213 -354 211 -354 206 -353 c 0
 192 -350 181 -344 172 -334 c 0
 166 -328 165 -325 167 -320 c 1
 170 -315 178 -310 182 -312 c 1
 183 -313 185 -314 187 -316 c 0
 194 -324 204 -326 214 -324 c 0
 232 -320 247 -307 252 -290 c 0
 260 -265 244 -248 210 -246 c 0
 206 -246 204 -246 202 -245 c 0
 200 -244 199 -236 202 -232 c 0
 204 -228 206 -226 212 -226 c 0
 221 -225 230 -219 236 -210 c 0
 244 -198 246 -183 240 -171 c 0
 238 -168 232 -162 228 -160 c 0
 222 -156 212 -152 206 -151 c 1
 204 -150 l 1
 202 -158 l 2
 194 -210 184 -262 181 -271 c 0
 176 -294 166 -314 154 -331 c 1
 148 -337 140 -346 134 -350 c 2
 130 -354 120 -358 116 -360 c 1
 110 -361 100 -361 94 -360 c 0
 87 -358 80 -354 69 -344 c 2
 65 -342 60 -338 58 -336 c 0
 54 -332 53 -330 55 -326 c 0
 57 -322 60 -320 62 -318 c 1
 66 -316 68 -316 76 -324 c 1
 90 -334 94 -336 104 -336 c 0
 112 -335 118 -332 124 -326 c 0
 138 -312 146 -279 146 -237 c 0
 146 -227 147 -218 148 -203 c 0
 150 -192 152 -170 154 -160 c 0
 155 -156 155 -153 155 -153 c 1
 155 -153 153 -154 152 -154 c 1
 128 -164 116 -182 122 -197 c 1
 124 -200 126 -201 127 -202 c 0
 131 -206 132 -207 132 -209 c 2
 134 -213 132 -220 130 -222 c 0
 128 -224 121 -226 114 -226 c 0
 97 -226 80 -218 74 -204 c 0
 70 -196 69 -189 71 -180 c 0
 72 -176 74 -169 78 -164 c 0
 92 -143 128 -128 172 -124 c 2
EndSplineSet
EndChar
StartChar: clefs.tab_change
Encoding: 57746 57746 175
Width: 280
GlyphClass: 3
Flags: MW
HStem: 122 20G<83.5 85> 252 20<209.5 224>
Fore
267 288 m 1
 269 289 270 289 272 289 c 1
 275 288 280 284 280 282 c 0
 280 280 278 278 275 276 c 0
 256 258 232 249 211 252 c 0
 208 252 206 253 204 254 c 1
 202 254 l 1
 202 254 202 247 200 238 c 0
 194 205 189 177 186 168 c 0
 179 144 166 123 150 112 c 0
 146 109 138 105 134 104 c 0
 128 102 122 102 116 103 c 0
 109 104 102 108 91 118 c 0
 88 121 82 124 80 126 c 0
 76 130 76 130 76 132 c 0
 76 134 77 138 78 140 c 1
 80 141 83 142 84 142 c 0
 86 142 90 140 96 135 c 0
 105 126 110 124 116 123 c 0
 132 122 144 136 149 162 c 0
 150 169 152 175 152 188 c 0
 153 204 156 234 159 256 c 0
 160 260 160 265 160 266 c 1
 160 266 160 267 158 268 c 1
 142 270 122 266 112 258 c 0
 106 253 103 248 103 241 c 0
 103 234 106 228 111 224 c 1
 112 224 114 222 114 220 c 2
 116 216 114 210 112 209 c 0
 108 207 102 206 96 206 c 1
 90 207 87 208 82 210 c 0
 69 216 62 229 62 242 c 0
 64 268 91 284 139 288 c 0
 159 289 164 288 194 278 c 0
 210 273 214 272 220 272 c 0
 228 272 236 272 244 275 c 0
 252 278 257 280 267 288 c 1
189 114 m 2
 196 116 203 114 209 112 c 0
 213 110 215 108 216 106 c 1
 218 104 l 1
 217 81 l 2
 216 44 214 15 212 -10 c 2
 212 -42 l 1
 212 -51 l 1
 214 -54 216 -55 218 -56 c 1
 222 -56 225 -54 232 -51 c 0
 240 -48 242 -47 243 -48 c 0
 245 -50 246 -57 244 -60 c 1
 243 -60 241 -62 239 -62 c 1
 236 -63 234 -64 233 -65 c 1
 218 -72 216 -74 212 -74 c 2
 206 -76 202 -76 198 -74 c 0
 191 -70 188 -64 184 -50 c 0
 178 -29 174 0 172 18 c 2
 172 24 l 1
 171 23 l 1
 168 18 152 0 143 -10 c 2
 138 -16 l 1
 138 -18 l 1
 140 -20 143 -23 146 -24 c 2
 151 -28 155 -28 162 -29 c 1
 169 -29 l 1
 170 -31 l 2
 172 -34 170 -40 167 -42 c 0
 166 -43 164 -44 161 -45 c 0
 156 -46 154 -46 148 -46 c 0
 140 -46 136 -46 130 -42 c 0
 127 -40 122 -36 121 -34 c 1
 120 -33 l 1
 114 -39 l 2
 90 -62 72 -72 57 -74 c 0
 48 -76 41 -74 30 -68 c 0
 26 -66 22 -64 21 -63 c 1
 18 -62 18 -60 19 -56 c 0
 20 -51 24 -48 28 -48 c 1
 28 -48 32 -49 36 -51 c 0
 44 -55 48 -56 52 -56 c 0
 62 -54 72 -48 88 -33 c 0
 124 4 154 50 170 94 c 0
 174 103 175 106 178 109 c 0
 180 112 185 114 189 114 c 2
138 -100 m 2
 142 -99 166 -100 172 -100 c 0
 204 -103 224 -112 232 -125 c 0
 235 -130 236 -134 236 -140 c 0
 236 -148 234 -152 232 -159 c 0
 228 -168 220 -176 212 -182 c 0
 208 -184 208 -184 210 -184 c 1
 222 -187 228 -190 235 -194 c 0
 242 -198 246 -204 248 -210 c 0
 249 -215 249 -226 248 -232 c 1
 245 -241 241 -249 234 -256 c 0
 224 -269 208 -278 191 -282 c 0
 186 -283 184 -283 177 -283 c 0
 169 -283 168 -283 164 -282 c 0
 154 -279 146 -275 139 -268 c 0
 133 -262 132 -260 134 -256 c 0
 136 -252 140 -250 144 -250 c 0
 146 -250 146 -250 150 -252 c 1
 152 -254 154 -256 156 -257 c 0
 172 -265 196 -252 202 -232 c 0
 206 -218 202 -208 191 -202 c 0
 184 -199 174 -197 166 -197 c 0
 162 -197 162 -197 161 -196 c 1
 160 -194 160 -190 160 -188 c 1
 162 -184 164 -182 166 -182 c 1
 172 -180 174 -180 178 -178 c 0
 190 -172 196 -158 194 -145 c 0
 193 -136 188 -130 179 -126 c 0
 175 -124 169 -121 164 -120 c 0
 163 -120 163 -120 162 -122 c 1
 162 -124 159 -141 156 -160 c 0
 144 -222 144 -226 134 -244 c 0
 120 -276 97 -292 76 -288 c 0
 70 -286 65 -284 54 -274 c 0
 43 -266 43 -266 43 -264 c 0
 43 -261 46 -256 50 -254 c 0
 53 -252 54 -253 63 -260 c 0
 66 -262 70 -265 72 -266 c 0
 75 -268 76 -268 80 -268 c 0
 96 -270 108 -256 114 -228 c 0
 116 -216 117 -208 118 -190 c 0
 118 -170 120 -153 124 -130 c 1
 124 -122 l 1
 124 -122 114 -126 110 -129 c 0
 108 -130 106 -132 104 -134 c 0
 94 -144 94 -156 103 -163 c 0
 106 -165 107 -167 106 -172 c 0
 106 -176 104 -178 97 -180 c 0
 78 -184 60 -172 56 -156 c 0
 55 -149 57 -140 62 -132 c 0
 64 -128 72 -122 76 -118 c 1
 92 -108 114 -101 138 -100 c 2
EndSplineSet
EndChar
StartChar: timesig.C44
Encoding: 57747 57747 176
Width: 212
GlyphClass: 2
Flags: MW
HStem: 117.693 13.3068 118.297 12.7034
VStem: 0.93013 70.0699 0.93013 70.0699
Fore
111 131 m 0x80
 118 132 129 132 134 131 c 0
 172 127 202 100 211 63 c 0
 214 50 214 40 208 30 c 0
 206 26 199 20 196 18 c 0
 186 12 174 12 164 17 c 0
 154 22 148 28 144 39 c 0
 142 44 142 44 142 50 c 0
 142 58 143 60 145 66 c 0
 148 75 155 82 162 86 c 1
 168 88 174 90 180 90 c 1
 182 89 184 90 184 90 c 1
 178 96 l 2
 168 107 155 114 140 117 c 0
 133 118 122 119 116 118 c 0
 88 115 76 102 71 71 c 0
 69 57 69 51 69 0 c 0
 69 -51 69 -57 71 -71 c 0
 76 -101 88 -115 114 -118 c 0
 138 -120 158 -114 176 -96 c 0
 188 -84 197 -68 202 -48 c 0
 205 -40 205 -40 207 -40 c 1
 212 -37 217 -40 216 -46 c 0
 216 -49 213 -59 210 -64 c 1
 197 -100 171 -124 140 -130 c 0
 123 -134 94 -130 74 -123 c 0
 32 -108 8 -74 1 -22 c 0
 0 -12 0 12 1 22 c 0
 8 78 36 113 84 126 c 0
 92 128 104 130 111 131 c 0x80
EndSplineSet
EndChar
StartChar: timesig.C22
Encoding: 57748 57748 177
Width: 212
GlyphClass: 2
Flags: MW
HStem: -132 14<120 124 124 128 120 124> 118 14<120 124 124 127 120 124>
VStem: 100 20<-172 -152 -152 -151 -151 -132 -114 0 0 114 114 114 132 151 151 152 152 172>
Fore
102 174 m 1
 103 175 l 1
 110 175 l 2
 116 175 117 174 118 174 c 1
 120 172 l 1
 120 152 l 1
 120 132 l 1
 124 132 l 2
 166 132 200 104 211 63 c 0
 214 50 214 40 208 30 c 0
 206 26 199 20 196 18 c 0
 186 12 174 12 164 17 c 0
 154 22 148 28 144 39 c 0
 142 44 142 44 142 50 c 0
 142 58 143 60 145 66 c 0
 148 75 155 82 162 86 c 1
 168 88 174 90 180 90 c 1
 182 89 184 90 184 90 c 1
 178 96 l 2
 164 110 148 118 127 118 c 2
 120 118 l 1
 120 0 l 1
 120 -118 l 1
 124 -118 l 2
 144 -118 161 -111 176 -96 c 0
 188 -84 197 -68 202 -48 c 0
 205 -40 205 -40 207 -40 c 1
 212 -37 217 -40 216 -46 c 0
 216 -47 216 -50 214 -54 c 0
 204 -90 180 -118 150 -128 c 0
 142 -130 136 -131 128 -132 c 2
 120 -132 l 1
 120 -152 l 1
 120 -172 l 1
 118 -174 l 1
 116 -175 l 1
 110 -175 l 2
 103 -175 102 -174 102 -174 c 1
 100 -172 l 1
 100 -151 l 1
 100 -130 l 1
 96 -129 l 2
 84 -127 72 -123 64 -118 c 0
 28 -102 7 -69 1 -22 c 0
 0 -12 0 12 1 22 c 0
 8 73 32 107 73 122 c 0
 80 125 88 128 95 128 c 1
 100 130 l 1
 100 151 l 1
 100 172 l 1
 102 174 l 1
100 0 m 1
 100 114 l 1
 99 114 97 114 95 112 c 1
 79 104 72 89 70 56 c 0
 68 46 68 -46 70 -56 c 0
 72 -90 79 -104 96 -113 c 0
 98 -114 99 -114 100 -114 c 1
 100 0 l 1
EndSplineSet
EndChar
StartChar: pedal.*
Encoding: 57749 57749 178
Width: 194
GlyphClass: 2
Flags: W
Fore
91 249 m 0
 104 253 118 244 121 230 c 0
 122 223 121 219 112 210 c 0
 105 202 103 200 102 195 c 1
 102 188 107 183 114 182 c 1
 120 182 124 185 126 191 c 0
 127 193 127 196 128 204 c 0
 128 216 128 220 135 224 c 1
 145 232 156 230 166 222 c 1
 175 212 176 200 168 190 c 0
 164 184 161 183 148 183 c 1
 141 182 138 182 136 182 c 1
 130 180 126 175 126 170 c 1
 128 162 133 158 140 158 c 0
 144 158 147 160 154 168 c 1
 162 174 165 176 170 177 c 0
 183 178 194 167 194 153 c 0
 194 138 183 128 170 128 c 1
 165 129 162 131 154 138 c 0
 147 145 144 147 140 148 c 1
 133 148 128 143 126 136 c 1
 126 130 130 126 136 124 c 0
 138 123 141 123 148 122 c 1
 161 122 164 122 168 115 c 1
 176 105 175 94 166 84 c 0
 156 75 145 74 135 82 c 1
 128 86 128 89 128 102 c 1
 127 109 127 112 126 114 c 0
 124 120 120 124 114 124 c 1
 107 122 102 117 102 110 c 1
 103 106 105 103 112 96 c 0
 119 88 121 85 122 80 c 1
 122 67 112 56 98 56 c 0
 83 56 72 67 73 80 c 0
 74 85 76 88 82 96 c 1
 90 103 92 106 92 110 c 0
 92 117 88 122 80 124 c 1
 75 124 70 120 68 114 c 1
 68 112 68 109 67 102 c 1
 67 89 66 86 60 82 c 0
 50 74 38 75 28 84 c 1
 20 94 18 105 26 115 c 1
 30 122 34 122 47 122 c 1
 54 123 57 123 59 124 c 0
 65 126 68 130 68 136 c 1
 67 143 62 148 55 148 c 1
 50 147 48 145 40 138 c 0
 33 131 30 129 25 128 c 1
 12 128 0 138 0 152 c 0
 0 167 12 178 25 177 c 0
 30 176 33 174 40 168 c 0
 48 160 50 158 55 158 c 0
 62 158 67 162 68 170 c 0
 68 175 65 180 59 182 c 1
 57 182 54 182 47 183 c 1
 34 183 30 184 26 190 c 0
 18 200 20 212 28 222 c 1
 38 230 50 232 60 224 c 0
 66 220 67 216 67 204 c 0
 68 196 68 193 68 191 c 1
 70 185 75 182 80 182 c 0
 88 183 92 188 92 195 c 0
 92 200 90 202 82 210 c 0
 76 217 74 220 73 225 c 0
 72 236 80 246 91 249 c 0
103 166 m 0
 92 171 80 162 83 150 c 0
 85 140 95 136 104 140 c 0
 115 145 114 161 103 166 c 0
EndSplineSet
EndChar
StartChar: pedal.M
Encoding: 57750 57750 179
Width: 105
GlyphClass: 2
Flags: MW
HStem: 84 30.9664
Fore
104 120 m 1
 105 120 l 1
 104 119 l 1
 104 118 100 112 96 104 c 0
 91 96 87 89 86 88 c 0
 85 87 80 85 76 84 c 0
 70 82 61 82 44 84 c 0
 26 85 17 84 11 83 c 0
 7 82 2 80 1 78 c 1
 0 78 0 78 0 79 c 1
 1 80 5 86 10 94 c 0
 14 102 18 109 18 110 c 1
 20 111 26 113 29 114 c 0
 35 116 44 116 62 114 c 0
 84 113 93 114 101 118 c 2
 102 118 104 119 104 120 c 1
EndSplineSet
EndChar
StartChar: pedal..
Encoding: 57751 57751 180
Width: 35
GlyphClass: 2
Flags: MW
HStem: 0 21G<16 20>
Fore
12 34 m 1
 14 34 16 35 18 35 c 0
 25 34 30 31 34 24 c 1
 34 22 35 21 35 18 c 0
 35 14 34 13 34 10 c 1
 32 6 29 4 25 2 c 0
 22 0 22 0 18 0 c 0
 14 0 13 0 10 2 c 0
 6 4 4 6 2 10 c 0
 0 13 0 14 0 18 c 0
 0 21 0 22 2 24 c 2
 4 30 8 32 12 34 c 1
EndSplineSet
EndChar
StartChar: pedal.P
Encoding: 57752 57752 181
Width: 208
GlyphClass: 2
Flags: MW
HStem: 0 21G<54 58 54 54> 241 9<114 128 114 121>
VStem: 0 209
Fore
114 250 m 0
 125 250 136 250 144 248 c 0
 175 242 200 220 206 191 c 1
 208 186 208 184 208 178 c 0
 208 170 207 167 204 161 c 0
 199 151 190 144 180 145 c 0
 168 146 155 159 143 181 c 0
 138 190 138 190 139 192 c 0
 140 194 143 194 144 194 c 0
 146 194 146 193 148 191 c 1
 151 185 158 180 164 178 c 0
 177 174 188 186 185 200 c 0
 182 213 172 226 158 233 c 0
 148 238 140 240 128 241 c 2
 121 241 l 1
 118 234 l 2
 110 216 102 193 102 188 c 0
 102 180 107 170 122 152 c 0
 140 132 144 126 148 118 c 0
 152 111 154 105 152 100 c 0
 150 95 142 84 130 68 c 1
 126 64 124 60 124 60 c 1
 126 60 128 59 130 58 c 2
 144 55 164 46 174 38 c 1
 178 36 180 36 194 46 c 2
 204 54 l 1
 206 54 210 50 209 48 c 0
 208 46 194 33 174 18 c 0
 153 2 149 0 144 2 c 1
 142 4 139 8 134 23 c 0
 129 36 125 44 122 47 c 1
 120 48 118 50 118 50 c 1
 116 50 116 50 114 48 c 0
 101 32 88 18 83 14 c 0
 74 8 64 2 58 0 c 1
 54 0 l 1
 50 2 49 4 49 7 c 1
 50 10 52 16 56 21 c 0
 68 36 94 55 108 59 c 0
 110 60 112 60 112 60 c 1
 124 75 126 80 126 86 c 0
 125 94 120 104 106 122 c 0
 90 140 86 148 83 154 c 1
 82 158 82 160 84 168 c 0
 88 183 102 220 110 236 c 2
 112 240 l 1
 110 240 l 2
 92 238 82 235 70 228 c 0
 44 216 26 196 22 176 c 0
 20 166 22 158 29 151 c 1
 36 146 42 144 48 148 c 0
 56 152 62 162 62 172 c 1
 63 178 64 178 67 178 c 2
 70 178 l 1
 72 176 72 173 71 166 c 0
 68 148 62 134 52 123 c 0
 39 111 26 110 14 120 c 0
 8 124 3 132 1 140 c 0
 0 145 0 157 0 164 c 1
 8 200 40 232 81 244 c 0
 90 246 104 249 114 250 c 0
EndSplineSet
EndChar
StartChar: pedal.d
Encoding: 57753 57753 182
Width: 166
GlyphClass: 2
Flags: MW
HStem: 210 8<-2 1>
Fore
-2 217 m 1
 -1 218 0 218 0 218 c 1
 2 218 15 216 21 214 c 0
 46 207 70 196 91 182 c 0
 134 154 162 116 167 79 c 0
 168 69 166 55 163 44 c 0
 152 14 126 -5 102 2 c 1
 97 2 90 6 85 10 c 0
 66 24 52 56 56 80 c 0
 60 102 76 124 99 137 c 2
 104 140 l 1
 101 144 l 2
 82 168 58 188 32 200 c 0
 24 203 12 207 5 208 c 2
 1 210 -1 210 -2 210 c 1
 -3 212 -2 215 -2 217 c 1
119 115 m 0
 116 120 114 126 112 128 c 2
 109 132 l 1
 106 130 l 2
 95 123 86 107 83 86 c 0
 82 79 82 62 84 54 c 0
 87 36 94 24 103 20 c 0
 106 18 107 18 111 18 c 0
 114 18 116 18 118 19 c 0
 124 22 127 26 130 34 c 0
 132 40 133 46 134 54 c 0
 134 74 130 94 119 115 c 0
EndSplineSet
EndChar
StartChar: pedal.e
Encoding: 57754 57754 183
Width: 100
GlyphClass: 2
Flags: MW
HStem: 3 140
VStem: 0 101
Fore
40 143 m 0
 45 144 53 144 56 142 c 1
 64 140 69 134 71 126 c 0
 73 120 72 111 66 102 c 0
 60 92 48 80 34 68 c 0
 30 64 28 62 28 61 c 1
 28 61 32 53 36 48 c 2
 42 37 48 28 52 26 c 0
 56 24 60 26 80 41 c 0
 84 44 89 48 92 50 c 2
 96 54 l 1
 98 54 100 52 101 50 c 1
 101 49 101 48 100 48 c 1
 100 44 60 10 52 5 c 0
 44 0 33 -1 26 3 c 0
 20 6 14 17 8 35 c 0
 6 42 6 43 4 42 c 1
 2 42 1 43 0 45 c 0
 -2 48 -2 48 1 50 c 2
 3 52 l 1
 2 58 l 2
 -2 74 -1 84 2 99 c 0
 8 123 22 139 40 143 c 0
46 126 m 1
 42 127 36 128 33 126 c 2
 30 126 25 123 23 120 c 0
 18 114 15 104 16 92 c 1
 18 85 21 73 23 70 c 0
 24 69 30 74 38 82 c 0
 48 92 52 98 54 106 c 0
 56 114 54 122 46 126 c 1
EndSplineSet
EndChar
StartChar: pedal.Ped
Encoding: 57755 57755 184
Width: 399
GlyphClass: 2
Flags: MW
HStem: 0 18<338.5 345.5> 241 9<114 128 114 121>
Fore
114 250 m 0
 125 250 136 250 144 248 c 0
 175 242 200 220 206 191 c 1
 208 186 208 184 208 178 c 0
 208 170 207 167 204 161 c 0
 199 151 190 144 180 145 c 0
 168 146 155 159 143 181 c 0
 138 190 138 190 139 192 c 0
 140 194 143 194 144 194 c 0
 146 194 146 193 148 191 c 1
 151 185 158 180 164 178 c 0
 177 174 188 186 185 200 c 0
 182 213 172 226 158 233 c 0
 148 238 140 240 128 241 c 2
 121 241 l 1
 118 234 l 2
 110 216 102 193 102 188 c 0
 102 180 107 170 122 152 c 0
 140 132 144 126 148 118 c 0
 152 111 154 105 152 100 c 0
 150 95 142 84 130 68 c 1
 126 64 124 60 124 60 c 1
 126 60 128 59 130 58 c 2
 144 55 164 46 174 38 c 1
 178 36 180 36 193 46 c 2
 202 54 l 1
 202 55 l 2
 202 56 202 59 201 62 c 0
 198 80 200 100 208 116 c 0
 213 126 218 132 226 136 c 1
 242 148 262 145 269 132 c 0
 274 120 272 109 260 94 c 1
 256 87 244 76 234 68 c 0
 230 64 228 62 228 61 c 1
 228 61 232 53 236 48 c 2
 242 37 248 28 252 26 c 0
 256 24 260 26 280 41 c 0
 284 44 288 48 289 48 c 1
 291 50 l 1
 290 54 l 2
 286 74 288 90 300 108 c 0
 308 120 318 130 332 137 c 1
 336 140 l 1
 334 144 l 1
 315 168 290 188 265 200 c 0
 257 203 244 207 238 208 c 0
 231 210 230 210 230 214 c 0
 230 216 232 218 233 218 c 0
 234 218 248 216 254 214 c 0
 294 202 332 181 360 154 c 0
 380 134 392 112 398 90 c 0
 400 78 400 68 398 56 c 0
 392 22 367 -2 341 0 c 0
 336 0 332 2 326 4 c 1
 314 10 304 21 297 36 c 2
 294 41 l 1
 291 38 l 2
 281 28 256 8 252 5 c 0
 244 0 233 -1 226 3 c 0
 220 6 214 17 208 35 c 2
 206 43 l 1
 204 42 l 1
 203 42 202 42 202 41 c 1
 201 39 170 14 160 6 c 1
 149 0 146 -1 142 6 c 1
 139 9 138 12 134 23 c 0
 129 36 125 44 122 47 c 1
 120 48 118 50 118 50 c 1
 116 50 116 50 114 48 c 0
 101 32 88 18 83 14 c 0
 74 8 64 2 58 0 c 1
 54 0 l 1
 50 2 49 4 49 7 c 1
 50 10 52 16 56 21 c 0
 68 36 94 55 108 59 c 0
 110 60 112 60 112 60 c 1
 124 75 126 80 126 86 c 0
 125 94 120 104 106 122 c 0
 90 140 86 148 83 154 c 1
 82 158 82 160 84 168 c 0
 88 183 102 220 110 236 c 2
 112 240 l 1
 110 240 l 2
 92 238 82 235 70 228 c 0
 44 216 26 196 22 176 c 0
 20 166 22 158 29 151 c 1
 36 146 42 144 48 148 c 0
 56 152 62 162 62 172 c 1
 63 178 64 178 67 178 c 2
 70 178 l 1
 72 176 72 173 71 166 c 0
 68 148 62 134 52 123 c 0
 39 111 26 110 14 120 c 0
 8 124 3 132 1 140 c 0
 0 145 0 157 0 164 c 1
 8 200 40 232 81 244 c 0
 90 246 104 249 114 250 c 0
352 115 m 0
 349 120 346 126 344 128 c 1
 342 132 l 1
 338 130 l 1
 328 123 319 107 316 86 c 0
 314 79 314 62 316 54 c 0
 320 36 326 24 336 20 c 1
 338 18 340 18 344 18 c 0
 347 18 348 18 350 19 c 0
 356 22 360 26 362 34 c 0
 364 40 366 46 366 54 c 0
 366 74 362 94 352 115 c 0
246 126 m 1
 242 127 236 128 233 126 c 2
 230 126 225 123 223 120 c 0
 218 114 215 104 216 92 c 1
 218 85 221 73 223 70 c 0
 224 69 230 74 238 82 c 0
 248 92 252 98 254 106 c 0
 256 114 254 122 246 126 c 1
EndSplineSet
EndChar
StartChar: brackettips.up
Encoding: 57756 57756 185
Width: 237
GlyphClass: 2
Flags: MW
HStem: -28 56<9 22 0 29>
VStem: 0 232<-28 156 -6 156 19 156>
Fore
222 166 m 1
 224 166 l 2
 230 166 234 161 232 156 c 1
 232 155 228 148 222 140 c 2
 202 110 l 2
 184 83 172 66 160 52 c 0
 124 7 90 -18 48 -26 c 0
 42 -28 42 -28 22 -28 c 2
 0 -28 l 1
 0 -6 l 1
 0 19 l 1
 2 22 4 25 6 26 c 2
 9 28 l 1
 29 28 l 2
 50 28 54 29 66 31 c 0
 84 35 102 43 121 55 c 0
 151 76 180 108 215 158 c 0
 218 163 220 165 222 166 c 1
EndSplineSet
EndChar
StartChar: brackettips.down
Encoding: 57757 57757 186
Width: 237
GlyphClass: 2
Flags: MW
HStem: -28 56<9 22 22 30 9 9>
VStem: 0 232<-156 28 -156 28>
Fore
0 5 m 2
 0 28 l 1
 22 28 l 1
 46 28 l 1
 52 26 l 2
 84 18 109 2 136 -24 c 0
 156 -45 174 -66 202 -110 c 2
 222 -140 l 2
 228 -148 232 -156 232 -156 c 1
 233 -159 232 -162 230 -164 c 0
 228 -166 226 -167 222 -166 c 1
 220 -166 220 -166 210 -150 c 0
 157 -74 111 -38 58 -30 c 1
 52 -28 48 -28 30 -28 c 2
 9 -28 l 1
 6 -26 l 1
 5 -26 4 -24 2 -23 c 1
 0 -20 0 -20 0 5 c 2
EndSplineSet
EndChar
StartChar: accordion.accDiscant
Encoding: 57758 57758 187
Width: 195
GlyphClass: 2
Flags: MW
HStem: 125 11<-166 0 -166 -166 0 166> 250 12<-166 0 -166 0 -170 0 0 166> 373.2 12.7997
VStem: 179 17<186 201.5 186 203>
Fore
-16 386 m 0
 8 388 32 385 56 378 c 0
 76 373 97 362 114 351 c 0
 155 322 182 280 192 230 c 0
 195 216 196 209 196 194 c 0
 196 178 195 170 192 156 c 0
 186 124 172 96 152 70 c 0
 142 58 127 45 114 36 c 0
 102 28 84 18 70 12 c 0
 25 -4 -24 -4 -70 12 c 0
 -83 18 -102 28 -113 36 c 0
 -158 68 -188 116 -194 172 c 0
 -196 182 -196 204 -194 214 c 0
 -190 252 -175 287 -151 316 c 0
 -142 328 -126 342 -113 351 c 0
 -102 359 -83 369 -70 374 c 0
 -52 380 -34 384 -16 386 c 0
21 374 m 0
 15 374 -6 375 -11 374 c 0
 -56 371 -94 354 -126 322 c 0
 -137 311 -145 300 -154 287 c 1
 -157 281 -163 269 -165 264 c 2
 -166 262 l 1
 0 262 l 1
 166 262 l 1
 166 264 l 1
 164 269 158 281 154 287 c 0
 146 300 138 311 126 322 c 0
 98 351 61 369 21 374 c 0
172 244 m 1
 171 250 l 1
 0 250 l 1
 -170 250 l 1
 -172 244 l 2
 -177 226 -178 212 -178 194 c 0
 -178 174 -177 160 -172 143 c 2
 -170 136 l 1
 0 136 l 1
 171 136 l 1
 172 143 l 1
 178 160 179 174 179 194 c 0
 179 212 178 226 172 244 c 1
166 122 m 1
 166 125 l 1
 0 125 l 1
 -166 125 l 1
 -165 122 l 1
 -154 100 l 2
 -145 86 -137 76 -126 64 c 0
 -96 35 -61 18 -20 12 c 1
 21 12 l 1
 62 18 97 35 126 64 c 0
 138 76 146 86 154 100 c 0
 158 106 164 118 166 122 c 1
EndSplineSet
EndChar
StartChar: accordion.accDot
Encoding: 57759 57759 188
Width: 31
GlyphClass: 2
Flags: MW
HStem: -30 60
VStem: -30 60<7 7>
Fore
-7 30 m 0
 10 34 26 23 30 6 c 0
 34 -10 24 -26 7 -30 c 0
 -15 -36 -36 -15 -30 7 c 0
 -28 18 -18 28 -7 30 c 0
EndSplineSet
EndChar
StartChar: accordion.accFreebase
Encoding: 57760 57760 189
Width: 133
GlyphClass: 2
Flags: MW
HStem: 125 11<-117 0 -117 0 0 117> 250 11<-11 -11>
VStem: 116 17<122 137.5 124.5 140>
Fore
-10 261 m 0
 -4 262 14 261 20 260 c 0
 48 256 75 242 95 223 c 0
 106 212 114 202 120 188 c 0
 124 179 128 171 130 161 c 0
 132 150 133 144 133 131 c 0
 133 118 132 112 130 100 c 0
 128 90 124 82 120 74 c 0
 114 60 106 50 95 38 c 0
 75 19 49 6 20 2 c 0
 10 0 -10 0 -20 2 c 0
 -43 5 -64 14 -82 28 c 0
 -89 33 -100 43 -104 50 c 2
 -119 68 -128 90 -132 114 c 0
 -134 122 -134 140 -132 148 c 0
 -130 162 -126 176 -120 188 c 0
 -114 202 -106 212 -95 223 c 0
 -84 234 -74 241 -58 248 c 0
 -44 256 -28 260 -10 261 c 0
17 249 m 0
 10 250 -5 250 -11 250 c 0
 -26 248 -39 244 -52 238 c 0
 -75 226 -93 207 -105 184 c 0
 -112 170 -115 156 -116 140 c 1
 -117 136 l 1
 0 136 l 1
 117 136 l 1
 116 140 l 1
 115 162 108 180 97 198 c 0
 78 225 50 244 17 249 c 0
116 122 m 1
 117 125 l 1
 0 125 l 1
 -117 125 l 1
 -116 122 l 1
 -115 105 -112 92 -105 78 c 0
 -87 42 -54 18 -14 12 c 1
 15 12 l 1
 54 18 87 42 105 78 c 0
 112 92 115 105 116 122 c 1
EndSplineSet
EndChar
StartChar: accordion.accStdbase
Encoding: 57761 57761 190
Width: 258
GlyphClass: 2
Flags: MW
HStem: 0 12<-9.5 10> 125 12<-81.5 0 0 82> 250 12<-242 0 -242 0 0 242> 375 12<-204 -204 -204 0 -211 -204> 499.351 10.6495
VStem: 241.556 16.4444
Fore
-14 511 m 0
 -8 512 19 511 26 510 c 0
 74 506 118 488 156 460 c 0
 179 443 200 421 216 397 c 0
 246 351 262 294 258 240 c 0
 254 190 237 142 208 103 c 0
 192 84 175 66 156 52 c 0
 123 27 84 10 44 4 c 0
 28 1 20 0 0 0 c 0
 -19 0 -27 1 -44 4 c 0
 -84 10 -122 27 -156 52 c 0
 -178 68 -199 90 -216 115 c 0
 -246 160 -261 217 -258 272 c 0
 -254 322 -236 370 -207 408 c 0
 -183 440 -152 466 -117 484 c 0
 -85 500 -52 508 -14 511 c 0
25 499 m 0
 18 500 -7 500 -13 500 c 0
 -29 498 -44 496 -58 493 c 0
 -115 478 -166 443 -200 394 c 2
 -204 387 l 1
 -102 386 l 1
 102 386 l 1
 204 387 l 1
 200 394 l 2
 160 453 96 492 25 499 c 0
216 367 m 2
 212 375 l 1
 0 375 l 1
 -211 375 l 1
 -214 370 l 2
 -224 350 -233 325 -238 302 c 0
 -240 290 -242 270 -242 262 c 1
 0 262 l 1
 242 262 l 1
 242 268 l 2
 240 304 231 336 216 367 c 2
242 244 m 2
 242 250 l 1
 0 250 l 1
 -242 250 l 1
 -242 244 l 2
 -239 208 -230 175 -215 144 c 2
 -211 137 l 1
 0 137 l 1
 212 137 l 1
 216 144 l 2
 231 175 240 208 242 244 c 2
204 124 m 1
 204 125 164 125 0 125 c 0
 -163 125 -204 125 -204 124 c 1
 -202 122 -196 112 -192 108 c 0
 -151 54 -91 20 -24 12 c 2
 24 12 l 2
 92 20 152 54 192 108 c 1
 196 112 202 122 204 124 c 1
EndSplineSet
EndChar
StartChar: accordion.accBayanbase
Encoding: 57762 57762 191
Width: 133
GlyphClass: 2
Flags: MW
HStem: 0 16<-116 0 -116 0 -128 0 0 116> 125 17<-116 0 -116 0 0 116> 250 16<-116 0 -116 0 0 116> 375 17<-116 128 0 116>
VStem: -133 17<108.5 125 142 196> -132 264<4 4 387 387.5> 116 17<109 125 125 125 142 196 196 250 250 250 266 283 109 321>
Fore
-128 390 m 1xf4
 -127 392 -116 392 0 392 c 2
 128 392 l 1
 130 390 l 1
 130 389 132 388 132 387 c 2xf4
 133 385 133 370 133 196 c 0xf2
 133 22 133 6 132 4 c 1
 130 2 l 1
 128 0 l 1
 0 0 l 1
 -128 0 l 1
 -130 2 l 1
 -132 4 l 1xf4
 -133 6 -133 21 -133 196 c 2xf8
 -132 386 l 1
 -132 388 l 1
 -130 389 -130 390 -128 390 c 1xf4
116 321 m 1xfa
 116 375 l 1
 0 375 l 1
 -116 375 l 1
 -116 321 l 1
 -116 266 l 1
 0 266 l 1
 116 266 l 1
 116 321 l 1xfa
116 196 m 1
 116 250 l 1
 0 250 l 1
 -116 250 l 1
 -116 196 l 1
 -116 142 l 1
 0 142 l 1
 116 142 l 1
 116 196 l 1
116 71 m 1
 116 125 l 1
 0 125 l 1
 -116 125 l 1
 -116 71 l 1
 -116 16 l 1
 0 16 l 1
 116 16 l 1
 116 71 l 1
EndSplineSet
EndChar
StartChar: accordion.accOldEE
Encoding: 57763 57763 192
Width: 133
GlyphClass: 2
Flags: MW
HStem: 122 18<-52.5 -49.5 49.5 52.5> 249.014 10.9861 250 11
VStem: -6 12<112.5 113.5 148.5 149.5> 116 17<124.5 137.5>
Fore
-10 261 m 0xb8
 -4 262 14 261 20 260 c 0
 50 256 75 243 95 222 c 0
 98 219 103 214 104 212 c 2
 116 197 125 180 130 161 c 0
 132 150 133 144 133 131 c 0
 133 118 132 112 130 100 c 0
 125 82 116 64 104 50 c 0
 100 44 90 34 84 29 c 0
 64 14 44 6 20 2 c 0
 10 0 -9 0 -20 2 c 0
 -44 6 -64 14 -84 29 c 1
 -89 34 -100 44 -104 50 c 0
 -119 68 -128 90 -132 114 c 0
 -133 122 -133 140 -132 148 c 0
 -130 162 -126 176 -120 188 c 0
 -113 201 -106 212 -94 222 c 0
 -74 243 -48 256 -20 260 c 0xd8
 -16 260 -12 261 -10 261 c 0xb8
18 248 m 2
 12 250 -4 250 -11 250 c 1xb8
 -24 248 -38 244 -50 238 c 0
 -82 222 -105 193 -113 160 c 0
 -116 149 -116 144 -116 131 c 0
 -116 118 -116 112 -113 102 c 0
 -103 60 -70 26 -30 16 c 0
 -18 12 -12 12 0 12 c 0
 13 12 18 12 30 16 c 0
 70 26 104 60 114 102 c 0
 116 112 116 118 116 131 c 0
 116 144 116 149 114 160 c 0
 106 193 82 222 52 238 c 0
 40 243 30 246 18 248 c 2
-6 229 m 0
 11 234 28 218 24 201 c 0
 22 194 18 189 12 186 c 1
 10 184 10 184 10 182 c 2
 9 180 6 150 6 149 c 0
 6 148 7 148 8 148 c 1
 8 148 10 152 14 156 c 0
 18 160 22 166 26 169 c 1
 31 176 l 1
 30 178 l 1
 26 194 38 208 54 208 c 0
 71 208 82 189 74 173 c 0
 70 164 58 158 48 162 c 1
 44 162 l 1
 38 156 l 1
 34 154 28 148 24 146 c 1
 20 142 18 139 18 138 c 1
 18 138 48 140 51 140 c 0
 54 140 54 140 54 142 c 1
 56 146 60 150 64 152 c 0
 70 155 75 156 80 154 c 1
 94 151 102 138 98 126 c 0
 95 112 82 104 70 108 c 0
 64 110 57 114 54 120 c 1
 54 122 54 122 51 122 c 0
 48 122 18 124 18 124 c 1
 18 123 20 120 24 116 c 1
 28 114 34 108 38 106 c 1
 44 100 l 1
 48 100 l 1
 62 104 77 94 77 78 c 0
 77 60 58 48 42 57 c 0
 32 62 28 74 30 84 c 1
 31 86 l 1
 26 93 l 1
 22 96 18 102 14 106 c 0
 10 110 8 114 8 114 c 1
 7 114 6 114 6 113 c 0
 6 112 9 82 10 80 c 2
 10 78 10 78 12 76 c 1
 18 73 22 68 24 61 c 0
 28 44 11 28 -6 33 c 0
 -18 36 -26 49 -24 61 c 0
 -22 68 -18 73 -12 76 c 1
 -10 78 -10 78 -10 80 c 2
 -9 82 -6 112 -6 113 c 0
 -6 114 -7 114 -8 114 c 1
 -8 114 -10 110 -14 106 c 0
 -18 102 -22 96 -26 93 c 1
 -31 86 l 1
 -30 84 l 1
 -26 68 -38 54 -54 54 c 0
 -71 54 -82 73 -74 89 c 0
 -70 98 -58 104 -48 100 c 1
 -44 100 l 1
 -38 106 l 1
 -34 108 -28 114 -24 116 c 1
 -20 120 -18 123 -18 124 c 1
 -18 124 -48 122 -51 122 c 0
 -54 122 -54 122 -54 120 c 1
 -56 116 -60 112 -64 110 c 0
 -70 107 -75 106 -80 108 c 1
 -94 111 -102 124 -98 136 c 0
 -95 150 -82 158 -70 154 c 0
 -64 152 -57 148 -54 142 c 1
 -54 140 -54 140 -51 140 c 0
 -48 140 -18 138 -18 138 c 1
 -18 139 -20 142 -24 146 c 1
 -28 148 -34 154 -38 156 c 1
 -44 162 l 1
 -48 162 l 1
 -62 158 -77 168 -77 184 c 0
 -77 202 -58 214 -42 205 c 0
 -32 200 -28 189 -30 178 c 1
 -31 176 l 1
 -26 169 l 1
 -22 166 -18 160 -14 156 c 0
 -10 152 -8 148 -8 148 c 1
 -7 148 -6 148 -6 149 c 0
 -6 150 -9 180 -10 182 c 2
 -10 184 -10 184 -12 186 c 1
 -18 189 -22 194 -24 201 c 0
 -26 213 -18 226 -6 229 c 0
EndSplineSet
EndChar
StartChar: rests.M3neomensural
Encoding: 57764 57764 193
Width: 150
GlyphClass: 2
Flags: MW
VStem: 0 50<-122 0 0 122> 100 50<-122 0 0 122>
Fore
2 124 m 1
 3 125 l 1
 25 125 l 1
 48 125 l 1
 48 124 l 1
 50 122 l 1
 50 0 l 1
 50 -122 l 1
 48 -124 l 1
 47 -125 l 1
 25 -125 l 1
 2 -124 l 1
 0 -122 l 1
 0 0 l 1
 0 122 l 1
 2 124 l 1
102 124 m 1
 103 125 l 1
 125 125 l 1
 148 125 l 1
 148 124 l 1
 150 122 l 1
 150 0 l 1
 150 -122 l 1
 148 -124 l 1
 147 -125 l 1
 125 -125 l 1
 102 -124 l 1
 100 -122 l 1
 100 0 l 1
 100 122 l 1
 102 124 l 1
EndSplineSet
EndChar
StartChar: rests.M2neomensural
Encoding: 57765 57765 194
Width: 50
GlyphClass: 2
Flags: MW
VStem: 0 50<-122 0 0 122>
Fore
2 124 m 1
 3 125 l 1
 25 125 l 1
 48 125 l 1
 48 124 l 1
 50 122 l 1
 50 0 l 1
 50 -122 l 1
 48 -124 l 1
 47 -125 l 1
 25 -125 l 1
 2 -124 l 1
 0 -122 l 1
 0 0 l 1
 0 122 l 1
 2 124 l 1
EndSplineSet
EndChar
StartChar: rests.M1neomensural
Encoding: 57766 57766 195
Width: 50
GlyphClass: 2
Flags: MW
HStem: 0 21G<2 25 2 2 25 47>
VStem: 0 50<3 62 3 62 62 122>
Fore
2 124 m 1
 3 125 l 1
 25 125 l 1
 48 125 l 1
 48 124 l 1
 50 122 l 1
 50 62 l 1
 50 3 l 1
 48 2 l 1
 47 0 l 1
 25 0 l 1
 2 0 l 1
 2 2 l 1
 0 2 l 1
 0 62 l 1
 0 122 l 1
 2 124 l 1
EndSplineSet
EndChar
StartChar: rests.0neomensural
Encoding: 57767 57767 196
Width: 50
GlyphClass: 2
Flags: MW
HStem: -20 20G<3 25 25 48 48 48>
VStem: 0 50<-75 -39 -75 -39 -39 -3 -3 -3>
Fore
2 -2 m 1
 3 0 l 1
 25 0 l 1
 48 0 l 1
 48 -2 l 1
 50 -2 l 1
 50 -39 l 1
 50 -75 l 1
 48 -76 l 1
 47 -78 l 1
 25 -78 l 1
 2 -78 l 1
 2 -76 l 1
 0 -76 l 1
 0 -39 l 1
 0 -3 l 1
 2 -2 l 1
EndSplineSet
EndChar
StartChar: rests.1neomensural
Encoding: 57768 57768 197
Width: 50
GlyphClass: 2
Flags: MW
HStem: 0 21G<2 25 2 2 25 47>
VStem: 0 50<3 39 3 39 39 75 75 75>
Fore
2 76 m 1
 3 78 l 1
 25 78 l 1
 48 78 l 1
 48 76 l 1
 50 76 l 1
 50 39 l 1
 50 3 l 1
 48 2 l 1
 47 0 l 1
 25 0 l 1
 2 0 l 1
 2 2 l 1
 0 2 l 1
 0 39 l 1
 0 75 l 1
 2 76 l 1
EndSplineSet
EndChar
StartChar: rests.2neomensural
Encoding: 57769 57769 198
Width: 100
GlyphClass: 2
Flags: MW
VStem: 0 25<28 53 28 72>
Fore
8 99 m 1
 10 100 11 100 12 100 c 0
 15 100 92 74 94 72 c 1
 96 72 97 70 98 69 c 0
 103 62 98 51 88 50 c 0
 86 50 84 50 56 60 c 0
 40 65 26 70 26 70 c 1
 25 70 25 66 25 40 c 0
 25 16 25 10 24 8 c 0
 21 0 10 -2 4 4 c 0
 0 8 0 6 0 50 c 0
 0 94 0 92 4 96 c 1
 5 98 7 98 8 99 c 1
EndSplineSet
EndChar
StartChar: rests.3neomensural
Encoding: 57770 57770 199
Width: 100
GlyphClass: 2
Flags: MW
VStem: 75 25<23.5 49>
Fore
46 87 m 0
 84 100 86 100 88 100 c 0
 94 100 98 96 100 92 c 1
 100 50 l 1
 100 8 l 1
 96 0 85 -2 78 4 c 1
 75 8 75 7 75 40 c 0
 75 58 75 70 74 70 c 1
 44 60 l 2
 26 54 14 50 12 50 c 0
 4 50 -3 60 2 68 c 1
 4 73 3 72 46 87 c 0
EndSplineSet
EndChar
StartChar: rests.4neomensural
Encoding: 57771 57771 200
Width: 100
GlyphClass: 2
Flags: MW
HStem: 4 121
VStem: 75 25<28 45 45 45 73 82 82 85>
Fore
84 124 m 1
 84 124 86 125 88 125 c 0
 94 124 98 122 100 116 c 1
 100 8 l 1
 96 0 85 -2 78 4 c 1
 75 8 75 8 75 28 c 2
 75 45 l 1
 74 45 62 38 45 30 c 2
 16 16 l 1
 12 16 l 2
 7 16 2 19 0 24 c 1
 0 27 0 32 1 34 c 0
 4 38 4 38 40 56 c 2
 75 73 l 1
 75 82 l 2
 75 88 75 92 74 92 c 1
 46 78 l 2
 14 62 14 62 8 64 c 0
 4 65 0 70 0 75 c 0
 0 78 2 82 4 84 c 0
 5 85 13 90 44 104 c 2
 84 124 l 1
EndSplineSet
EndChar
StartChar: rests.M3mensural
Encoding: 57772 57772 201
Width: 37
GlyphClass: 2
Flags: MW
VStem: 1 36<58 67 -120 246>
Fore
24 252 m 1
 36 254 l 2
 37 254 37 246 37 67 c 2
 37 -120 l 1
 26 -123 l 1
 2 -130 l 2
 1 -130 1 -73 1 58 c 2
 1 246 l 1
 7 247 l 2
 10 248 18 250 24 252 c 1
EndSplineSet
EndChar
StartChar: rests.M2mensural
Encoding: 57773 57773 202
Width: 37
GlyphClass: 2
Flags: MW
VStem: 1 36<-4 4 -120 120>
Fore
24 126 m 1
 36 130 l 1
 37 130 37 123 37 4 c 2
 37 -120 l 1
 26 -123 l 1
 2 -130 l 2
 1 -130 1 -92 1 -4 c 2
 1 120 l 1
 7 122 l 2
 10 123 18 125 24 126 c 1
EndSplineSet
EndChar
StartChar: rests.M1mensural
Encoding: 57774 57774 203
Width: 37
GlyphClass: 2
Flags: MW
HStem: -4 134<1.5 36.5>
VStem: 1 36<58 67 4 120>
Fore
24 126 m 1
 36 130 l 1
 37 130 37 126 37 67 c 2
 37 4 l 1
 30 3 l 1
 20 0 2 -4 2 -4 c 2
 1 -4 1 8 1 58 c 2
 1 120 l 1
 7 122 l 2
 10 123 18 125 24 126 c 1
EndSplineSet
EndChar
StartChar: rests.0mensural
Encoding: 57775 57775 204
Width: 37
GlyphClass: 2
Flags: MW
HStem: -83 87<1 36.5>
VStem: 1 36<-74 -44 -44 -34 -74 -4 -74 -4>
Fore
24 2 m 1
 36 4 l 2
 37 4 37 2 37 -34 c 2
 37 -74 l 1
 30 -76 l 1
 25 -76 17 -79 12 -80 c 2
 1 -83 l 1
 1 -44 l 1
 1 -4 l 1
 7 -3 l 2
 10 -2 18 0 24 2 c 1
EndSplineSet
EndChar
StartChar: rests.1mensural
Encoding: 57776 57776 205
Width: 37
GlyphClass: 2
Flags: MW
HStem: -4 87<1.5 37>
VStem: 1 36<34 44 44 74 74 74>
Fore
25 80 m 0
 32 82 37 83 37 83 c 1
 37 44 l 1
 37 4 l 1
 30 3 l 1
 20 0 2 -4 2 -4 c 2
 1 -4 1 3 1 34 c 2
 1 74 l 1
 7 75 l 2
 10 76 18 78 25 80 c 0
EndSplineSet
EndChar
StartChar: rests.2mensural
Encoding: 57777 57777 206
Width: 100
GlyphClass: 2
Flags: MW
HStem: -10 104<0 20>
VStem: 0 32<10 18 18 35 10 44 10 44>
Fore
7 86 m 2
 20 94 l 1
 20 94 78 76 92 72 c 2
 100 69 l 1
 92 64 l 1
 76 54 l 1
 68 50 l 1
 50 56 l 1
 33 61 l 1
 32 35 l 1
 32 10 l 1
 26 6 l 2
 22 4 16 0 10 -4 c 2
 0 -10 l 1
 0 18 l 1
 0 44 l 1
 -6 59 l 2
 -10 67 -12 74 -12 74 c 1
 -12 75 -10 76 7 86 c 2
EndSplineSet
EndChar
StartChar: rests.3mensural
Encoding: 57778 57778 207
Width: 100
GlyphClass: 2
Flags: MW
HStem: -10 104<52 68>
VStem: 68 32<10 17 17 36 36 44 44 44>
Fore
40 86 m 2
 52 94 l 1
 76 78 l 1
 100 62 l 1
 100 36 l 1
 100 10 l 1
 94 6 l 2
 90 4 83 0 78 -4 c 2
 68 -10 l 1
 68 17 l 1
 68 44 l 1
 61 48 l 2
 57 50 49 56 42 60 c 2
 30 68 l 1
 26 65 l 1
 20 62 3 52 1 50 c 1
 0 50 4 56 10 62 c 2
 19 74 20 76 24 77 c 1
 26 78 32 82 40 86 c 2
EndSplineSet
EndChar
StartChar: rests.4mensural
Encoding: 57779 57779 208
Width: 100
GlyphClass: 2
Flags: MW
HStem: -10 130<52 68>
Fore
47 118 m 1
 52 120 l 1
 52 120 64 112 76 103 c 2
 100 86 l 1
 100 48 l 1
 100 10 l 1
 94 6 l 2
 90 4 83 0 78 -4 c 2
 68 -10 l 1
 68 6 l 1
 68 20 l 1
 50 32 l 2
 38 42 34 44 34 44 c 1
 33 44 33 43 32 42 c 2
 32 42 30 40 27 39 c 2
 0 24 l 1
 10 39 l 1
 20 54 l 1
 25 58 l 1
 52 74 l 1
 53 73 56 71 60 68 c 0
 68 62 68 62 68 65 c 2
 68 67 l 1
 50 79 l 2
 35 90 34 92 34 90 c 1
 33 90 28 87 22 83 c 0
 8 74 1 70 0 71 c 1
 10 86 l 1
 20 102 l 1
 31 108 l 2
 37 112 44 116 47 118 c 1
EndSplineSet
EndChar
StartChar: noteheads.slneomensural
Encoding: 57780 57780 209
Width: 250
GlyphClass: 2
Flags: MW
HStem: -69 50<85 165 85 171.5> 19 50<85 165>
VStem: 0 18<-306 -151 -306 -140 -10 0 0 10 80 86> 232 18<-86 -80 -80 -80 -10 0 0 10 10 10 80 86 86 86>
Fore
4 96 m 1
 7 96 10 97 13 96 c 1
 16 94 17 92 18 86 c 1
 18 80 l 1
 20 75 22 72 26 70 c 0
 28 69 32 69 125 69 c 0
 218 69 222 69 224 70 c 0
 228 72 230 75 232 80 c 1
 232 86 l 1
 233 92 234 94 237 96 c 1
 242 98 247 96 249 92 c 2
 250 90 l 1
 250 0 l 1
 250 -90 l 1
 249 -92 l 2
 247 -96 242 -98 237 -96 c 1
 234 -94 233 -92 232 -86 c 1
 232 -80 l 1
 230 -75 228 -72 224 -70 c 0
 222 -69 218 -69 125 -69 c 0
 32 -69 28 -69 26 -70 c 0
 24 -71 22 -73 20 -76 c 1
 18 -81 18 -74 18 -228 c 0
 18 -384 18 -372 14 -375 c 1
 10 -380 3 -378 0 -372 c 1
 0 -140 l 1
 0 90 l 1
 1 92 l 2
 2 94 3 94 4 96 c 1
224 18 m 1
 222 19 205 19 125 19 c 0
 45 19 28 19 26 18 c 1
 23 18 20 16 19 12 c 1
 18 10 l 1
 18 0 l 1
 18 -10 l 1
 19 -12 l 1
 20 -16 23 -18 26 -18 c 1
 28 -19 45 -19 125 -19 c 0
 205 -19 222 -19 224 -18 c 1
 227 -18 230 -16 231 -12 c 1
 232 -10 l 1
 232 0 l 1
 232 10 l 1
 231 12 l 1
 230 16 227 18 224 18 c 1
EndSplineSet
EndChar
StartChar: noteheads.sM3neomensural
Encoding: 57781 57781 210
Width: 325
GlyphClass: 2
Flags: MW
HStem: -69 51<97.5 227> 18 51<97.5 227 97.5 299>
VStem: 0 18<-86 -80 -10 0 0 10 80 86> 308 17<-10 0 0 2 2 10 10 10 86 89>
Fore
4 96 m 1
 7 96 10 97 13 96 c 1
 16 94 17 92 18 86 c 1
 18 80 l 1
 20 75 22 72 26 70 c 0
 28 69 33 69 162 69 c 0
 292 69 298 69 300 70 c 1
 302 72 305 75 306 80 c 2
 307 81 307 84 308 86 c 1
 308 92 309 94 312 96 c 0
 316 98 322 96 324 92 c 2
 325 90 l 1
 325 2 l 1
 325 -87 l 1
 326 -106 l 2
 329 -128 332 -172 334 -196 c 0
 336 -215 336 -216 334 -219 c 0
 332 -221 328 -223 326 -223 c 0
 320 -223 316 -220 315 -216 c 0
 315 -215 313 -186 311 -150 c 0
 309 -116 308 -85 307 -83 c 2
 306 -76 303 -72 300 -70 c 0
 298 -69 292 -69 162 -69 c 0
 33 -69 28 -69 26 -70 c 0
 22 -72 20 -75 18 -80 c 1
 18 -86 l 1
 17 -92 16 -94 13 -96 c 1
 8 -98 3 -96 1 -92 c 2
 0 -90 l 1
 0 0 l 1
 0 90 l 1
 1 92 l 2
 2 94 3 94 4 96 c 1
299 18 m 2
 296 20 28 20 26 18 c 2
 23 18 20 16 19 12 c 1
 18 10 l 1
 18 0 l 1
 18 -10 l 1
 19 -12 l 1
 20 -16 23 -18 26 -18 c 2
 28 -20 296 -20 299 -18 c 2
 302 -18 304 -16 306 -12 c 1
 308 -10 l 1
 308 0 l 1
 308 10 l 1
 306 12 l 1
 304 16 302 18 299 18 c 2
EndSplineSet
EndChar
StartChar: noteheads.sM2neomensural
Encoding: 57782 57782 211
Width: 250
GlyphClass: 2
Flags: MW
HStem: -69 51<78.5 171.5> 19 50<85 165>
VStem: 0 18<-86 -80 -10 0 0 10 80 86> 232 18<-84 -83 -10 0 0 2 2 10 10 10 80 86 86 86>
Fore
4 96 m 1
 7 96 10 97 13 96 c 1
 16 94 17 92 18 86 c 1
 18 80 l 1
 20 75 22 72 26 70 c 0
 28 69 32 69 125 69 c 0
 218 69 222 69 224 70 c 0
 228 72 230 75 232 80 c 1
 232 86 l 1
 233 92 234 94 237 96 c 1
 242 98 247 96 249 92 c 2
 250 90 l 1
 250 2 l 1
 250 -87 l 1
 252 -106 l 2
 254 -128 258 -172 260 -196 c 0
 260 -215 260 -216 258 -219 c 0
 257 -221 253 -223 250 -223 c 0
 246 -223 241 -220 240 -216 c 0
 240 -215 238 -186 236 -150 c 0
 234 -116 232 -85 232 -83 c 0
 231 -76 228 -72 224 -70 c 0
 222 -69 218 -69 125 -69 c 0
 32 -69 28 -69 26 -70 c 0
 22 -72 20 -75 18 -80 c 1
 18 -86 l 1
 17 -92 16 -94 13 -96 c 1
 8 -98 3 -96 1 -92 c 2
 0 -90 l 1
 0 0 l 1
 0 90 l 1
 1 92 l 2
 2 94 3 94 4 96 c 1
224 18 m 1
 222 19 205 19 125 19 c 0
 45 19 28 19 26 18 c 1
 23 18 20 16 19 12 c 1
 18 10 l 1
 18 0 l 1
 18 -10 l 1
 19 -12 l 1
 20 -16 23 -18 26 -18 c 2
 28 -20 222 -20 224 -18 c 2
 227 -18 230 -16 231 -12 c 1
 232 -10 l 1
 232 0 l 1
 232 10 l 1
 231 12 l 1
 230 16 227 18 224 18 c 1
EndSplineSet
EndChar
StartChar: noteheads.sM1neomensural
Encoding: 57783 57783 212
Width: 250
GlyphClass: 2
Flags: MW
HStem: -69 51<78.5 171.5> 18 51<78.5 171.5 78.5 224>
VStem: 0 18<-86 -80 -10 0 0 10 80 86> 232 18<-86 -80 -80 -80 -10 0 0 10 10 10 80 86 86 86>
Fore
4 96 m 1
 7 96 10 97 13 96 c 1
 16 94 17 92 18 86 c 1
 18 80 l 1
 20 75 22 72 26 70 c 0
 28 69 32 69 125 69 c 0
 218 69 222 69 224 70 c 0
 228 72 230 75 232 80 c 1
 232 86 l 1
 233 92 234 94 237 96 c 1
 242 98 247 96 249 92 c 2
 250 90 l 1
 250 0 l 1
 250 -90 l 1
 249 -92 l 2
 247 -96 242 -98 237 -96 c 1
 234 -94 233 -92 232 -86 c 1
 232 -80 l 1
 230 -75 228 -72 224 -70 c 0
 222 -69 218 -69 125 -69 c 0
 32 -69 28 -69 26 -70 c 0
 22 -72 20 -75 18 -80 c 1
 18 -86 l 1
 17 -92 16 -94 13 -96 c 1
 8 -98 3 -96 1 -92 c 2
 0 -90 l 1
 0 0 l 1
 0 90 l 1
 1 92 l 2
 2 94 3 94 4 96 c 1
224 18 m 2
 222 20 28 20 26 18 c 2
 23 18 20 16 19 12 c 1
 18 10 l 1
 18 0 l 1
 18 -10 l 1
 19 -12 l 1
 20 -16 23 -18 26 -18 c 2
 28 -20 222 -20 224 -18 c 2
 227 -18 230 -16 231 -12 c 1
 232 -10 l 1
 232 0 l 1
 232 10 l 1
 231 12 l 1
 230 16 227 18 224 18 c 2
EndSplineSet
EndChar
StartChar: noteheads.s0harmonic
Encoding: 57784 57784 213
Width: 162
GlyphClass: 2
Flags: W
Fore
80 89 m 1
 82 90 83 90 85 88 c 0
 91 82 162 2 162 1 c 2
 162 -2 l 2
 162 -4 84 -89 83 -90 c 1
 80 -90 81 -92 40 -46 c 2
 0 -2 l 1
 0 2 l 1
 1 3 78 89 80 89 c 1
96 16 m 0
 80 33 67 48 66 48 c 1
 64 50 l 1
 50 34 l 2
 43 26 37 18 37 18 c 1
 68 -16 l 2
 92 -42 98 -50 98 -49 c 0
 98 -48 105 -42 112 -33 c 2
 126 -18 l 1
 124 -16 l 1
 124 -16 110 -2 96 16 c 0
EndSplineSet
EndChar
StartChar: noteheads.s0neomensural
Encoding: 57785 57785 214
Width: 125
GlyphClass: 2
Flags: MW
VStem: 0 125<-1 1 -1 2 -1 2>
Fore
60 68 m 0
 61 69 63 70 65 68 c 2
 66 68 124 2 125 1 c 1
 125 -1 l 1
 124 -2 66 -68 65 -68 c 2
 63 -70 61 -69 60 -68 c 0
 56 -65 1 -3 0 -2 c 1
 0 2 l 1
 1 3 56 65 60 68 c 0
74 12 m 1
 52 36 l 1
 31 12 l 1
 31 11 72 -36 73 -36 c 0
 74 -36 94 -12 94 -12 c 1
 74 12 l 1
EndSplineSet
EndChar
StartChar: noteheads.s1neomensural
Encoding: 57786 57786 215
Width: 125
GlyphClass: 2
Flags: MW
VStem: 0 125<-1 1 -1 2 -1 2>
Fore
60 68 m 0
 61 69 63 70 65 68 c 2
 66 68 124 2 125 1 c 1
 125 -1 l 1
 124 -2 66 -68 65 -68 c 2
 63 -70 61 -69 60 -68 c 0
 56 -65 1 -3 0 -2 c 1
 0 2 l 1
 1 3 56 65 60 68 c 0
74 12 m 1
 52 36 l 1
 31 12 l 1
 31 11 72 -36 73 -36 c 0
 74 -36 94 -12 94 -12 c 1
 74 12 l 1
EndSplineSet
EndChar
StartChar: noteheads.s2neomensural
Encoding: 57787 57787 216
Width: 125
GlyphClass: 2
Flags: W
Fore
60 68 m 0
 61 69 63 70 65 68 c 2
 66 68 124 2 125 1 c 1
 125 -1 l 1
 124 -2 66 -68 65 -68 c 2
 63 -70 61 -69 60 -68 c 0
 56 -65 1 -3 0 -2 c 1
 0 2 l 1
 1 3 56 65 60 68 c 0
EndSplineSet
EndChar
StartChar: noteheads.slmensural
Encoding: 57788 57788 217
Width: 125
GlyphClass: 2
Flags: MW
HStem: -69 50<48 76 48 78.5> 19 50<48 76>
VStem: 0 18<-306 -151 -306 -140 -10 0 0 10 80 86> 108 17<-89 -86 -10 0 0 10 10 10 86 89>
Fore
4 96 m 1
 7 96 10 97 13 96 c 1
 16 94 17 92 18 86 c 1
 18 80 l 1
 20 75 22 72 26 70 c 0
 28 69 30 69 62 69 c 0
 95 69 98 69 100 70 c 1
 102 72 105 75 106 80 c 2
 107 81 107 84 108 86 c 1
 108 92 109 94 112 96 c 0
 116 98 122 96 124 92 c 2
 125 90 l 1
 125 0 l 1
 125 -90 l 1
 124 -92 l 2
 122 -96 116 -98 112 -96 c 0
 109 -94 108 -92 108 -86 c 1
 107 -84 107 -81 106 -80 c 2
 105 -75 102 -72 100 -70 c 1
 98 -69 95 -69 62 -69 c 0
 30 -69 28 -69 26 -70 c 0
 24 -71 22 -73 20 -76 c 1
 18 -81 18 -74 18 -228 c 0
 18 -384 18 -372 14 -375 c 1
 10 -380 3 -378 0 -372 c 1
 0 -140 l 1
 0 90 l 1
 1 92 l 2
 2 94 3 94 4 96 c 1
99 18 m 2
 98 19 90 19 62 19 c 0
 34 19 28 19 26 18 c 1
 23 18 20 16 19 12 c 1
 18 10 l 1
 18 0 l 1
 18 -10 l 1
 19 -12 l 1
 20 -16 23 -18 26 -18 c 1
 28 -19 34 -19 62 -19 c 0
 90 -19 98 -19 99 -18 c 2
 102 -18 104 -16 106 -12 c 1
 108 -10 l 1
 108 0 l 1
 108 10 l 1
 106 12 l 1
 104 16 102 18 99 18 c 2
EndSplineSet
EndChar
StartChar: noteheads.sM3mensural
Encoding: 57789 57789 218
Width: 250
GlyphClass: 2
Flags: MW
HStem: -69 50<85 165 85 171.5> 19 50<85 165>
VStem: 0 18<-86 -80 -10 0 0 10 80 86> 232 18<-306 -151 -10 0 0 10 10 10 80 86 86 86>
Fore
4 96 m 1
 7 96 10 97 13 96 c 1
 16 94 17 92 18 86 c 1
 18 80 l 1
 20 75 22 72 26 70 c 0
 28 69 32 69 125 69 c 0
 218 69 222 69 224 70 c 0
 228 72 230 75 232 80 c 1
 232 86 l 1
 233 92 234 94 237 96 c 1
 242 98 247 96 249 92 c 2
 250 90 l 1
 250 -140 l 1
 250 -372 l 1
 247 -378 240 -380 236 -375 c 1
 232 -372 232 -384 232 -228 c 0
 232 -74 232 -81 230 -76 c 1
 228 -73 226 -71 224 -70 c 0
 222 -69 218 -69 125 -69 c 0
 32 -69 28 -69 26 -70 c 0
 22 -72 20 -75 18 -80 c 1
 18 -86 l 1
 17 -92 16 -94 13 -96 c 1
 8 -98 3 -96 1 -92 c 2
 0 -90 l 1
 0 0 l 1
 0 90 l 1
 1 92 l 2
 2 94 3 94 4 96 c 1
224 18 m 1
 222 19 205 19 125 19 c 0
 45 19 28 19 26 18 c 1
 23 18 20 16 19 12 c 1
 18 10 l 1
 18 0 l 1
 18 -10 l 1
 19 -12 l 1
 20 -16 23 -18 26 -18 c 1
 28 -19 45 -19 125 -19 c 0
 205 -19 222 -19 224 -18 c 1
 227 -18 230 -16 231 -12 c 1
 232 -10 l 1
 232 0 l 1
 232 10 l 1
 231 12 l 1
 230 16 227 18 224 18 c 1
EndSplineSet
EndChar
StartChar: noteheads.sM2mensural
Encoding: 57790 57790 219
Width: 125
GlyphClass: 2
Flags: MW
HStem: -69 50<48 76 48 78.5> 19 50<48 76>
VStem: 0 18<-86 -80 -10 0 0 10 80 86> 108 17<-237 -151 -10 0 0 10 10 10 86 89>
Fore
4 96 m 1
 7 96 10 97 13 96 c 1
 16 94 17 92 18 86 c 1
 18 80 l 1
 20 75 22 72 26 70 c 0
 28 69 30 69 62 69 c 0
 95 69 98 69 100 70 c 1
 102 72 105 75 106 80 c 2
 107 81 107 84 108 86 c 1
 108 92 109 94 112 96 c 0
 116 98 122 96 124 92 c 2
 125 90 l 1
 125 -140 l 2
 125 -334 125 -371 124 -372 c 1
 122 -378 115 -380 110 -375 c 0
 108 -372 108 -384 108 -228 c 0
 108 -74 108 -81 105 -76 c 1
 104 -73 102 -71 100 -70 c 0
 98 -69 95 -69 62 -69 c 0
 30 -69 28 -69 26 -70 c 0
 22 -72 20 -75 18 -80 c 1
 18 -86 l 1
 17 -92 16 -94 13 -96 c 1
 8 -98 3 -96 1 -92 c 2
 0 -90 l 1
 0 0 l 1
 0 90 l 1
 1 92 l 2
 2 94 3 94 4 96 c 1
99 18 m 2
 98 19 90 19 62 19 c 0
 34 19 28 19 26 18 c 1
 23 18 20 16 19 12 c 1
 18 10 l 1
 18 0 l 1
 18 -10 l 1
 19 -12 l 1
 20 -16 23 -18 26 -18 c 1
 28 -19 34 -19 62 -19 c 0
 90 -19 98 -19 99 -18 c 2
 102 -18 104 -16 106 -12 c 1
 108 -10 l 1
 108 0 l 1
 108 10 l 1
 106 12 l 1
 104 16 102 18 99 18 c 2
EndSplineSet
EndChar
StartChar: noteheads.sM1mensural
Encoding: 57791 57791 220
Width: 125
GlyphClass: 2
Flags: MW
HStem: 19 50<48 76>
VStem: 0 18<-86 -80 -10 0 0 10 80 86> 108 17<-89 -86 -10 0 0 10 10 10 86 89>
Fore
4 96 m 1
 7 96 10 97 13 96 c 1
 16 94 17 92 18 86 c 1
 18 80 l 1
 20 75 22 72 26 70 c 0
 28 69 30 69 62 69 c 0
 95 69 98 69 100 70 c 1
 102 72 105 75 106 80 c 2
 107 81 107 84 108 86 c 1
 108 92 109 94 112 96 c 0
 116 98 122 96 124 92 c 2
 125 90 l 1
 125 0 l 1
 125 -90 l 1
 124 -92 l 2
 122 -96 116 -98 112 -96 c 0
 109 -94 108 -92 108 -86 c 1
 107 -84 107 -81 106 -80 c 2
 105 -75 102 -72 100 -70 c 1
 98 -69 95 -69 62 -69 c 0
 30 -69 28 -69 26 -70 c 0
 22 -72 20 -75 18 -80 c 1
 18 -86 l 1
 17 -92 16 -94 13 -96 c 1
 8 -98 3 -96 1 -92 c 2
 0 -90 l 1
 0 0 l 1
 0 90 l 1
 1 92 l 2
 2 94 3 94 4 96 c 1
99 18 m 2
 98 19 90 19 62 19 c 0
 34 19 28 19 26 18 c 1
 23 18 20 16 19 12 c 1
 18 10 l 1
 18 0 l 1
 18 -10 l 1
 19 -12 l 1
 20 -16 23 -18 26 -18 c 2
 28 -20 96 -20 99 -18 c 2
 102 -18 104 -16 106 -12 c 1
 108 -10 l 1
 108 0 l 1
 108 10 l 1
 106 12 l 1
 104 16 102 18 99 18 c 2
EndSplineSet
EndChar
StartChar: noteheads.s0mensural
Encoding: 57792 57792 221
Width: 72
GlyphClass: 2
Flags: MW
HStem: -62 124<30 42>
VStem: 1 70
Fore
36 61 m 1
 39 62 41 63 42 62 c 2
 57 34 l 2
 73 5 73 6 71 1 c 0
 70 -2 42 -54 40 -58 c 1
 37 -61 32 -64 30 -62 c 1
 15 -34 l 2
 -1 -5 -1 -6 1 -1 c 0
 2 2 30 54 32 58 c 1
 34 58 35 60 36 61 c 1
45 16 m 2
 39 28 34 36 34 36 c 1
 33 36 16 6 16 4 c 1
 38 -36 l 1
 39 -36 56 -6 56 -4 c 1
 45 16 l 2
EndSplineSet
EndChar
StartChar: noteheads.s1mensural
Encoding: 57793 57793 222
Width: 72
GlyphClass: 2
Flags: MW
HStem: -62 124<30 42>
VStem: 1 70
Fore
36 61 m 1
 39 62 41 63 42 62 c 2
 57 34 l 2
 73 5 73 6 71 1 c 0
 70 -2 42 -54 40 -58 c 1
 37 -61 32 -64 30 -62 c 1
 15 -34 l 2
 -1 -5 -1 -6 1 -1 c 0
 2 2 30 54 32 58 c 1
 34 58 35 60 36 61 c 1
45 16 m 2
 39 28 34 36 34 36 c 1
 33 36 16 6 16 4 c 1
 38 -36 l 1
 39 -36 56 -6 56 -4 c 1
 45 16 l 2
EndSplineSet
EndChar
